<svg width="288" height="342" viewBox="0 0 288 342" fill="none" xmlns="http://www.w3.org/2000/svg">
<g filter="url(#filter0_d_514_259)">
<rect x="10" y="8" width="260" height="314" fill="#2D478D"/>
</g>
<path d="M42.92 188V170.96H50.072C50.84 170.96 51.544 171.12 52.184 171.44C52.824 171.76 53.384 172.184 53.864 172.712C54.344 173.24 54.712 173.832 54.968 174.488C55.224 175.144 55.352 175.816 55.352 176.504C55.352 177.448 55.136 178.352 54.704 179.216C54.288 180.064 53.688 180.752 52.904 181.28C52.136 181.808 51.24 182.072 50.216 182.072H45.608V188H42.92ZM45.608 179.696H50.048C50.56 179.696 51.008 179.56 51.392 179.288C51.776 179 52.072 178.616 52.28 178.136C52.504 177.656 52.616 177.112 52.616 176.504C52.616 175.88 52.488 175.328 52.232 174.848C51.976 174.368 51.64 174 51.224 173.744C50.824 173.472 50.384 173.336 49.904 173.336H45.608V179.696ZM68.7931 188H66.1531V180.968C66.1531 179.832 65.9451 178.984 65.5291 178.424C65.1131 177.864 64.5291 177.584 63.7771 177.584C63.3131 177.584 62.8331 177.712 62.3371 177.968C61.8411 178.224 61.4011 178.576 61.0171 179.024C60.6331 179.456 60.3531 179.96 60.1771 180.536V188H57.5371V170.48H60.1771V177.968C60.6571 177.12 61.3131 176.456 62.1451 175.976C62.9771 175.48 63.8731 175.232 64.8331 175.232C65.6171 175.232 66.2651 175.368 66.7771 175.64C67.2891 175.912 67.6891 176.288 67.9771 176.768C68.2811 177.232 68.4891 177.776 68.6011 178.4C68.7291 179.008 68.7931 179.656 68.7931 180.344V188ZM77.4974 188.24C76.5054 188.24 75.6174 188.072 74.8334 187.736C74.0494 187.384 73.3694 186.904 72.7934 186.296C72.2334 185.688 71.8014 185 71.4974 184.232C71.1934 183.448 71.0414 182.616 71.0414 181.736C71.0414 180.856 71.1934 180.024 71.4974 179.24C71.8014 178.456 72.2334 177.768 72.7934 177.176C73.3694 176.568 74.0494 176.096 74.8334 175.76C75.6334 175.408 76.5214 175.232 77.4974 175.232C78.4734 175.232 79.3534 175.408 80.1374 175.76C80.9374 176.096 81.6174 176.568 82.1774 177.176C82.7534 177.768 83.1934 178.456 83.4974 179.24C83.8014 180.024 83.9534 180.856 83.9534 181.736C83.9534 182.616 83.8014 183.448 83.4974 184.232C83.1934 185 82.7534 185.688 82.1774 186.296C81.6174 186.904 80.9374 187.384 80.1374 187.736C79.3534 188.072 78.4734 188.24 77.4974 188.24ZM73.7534 181.76C73.7534 182.56 73.9214 183.28 74.2574 183.92C74.5934 184.56 75.0414 185.064 75.6014 185.432C76.1614 185.8 76.7934 185.984 77.4974 185.984C78.1854 185.984 78.8094 185.8 79.3694 185.432C79.9454 185.048 80.4014 184.536 80.7374 183.896C81.0734 183.24 81.2414 182.52 81.2414 181.736C81.2414 180.936 81.0734 180.216 80.7374 179.576C80.4014 178.936 79.9454 178.432 79.3694 178.064C78.8094 177.68 78.1854 177.488 77.4974 177.488C76.7934 177.488 76.1614 177.68 75.6014 178.064C75.0414 178.448 74.5934 178.96 74.2574 179.6C73.9214 180.224 73.7534 180.944 73.7534 181.76ZM93.0914 187.352C92.8674 187.464 92.5874 187.584 92.2514 187.712C91.9154 187.84 91.5314 187.952 91.0994 188.048C90.6834 188.144 90.2514 188.192 89.8034 188.192C89.2594 188.192 88.7554 188.096 88.2914 187.904C87.8274 187.712 87.4514 187.408 87.1634 186.992C86.8914 186.56 86.7554 186.008 86.7554 185.336V177.488H85.0994V175.448H86.7554V171.32H89.3954V175.448H92.1314V177.488H89.3954V184.496C89.4274 184.928 89.5634 185.248 89.8034 185.456C90.0594 185.664 90.3714 185.768 90.7394 185.768C91.1074 185.768 91.4594 185.704 91.7954 185.576C92.1314 185.448 92.3794 185.344 92.5394 185.264L93.0914 187.352ZM100.396 188.24C99.4039 188.24 98.5159 188.072 97.7319 187.736C96.9479 187.384 96.2679 186.904 95.6919 186.296C95.1319 185.688 94.6999 185 94.3959 184.232C94.0919 183.448 93.9399 182.616 93.9399 181.736C93.9399 180.856 94.0919 180.024 94.3959 179.24C94.6999 178.456 95.1319 177.768 95.6919 177.176C96.2679 176.568 96.9479 176.096 97.7319 175.76C98.5319 175.408 99.4199 175.232 100.396 175.232C101.372 175.232 102.252 175.408 103.036 175.76C103.836 176.096 104.516 176.568 105.076 177.176C105.652 177.768 106.092 178.456 106.396 179.24C106.7 180.024 106.852 180.856 106.852 181.736C106.852 182.616 106.7 183.448 106.396 184.232C106.092 185 105.652 185.688 105.076 186.296C104.516 186.904 103.836 187.384 103.036 187.736C102.252 188.072 101.372 188.24 100.396 188.24ZM96.6519 181.76C96.6519 182.56 96.8199 183.28 97.1559 183.92C97.4919 184.56 97.9399 185.064 98.4999 185.432C99.0599 185.8 99.6919 185.984 100.396 185.984C101.084 185.984 101.708 185.8 102.268 185.432C102.844 185.048 103.3 184.536 103.636 183.896C103.972 183.24 104.14 182.52 104.14 181.736C104.14 180.936 103.972 180.216 103.636 179.576C103.3 178.936 102.844 178.432 102.268 178.064C101.708 177.68 101.084 177.488 100.396 177.488C99.6919 177.488 99.0599 177.68 98.4999 178.064C97.9399 178.448 97.4919 178.96 97.1559 179.6C96.8199 180.224 96.6519 180.944 96.6519 181.76ZM114.161 188.12C113.313 188.12 112.537 187.952 111.833 187.616C111.129 187.264 110.521 186.792 110.009 186.2C109.513 185.608 109.121 184.928 108.833 184.16C108.561 183.392 108.425 182.584 108.425 181.736C108.425 180.84 108.569 180 108.857 179.216C109.145 178.432 109.545 177.744 110.057 177.152C110.585 176.544 111.201 176.072 111.905 175.736C112.609 175.4 113.393 175.232 114.257 175.232C115.265 175.232 116.145 175.472 116.897 175.952C117.665 176.432 118.297 177.056 118.793 177.824V175.448H121.121V187.64C121.121 188.856 120.825 189.888 120.233 190.736C119.657 191.584 118.865 192.232 117.857 192.68C116.849 193.128 115.713 193.352 114.449 193.352C113.057 193.352 111.905 193.112 110.993 192.632C110.081 192.152 109.305 191.496 108.665 190.664L110.153 189.272C110.633 189.944 111.249 190.456 112.001 190.808C112.769 191.16 113.585 191.336 114.449 191.336C115.169 191.336 115.833 191.2 116.441 190.928C117.065 190.672 117.561 190.264 117.929 189.704C118.297 189.16 118.481 188.472 118.481 187.64V185.72C118.033 186.472 117.417 187.064 116.633 187.496C115.849 187.912 115.025 188.12 114.161 188.12ZM115.025 185.984C115.425 185.984 115.809 185.92 116.177 185.792C116.545 185.648 116.881 185.464 117.185 185.24C117.505 185 117.777 184.736 118.001 184.448C118.225 184.144 118.385 183.824 118.481 183.488V180.2C118.273 179.656 117.977 179.184 117.593 178.784C117.209 178.368 116.777 178.048 116.297 177.824C115.817 177.6 115.329 177.488 114.833 177.488C114.257 177.488 113.737 177.616 113.273 177.872C112.825 178.112 112.441 178.44 112.121 178.856C111.801 179.256 111.553 179.712 111.377 180.224C111.201 180.736 111.113 181.264 111.113 181.808C111.113 182.384 111.209 182.92 111.401 183.416C111.609 183.912 111.889 184.36 112.241 184.76C112.593 185.144 113.009 185.448 113.489 185.672C113.969 185.88 114.481 185.984 115.025 185.984ZM131.343 177.728C130.319 177.744 129.407 177.976 128.607 178.424C127.823 178.872 127.263 179.504 126.927 180.32V188H124.287V175.448H126.735V178.256C127.167 177.392 127.735 176.704 128.439 176.192C129.143 175.664 129.887 175.376 130.671 175.328C130.831 175.328 130.959 175.328 131.055 175.328C131.167 175.328 131.263 175.336 131.343 175.352V177.728ZM132.328 184.328C132.328 183.528 132.552 182.832 133 182.24C133.464 181.632 134.096 181.168 134.896 180.848C135.696 180.512 136.624 180.344 137.68 180.344C138.24 180.344 138.808 180.384 139.384 180.464C139.976 180.544 140.496 180.672 140.944 180.848V180.056C140.944 179.176 140.68 178.488 140.152 177.992C139.624 177.496 138.864 177.248 137.872 177.248C137.168 177.248 136.504 177.376 135.88 177.632C135.256 177.872 134.592 178.216 133.888 178.664L133 176.888C133.832 176.328 134.664 175.912 135.496 175.64C136.344 175.368 137.232 175.232 138.16 175.232C139.84 175.232 141.16 175.68 142.12 176.576C143.096 177.456 143.584 178.712 143.584 180.344V185.024C143.584 185.328 143.632 185.544 143.728 185.672C143.84 185.8 144.024 185.872 144.28 185.888V188C144.04 188.048 143.824 188.08 143.632 188.096C143.44 188.112 143.28 188.12 143.152 188.12C142.592 188.12 142.168 187.984 141.88 187.712C141.592 187.44 141.424 187.12 141.376 186.752L141.304 186.032C140.76 186.736 140.064 187.28 139.216 187.664C138.368 188.048 137.512 188.24 136.648 188.24C135.816 188.24 135.072 188.072 134.416 187.736C133.76 187.384 133.248 186.912 132.88 186.32C132.512 185.728 132.328 185.064 132.328 184.328ZM140.32 185.096C140.512 184.888 140.664 184.68 140.776 184.472C140.888 184.264 140.944 184.08 140.944 183.92V182.48C140.496 182.304 140.024 182.176 139.528 182.096C139.032 182 138.544 181.952 138.064 181.952C137.104 181.952 136.32 182.144 135.712 182.528C135.12 182.912 134.824 183.44 134.824 184.112C134.824 184.48 134.92 184.832 135.112 185.168C135.32 185.504 135.608 185.776 135.976 185.984C136.36 186.192 136.832 186.296 137.392 186.296C137.968 186.296 138.52 186.184 139.048 185.96C139.576 185.736 140 185.448 140.32 185.096ZM153.915 188.24C152.907 188.24 152.019 188 151.251 187.52C150.483 187.04 149.875 186.416 149.427 185.648V193.112H146.787V175.448H149.115V177.704C149.595 176.952 150.219 176.352 150.987 175.904C151.755 175.456 152.611 175.232 153.555 175.232C154.419 175.232 155.211 175.408 155.931 175.76C156.651 176.096 157.275 176.568 157.803 177.176C158.331 177.784 158.739 178.48 159.027 179.264C159.331 180.032 159.483 180.848 159.483 181.712C159.483 182.912 159.243 184.008 158.763 185C158.299 185.992 157.643 186.784 156.795 187.376C155.963 187.952 155.003 188.24 153.915 188.24ZM153.051 185.984C153.611 185.984 154.115 185.864 154.563 185.624C155.027 185.384 155.419 185.064 155.739 184.664C156.075 184.264 156.331 183.808 156.507 183.296C156.683 182.784 156.771 182.256 156.771 181.712C156.771 181.136 156.675 180.592 156.483 180.08C156.291 179.568 156.011 179.12 155.643 178.736C155.291 178.352 154.875 178.048 154.395 177.824C153.931 177.6 153.419 177.488 152.859 177.488C152.523 177.488 152.171 177.552 151.803 177.68C151.435 177.808 151.091 177.984 150.771 178.208C150.451 178.432 150.171 178.696 149.931 179C149.691 179.304 149.523 179.624 149.427 179.96V183.248C149.651 183.76 149.947 184.224 150.315 184.64C150.683 185.04 151.107 185.368 151.587 185.624C152.067 185.864 152.555 185.984 153.051 185.984ZM173.113 188H170.473V180.968C170.473 179.832 170.265 178.984 169.849 178.424C169.433 177.864 168.849 177.584 168.097 177.584C167.633 177.584 167.153 177.712 166.657 177.968C166.161 178.224 165.721 178.576 165.337 179.024C164.953 179.456 164.673 179.96 164.497 180.536V188H161.857V170.48H164.497V177.968C164.977 177.12 165.633 176.456 166.465 175.976C167.297 175.48 168.193 175.232 169.153 175.232C169.937 175.232 170.585 175.368 171.097 175.64C171.609 175.912 172.009 176.288 172.297 176.768C172.601 177.232 172.809 177.776 172.921 178.4C173.049 179.008 173.113 179.656 173.113 180.344V188ZM176.352 190.952C176.592 190.984 176.824 191.016 177.048 191.048C177.288 191.096 177.48 191.12 177.624 191.12C177.896 191.12 178.128 191.032 178.32 190.856C178.528 190.696 178.736 190.392 178.944 189.944C179.152 189.496 179.408 188.848 179.712 188L174.552 175.448H177.312L181.152 185.312L184.56 175.448H187.104L181.416 190.904C181.24 191.368 180.984 191.792 180.648 192.176C180.312 192.576 179.896 192.888 179.4 193.112C178.904 193.336 178.32 193.448 177.648 193.448C177.456 193.448 177.256 193.432 177.048 193.4C176.84 193.368 176.608 193.32 176.352 193.256V190.952Z" fill="white"/>
<path d="M42.602 218V205.22H47.894C48.446 205.22 48.95 205.334 49.406 205.562C49.874 205.79 50.276 206.102 50.612 206.498C50.948 206.882 51.212 207.314 51.404 207.794C51.596 208.262 51.692 208.742 51.692 209.234C51.692 209.93 51.536 210.59 51.224 211.214C50.924 211.826 50.498 212.324 49.946 212.708C49.394 213.092 48.746 213.284 48.002 213.284H43.862V218H42.602ZM43.862 212.168H47.948C48.452 212.168 48.89 212.03 49.262 211.754C49.634 211.478 49.922 211.118 50.126 210.674C50.33 210.23 50.432 209.75 50.432 209.234C50.432 208.706 50.312 208.22 50.072 207.776C49.832 207.332 49.514 206.984 49.118 206.732C48.734 206.468 48.308 206.336 47.84 206.336H43.862V212.168ZM58.2273 209.702C57.4113 209.726 56.6913 209.954 56.0673 210.386C55.4553 210.818 55.0233 211.412 54.7713 212.168V218H53.5473V208.622H54.6993V210.872C55.0233 210.212 55.4493 209.678 55.9773 209.27C56.5173 208.862 57.0873 208.634 57.6873 208.586C57.8073 208.574 57.9093 208.568 57.9933 208.568C58.0893 208.568 58.1673 208.574 58.2273 208.586V209.702ZM63.609 218.18C62.937 218.18 62.313 218.054 61.737 217.802C61.161 217.538 60.663 217.184 60.243 216.74C59.823 216.284 59.493 215.762 59.253 215.174C59.025 214.586 58.911 213.956 58.911 213.284C58.911 212.408 59.109 211.604 59.505 210.872C59.913 210.14 60.471 209.558 61.179 209.126C61.887 208.682 62.691 208.46 63.591 208.46C64.515 208.46 65.319 208.682 66.003 209.126C66.699 209.57 67.245 210.158 67.641 210.89C68.037 211.61 68.235 212.402 68.235 213.266C68.235 213.362 68.235 213.458 68.235 213.554C68.235 213.638 68.229 213.704 68.217 213.752H60.189C60.249 214.424 60.435 215.024 60.747 215.552C61.071 216.068 61.485 216.482 61.989 216.794C62.505 217.094 63.063 217.244 63.663 217.244C64.275 217.244 64.851 217.088 65.391 216.776C65.943 216.464 66.327 216.056 66.543 215.552L67.605 215.84C67.413 216.284 67.119 216.686 66.723 217.046C66.327 217.406 65.859 217.688 65.319 217.892C64.791 218.084 64.221 218.18 63.609 218.18ZM60.153 212.87H67.083C67.035 212.186 66.849 211.586 66.525 211.07C66.213 210.554 65.799 210.152 65.283 209.864C64.779 209.564 64.221 209.414 63.609 209.414C62.997 209.414 62.439 209.564 61.935 209.864C61.431 210.152 61.017 210.56 60.693 211.088C60.381 211.604 60.201 212.198 60.153 212.87ZM73.2014 218.18C72.4334 218.18 71.7194 218.054 71.0594 217.802C70.3994 217.55 69.8294 217.166 69.3494 216.65L69.8534 215.786C70.3814 216.278 70.9094 216.638 71.4374 216.866C71.9774 217.082 72.5474 217.19 73.1474 217.19C73.8794 217.19 74.4734 217.046 74.9294 216.758C75.3854 216.458 75.6134 216.032 75.6134 215.48C75.6134 215.108 75.4994 214.826 75.2714 214.634C75.0554 214.43 74.7374 214.268 74.3174 214.148C73.9094 214.016 73.4174 213.878 72.8414 213.734C72.1934 213.554 71.6474 213.368 71.2034 213.176C70.7714 212.972 70.4414 212.72 70.2134 212.42C69.9974 212.108 69.8894 211.706 69.8894 211.214C69.8894 210.602 70.0394 210.098 70.3394 209.702C70.6514 209.294 71.0714 208.988 71.5994 208.784C72.1394 208.568 72.7394 208.46 73.3994 208.46C74.1194 208.46 74.7554 208.574 75.3074 208.802C75.8594 209.03 76.3094 209.348 76.6574 209.756L76.0634 210.584C75.7274 210.2 75.3254 209.918 74.8574 209.738C74.4014 209.546 73.8914 209.45 73.3274 209.45C72.9434 209.45 72.5774 209.504 72.2294 209.612C71.8814 209.708 71.5934 209.876 71.3654 210.116C71.1494 210.344 71.0414 210.662 71.0414 211.07C71.0414 211.406 71.1254 211.67 71.2934 211.862C71.4614 212.042 71.7134 212.198 72.0494 212.33C72.3854 212.45 72.7994 212.582 73.2914 212.726C73.9994 212.918 74.6174 213.116 75.1454 213.32C75.6734 213.512 76.0814 213.764 76.3694 214.076C76.6574 214.388 76.8014 214.826 76.8014 215.39C76.8014 216.266 76.4714 216.95 75.8114 217.442C75.1514 217.934 74.2814 218.18 73.2014 218.18ZM82.8746 218.18C82.2026 218.18 81.5786 218.054 81.0026 217.802C80.4266 217.538 79.9286 217.184 79.5086 216.74C79.0886 216.284 78.7586 215.762 78.5186 215.174C78.2906 214.586 78.1766 213.956 78.1766 213.284C78.1766 212.408 78.3746 211.604 78.7706 210.872C79.1786 210.14 79.7366 209.558 80.4446 209.126C81.1526 208.682 81.9566 208.46 82.8566 208.46C83.7806 208.46 84.5846 208.682 85.2686 209.126C85.9646 209.57 86.5106 210.158 86.9066 210.89C87.3026 211.61 87.5006 212.402 87.5006 213.266C87.5006 213.362 87.5006 213.458 87.5006 213.554C87.5006 213.638 87.4946 213.704 87.4826 213.752H79.4546C79.5146 214.424 79.7006 215.024 80.0126 215.552C80.3366 216.068 80.7506 216.482 81.2546 216.794C81.7706 217.094 82.3286 217.244 82.9286 217.244C83.5406 217.244 84.1166 217.088 84.6566 216.776C85.2086 216.464 85.5926 216.056 85.8086 215.552L86.8706 215.84C86.6786 216.284 86.3846 216.686 85.9886 217.046C85.5926 217.406 85.1246 217.688 84.5846 217.892C84.0566 218.084 83.4866 218.18 82.8746 218.18ZM79.4186 212.87H86.3486C86.3006 212.186 86.1146 211.586 85.7906 211.07C85.4786 210.554 85.0646 210.152 84.5486 209.864C84.0446 209.564 83.4866 209.414 82.8746 209.414C82.2626 209.414 81.7046 209.564 81.2006 209.864C80.6966 210.152 80.2826 210.56 79.9586 211.088C79.6466 211.604 79.4666 212.198 79.4186 212.87ZM94.0691 209.702C93.2531 209.726 92.5331 209.954 91.9091 210.386C91.2971 210.818 90.8651 211.412 90.6131 212.168V218H89.3891V208.622H90.5411V210.872C90.8651 210.212 91.2911 209.678 91.8191 209.27C92.3591 208.862 92.9291 208.634 93.5291 208.586C93.6491 208.574 93.7511 208.568 93.8351 208.568C93.9311 208.568 94.0091 208.574 94.0691 208.586V209.702ZM98.4896 218L94.6916 208.622H95.9696L99.1736 216.776L102.396 208.622H103.602L99.8036 218H98.4896ZM109.031 218.18C108.359 218.18 107.735 218.054 107.159 217.802C106.583 217.538 106.085 217.184 105.665 216.74C105.245 216.284 104.915 215.762 104.675 215.174C104.447 214.586 104.333 213.956 104.333 213.284C104.333 212.408 104.531 211.604 104.927 210.872C105.335 210.14 105.893 209.558 106.601 209.126C107.309 208.682 108.113 208.46 109.013 208.46C109.937 208.46 110.741 208.682 111.425 209.126C112.121 209.57 112.667 210.158 113.063 210.89C113.459 211.61 113.657 212.402 113.657 213.266C113.657 213.362 113.657 213.458 113.657 213.554C113.657 213.638 113.651 213.704 113.639 213.752H105.611C105.671 214.424 105.857 215.024 106.169 215.552C106.493 216.068 106.907 216.482 107.411 216.794C107.927 217.094 108.485 217.244 109.085 217.244C109.697 217.244 110.273 217.088 110.813 216.776C111.365 216.464 111.749 216.056 111.965 215.552L113.027 215.84C112.835 216.284 112.541 216.686 112.145 217.046C111.749 217.406 111.281 217.688 110.741 217.892C110.213 218.084 109.643 218.18 109.031 218.18ZM105.575 212.87H112.505C112.457 212.186 112.271 211.586 111.947 211.07C111.635 210.554 111.221 210.152 110.705 209.864C110.201 209.564 109.643 209.414 109.031 209.414C108.419 209.414 107.861 209.564 107.357 209.864C106.853 210.152 106.439 210.56 106.115 211.088C105.803 211.604 105.623 212.198 105.575 212.87ZM134.083 218H132.859V212.762C132.859 211.67 132.685 210.866 132.337 210.35C131.989 209.834 131.473 209.576 130.789 209.576C130.081 209.576 129.445 209.828 128.881 210.332C128.329 210.836 127.939 211.484 127.711 212.276V218H126.487V212.762C126.487 211.658 126.319 210.854 125.983 210.35C125.647 209.834 125.131 209.576 124.435 209.576C123.739 209.576 123.109 209.822 122.545 210.314C121.981 210.806 121.585 211.454 121.357 212.258V218H120.133V208.622H121.249V210.746C121.645 210.014 122.149 209.45 122.761 209.054C123.385 208.658 124.075 208.46 124.831 208.46C125.611 208.46 126.241 208.682 126.721 209.126C127.201 209.57 127.495 210.152 127.603 210.872C128.035 210.08 128.551 209.48 129.151 209.072C129.763 208.664 130.453 208.46 131.221 208.46C131.749 208.46 132.193 208.556 132.553 208.748C132.925 208.94 133.219 209.216 133.435 209.576C133.663 209.924 133.825 210.35 133.921 210.854C134.029 211.346 134.083 211.898 134.083 212.51V218ZM140.724 218.18C140.052 218.18 139.428 218.054 138.852 217.802C138.276 217.538 137.778 217.184 137.358 216.74C136.938 216.284 136.608 215.762 136.368 215.174C136.14 214.586 136.026 213.956 136.026 213.284C136.026 212.408 136.224 211.604 136.62 210.872C137.028 210.14 137.586 209.558 138.294 209.126C139.002 208.682 139.806 208.46 140.706 208.46C141.63 208.46 142.434 208.682 143.118 209.126C143.814 209.57 144.36 210.158 144.756 210.89C145.152 211.61 145.35 212.402 145.35 213.266C145.35 213.362 145.35 213.458 145.35 213.554C145.35 213.638 145.344 213.704 145.332 213.752H137.304C137.364 214.424 137.55 215.024 137.862 215.552C138.186 216.068 138.6 216.482 139.104 216.794C139.62 217.094 140.178 217.244 140.778 217.244C141.39 217.244 141.966 217.088 142.506 216.776C143.058 216.464 143.442 216.056 143.658 215.552L144.72 215.84C144.528 216.284 144.234 216.686 143.838 217.046C143.442 217.406 142.974 217.688 142.434 217.892C141.906 218.084 141.336 218.18 140.724 218.18ZM137.268 212.87H144.198C144.15 212.186 143.964 211.586 143.64 211.07C143.328 210.554 142.914 210.152 142.398 209.864C141.894 209.564 141.336 209.414 140.724 209.414C140.112 209.414 139.554 209.564 139.05 209.864C138.546 210.152 138.132 210.56 137.808 211.088C137.496 211.604 137.316 212.198 137.268 212.87ZM161.189 218H159.965V212.762C159.965 211.67 159.791 210.866 159.443 210.35C159.095 209.834 158.579 209.576 157.895 209.576C157.187 209.576 156.551 209.828 155.987 210.332C155.435 210.836 155.045 211.484 154.817 212.276V218H153.593V212.762C153.593 211.658 153.425 210.854 153.089 210.35C152.753 209.834 152.237 209.576 151.541 209.576C150.845 209.576 150.215 209.822 149.651 210.314C149.087 210.806 148.691 211.454 148.463 212.258V218H147.239V208.622H148.355V210.746C148.751 210.014 149.255 209.45 149.867 209.054C150.491 208.658 151.181 208.46 151.937 208.46C152.717 208.46 153.347 208.682 153.827 209.126C154.307 209.57 154.601 210.152 154.709 210.872C155.141 210.08 155.657 209.48 156.257 209.072C156.869 208.664 157.559 208.46 158.327 208.46C158.855 208.46 159.299 208.556 159.659 208.748C160.031 208.94 160.325 209.216 160.541 209.576C160.769 209.924 160.931 210.35 161.027 210.854C161.135 211.346 161.189 211.898 161.189 212.51V218ZM167.776 218.18C167.104 218.18 166.48 218.054 165.904 217.802C165.34 217.538 164.848 217.184 164.428 216.74C164.02 216.284 163.702 215.768 163.474 215.192C163.246 214.604 163.132 213.986 163.132 213.338C163.132 212.666 163.246 212.042 163.474 211.466C163.702 210.878 164.026 210.362 164.446 209.918C164.866 209.462 165.358 209.108 165.922 208.856C166.498 208.592 167.122 208.46 167.794 208.46C168.466 208.46 169.084 208.592 169.648 208.856C170.212 209.108 170.704 209.462 171.124 209.918C171.544 210.362 171.868 210.878 172.096 211.466C172.324 212.042 172.438 212.666 172.438 213.338C172.438 213.986 172.324 214.604 172.096 215.192C171.868 215.768 171.544 216.284 171.124 216.74C170.716 217.184 170.224 217.538 169.648 217.802C169.084 218.054 168.46 218.18 167.776 218.18ZM164.374 213.356C164.374 214.052 164.524 214.688 164.824 215.264C165.136 215.828 165.55 216.278 166.066 216.614C166.582 216.938 167.152 217.1 167.776 217.1C168.4 217.1 168.97 216.932 169.486 216.596C170.002 216.26 170.416 215.804 170.728 215.228C171.04 214.64 171.196 214.004 171.196 213.32C171.196 212.624 171.04 211.988 170.728 211.412C170.416 210.836 170.002 210.38 169.486 210.044C168.97 209.708 168.4 209.54 167.776 209.54C167.152 209.54 166.582 209.714 166.066 210.062C165.562 210.41 165.154 210.872 164.842 211.448C164.53 212.012 164.374 212.648 164.374 213.356ZM179.165 209.702C178.349 209.726 177.629 209.954 177.005 210.386C176.393 210.818 175.961 211.412 175.709 212.168V218H174.485V208.622H175.637V210.872C175.961 210.212 176.387 209.678 176.915 209.27C177.455 208.862 178.025 208.634 178.625 208.586C178.745 208.574 178.847 208.568 178.931 208.568C179.027 208.568 179.105 208.574 179.165 208.586V209.702ZM180.795 218V208.622H182.019V218H180.795ZM180.795 206.66V204.86H182.019V206.66H180.795ZM188.765 218.18C188.093 218.18 187.469 218.054 186.893 217.802C186.317 217.538 185.819 217.184 185.399 216.74C184.979 216.284 184.649 215.762 184.409 215.174C184.181 214.586 184.067 213.956 184.067 213.284C184.067 212.408 184.265 211.604 184.661 210.872C185.069 210.14 185.627 209.558 186.335 209.126C187.043 208.682 187.847 208.46 188.747 208.46C189.671 208.46 190.475 208.682 191.159 209.126C191.855 209.57 192.401 210.158 192.797 210.89C193.193 211.61 193.391 212.402 193.391 213.266C193.391 213.362 193.391 213.458 193.391 213.554C193.391 213.638 193.385 213.704 193.373 213.752H185.345C185.405 214.424 185.591 215.024 185.903 215.552C186.227 216.068 186.641 216.482 187.145 216.794C187.661 217.094 188.219 217.244 188.819 217.244C189.431 217.244 190.007 217.088 190.547 216.776C191.099 216.464 191.483 216.056 191.699 215.552L192.761 215.84C192.569 216.284 192.275 216.686 191.879 217.046C191.483 217.406 191.015 217.688 190.475 217.892C189.947 218.084 189.377 218.18 188.765 218.18ZM185.309 212.87H192.239C192.191 212.186 192.005 211.586 191.681 211.07C191.369 210.554 190.955 210.152 190.439 209.864C189.935 209.564 189.377 209.414 188.765 209.414C188.153 209.414 187.595 209.564 187.091 209.864C186.587 210.152 186.173 210.56 185.849 211.088C185.537 211.604 185.357 212.198 185.309 212.87ZM198.358 218.18C197.59 218.18 196.876 218.054 196.216 217.802C195.556 217.55 194.986 217.166 194.506 216.65L195.01 215.786C195.538 216.278 196.066 216.638 196.594 216.866C197.134 217.082 197.704 217.19 198.304 217.19C199.036 217.19 199.63 217.046 200.086 216.758C200.542 216.458 200.77 216.032 200.77 215.48C200.77 215.108 200.656 214.826 200.428 214.634C200.212 214.43 199.894 214.268 199.474 214.148C199.066 214.016 198.574 213.878 197.998 213.734C197.35 213.554 196.804 213.368 196.36 213.176C195.928 212.972 195.598 212.72 195.37 212.42C195.154 212.108 195.046 211.706 195.046 211.214C195.046 210.602 195.196 210.098 195.496 209.702C195.808 209.294 196.228 208.988 196.756 208.784C197.296 208.568 197.896 208.46 198.556 208.46C199.276 208.46 199.912 208.574 200.464 208.802C201.016 209.03 201.466 209.348 201.814 209.756L201.22 210.584C200.884 210.2 200.482 209.918 200.014 209.738C199.558 209.546 199.048 209.45 198.484 209.45C198.1 209.45 197.734 209.504 197.386 209.612C197.038 209.708 196.75 209.876 196.522 210.116C196.306 210.344 196.198 210.662 196.198 211.07C196.198 211.406 196.282 211.67 196.45 211.862C196.618 212.042 196.87 212.198 197.206 212.33C197.542 212.45 197.956 212.582 198.448 212.726C199.156 212.918 199.774 213.116 200.302 213.32C200.83 213.512 201.238 213.764 201.526 214.076C201.814 214.388 201.958 214.826 201.958 215.39C201.958 216.266 201.628 216.95 200.968 217.442C200.308 217.934 199.438 218.18 198.358 218.18ZM219.867 208.622H221.073L217.041 218H215.979L214.017 213.338L212.073 218H211.011L206.979 208.622H208.167L211.587 216.74L213.315 212.51L211.731 208.64H212.829L214.017 211.682L215.223 208.64H216.303L214.737 212.51L216.465 216.74L219.867 208.622ZM222.702 218V208.622H223.926V218H222.702ZM222.702 206.66V204.86H223.926V206.66H222.702ZM231.121 217.55C231.025 217.586 230.875 217.652 230.671 217.748C230.467 217.844 230.221 217.928 229.933 218C229.645 218.072 229.333 218.108 228.997 218.108C228.649 218.108 228.319 218.042 228.007 217.91C227.707 217.778 227.467 217.58 227.287 217.316C227.107 217.04 227.017 216.704 227.017 216.308V209.594H225.721V208.622H227.017V205.454H228.241V208.622H230.401V209.594H228.241V215.966C228.265 216.302 228.385 216.554 228.601 216.722C228.829 216.89 229.087 216.974 229.375 216.974C229.711 216.974 230.017 216.92 230.293 216.812C230.569 216.692 230.737 216.608 230.797 216.56L231.121 217.55ZM240.535 218H239.311V212.762C239.311 211.706 239.125 210.914 238.753 210.386C238.381 209.846 237.847 209.576 237.151 209.576C236.695 209.576 236.239 209.696 235.783 209.936C235.339 210.164 234.943 210.482 234.595 210.89C234.259 211.286 234.019 211.742 233.875 212.258V218H232.651V204.86H233.875V210.746C234.247 210.05 234.763 209.498 235.423 209.09C236.095 208.67 236.809 208.46 237.565 208.46C238.105 208.46 238.561 208.556 238.933 208.748C239.317 208.94 239.623 209.222 239.851 209.594C240.091 209.954 240.265 210.38 240.373 210.872C240.481 211.352 240.535 211.898 240.535 212.51V218ZM45.428 239.18C44.66 239.18 43.946 239.054 43.286 238.802C42.626 238.55 42.056 238.166 41.576 237.65L42.08 236.786C42.608 237.278 43.136 237.638 43.664 237.866C44.204 238.082 44.774 238.19 45.374 238.19C46.106 238.19 46.7 238.046 47.156 237.758C47.612 237.458 47.84 237.032 47.84 236.48C47.84 236.108 47.726 235.826 47.498 235.634C47.282 235.43 46.964 235.268 46.544 235.148C46.136 235.016 45.644 234.878 45.068 234.734C44.42 234.554 43.874 234.368 43.43 234.176C42.998 233.972 42.668 233.72 42.44 233.42C42.224 233.108 42.116 232.706 42.116 232.214C42.116 231.602 42.266 231.098 42.566 230.702C42.878 230.294 43.298 229.988 43.826 229.784C44.366 229.568 44.966 229.46 45.626 229.46C46.346 229.46 46.982 229.574 47.534 229.802C48.086 230.03 48.536 230.348 48.884 230.756L48.29 231.584C47.954 231.2 47.552 230.918 47.084 230.738C46.628 230.546 46.118 230.45 45.554 230.45C45.17 230.45 44.804 230.504 44.456 230.612C44.108 230.708 43.82 230.876 43.592 231.116C43.376 231.344 43.268 231.662 43.268 232.07C43.268 232.406 43.352 232.67 43.52 232.862C43.688 233.042 43.94 233.198 44.276 233.33C44.612 233.45 45.026 233.582 45.518 233.726C46.226 233.918 46.844 234.116 47.372 234.32C47.9 234.512 48.308 234.764 48.596 235.076C48.884 235.388 49.028 235.826 49.028 236.39C49.028 237.266 48.698 237.95 48.038 238.442C47.378 238.934 46.508 239.18 45.428 239.18ZM55.5512 238.55C55.4552 238.586 55.3052 238.652 55.1012 238.748C54.8972 238.844 54.6512 238.928 54.3632 239C54.0752 239.072 53.7632 239.108 53.4272 239.108C53.0792 239.108 52.7492 239.042 52.4372 238.91C52.1372 238.778 51.8972 238.58 51.7172 238.316C51.5372 238.04 51.4472 237.704 51.4472 237.308V230.594H50.1512V229.622H51.4472V226.454H52.6712V229.622H54.8312V230.594H52.6712V236.966C52.6952 237.302 52.8152 237.554 53.0312 237.722C53.2592 237.89 53.5172 237.974 53.8052 237.974C54.1412 237.974 54.4472 237.92 54.7232 237.812C54.9992 237.692 55.1672 237.608 55.2272 237.56L55.5512 238.55ZM56.9905 235.13V229.622H58.2145V234.914C58.2145 235.982 58.3945 236.78 58.7545 237.308C59.1265 237.836 59.6725 238.1 60.3925 238.1C60.8725 238.1 61.3345 237.998 61.7785 237.794C62.2345 237.578 62.6365 237.278 62.9845 236.894C63.3325 236.498 63.5965 236.042 63.7765 235.526V229.622H65.0005V237.524C65.0005 237.692 65.0365 237.818 65.1085 237.902C65.1805 237.974 65.2885 238.016 65.4325 238.028V239C65.2885 239.012 65.1745 239.018 65.0905 239.018C65.0065 239.03 64.9285 239.036 64.8565 239.036C64.6165 239.012 64.4065 238.916 64.2265 238.748C64.0585 238.58 63.9685 238.376 63.9565 238.136L63.9205 236.876C63.5125 237.596 62.9545 238.16 62.2465 238.568C61.5505 238.976 60.7945 239.18 59.9785 239.18C58.9945 239.18 58.2505 238.838 57.7465 238.154C57.2425 237.47 56.9905 236.462 56.9905 235.13ZM75.652 239H74.428V233.762C74.428 232.658 74.266 231.854 73.942 231.35C73.618 230.834 73.108 230.576 72.412 230.576C71.932 230.576 71.458 230.696 70.99 230.936C70.522 231.164 70.108 231.482 69.748 231.89C69.4 232.286 69.148 232.742 68.992 233.258V239H67.768V229.622H68.884V231.746C69.136 231.29 69.466 230.894 69.874 230.558C70.282 230.21 70.744 229.94 71.26 229.748C71.776 229.556 72.31 229.46 72.862 229.46C73.378 229.46 73.816 229.556 74.176 229.748C74.536 229.94 74.824 230.216 75.04 230.576C75.256 230.924 75.412 231.35 75.508 231.854C75.604 232.346 75.652 232.898 75.652 233.51V239ZM86.1461 239H84.9221V233.762C84.9221 232.658 84.7601 231.854 84.4361 231.35C84.1121 230.834 83.6021 230.576 82.9061 230.576C82.4261 230.576 81.9521 230.696 81.4841 230.936C81.0161 231.164 80.6021 231.482 80.2421 231.89C79.8941 232.286 79.6421 232.742 79.4861 233.258V239H78.2621V229.622H79.3781V231.746C79.6301 231.29 79.9601 230.894 80.3681 230.558C80.7761 230.21 81.2381 229.94 81.7541 229.748C82.2701 229.556 82.8041 229.46 83.3561 229.46C83.8721 229.46 84.3101 229.556 84.6701 229.748C85.0301 229.94 85.3181 230.216 85.5341 230.576C85.7501 230.924 85.9061 231.35 86.0021 231.854C86.0981 232.346 86.1461 232.898 86.1461 233.51V239ZM88.7563 239V229.622H89.9803V239H88.7563ZM88.7563 227.66V225.86H89.9803V227.66H88.7563ZM100.56 239H99.3362V233.762C99.3362 232.658 99.1742 231.854 98.8502 231.35C98.5262 230.834 98.0162 230.576 97.3202 230.576C96.8402 230.576 96.3662 230.696 95.8982 230.936C95.4302 231.164 95.0162 231.482 94.6562 231.89C94.3082 232.286 94.0562 232.742 93.9002 233.258V239H92.6762V229.622H93.7922V231.746C94.0442 231.29 94.3742 230.894 94.7822 230.558C95.1902 230.21 95.6522 229.94 96.1682 229.748C96.6842 229.556 97.2182 229.46 97.7702 229.46C98.2862 229.46 98.7242 229.556 99.0842 229.748C99.4442 229.94 99.7322 230.216 99.9482 230.576C100.164 230.924 100.32 231.35 100.416 231.854C100.512 232.346 100.56 232.898 100.56 233.51V239ZM106.932 239.126C106.296 239.126 105.708 238.994 105.168 238.73C104.628 238.466 104.16 238.112 103.764 237.668C103.38 237.212 103.08 236.696 102.864 236.12C102.648 235.544 102.54 234.95 102.54 234.338C102.54 233.678 102.642 233.06 102.846 232.484C103.062 231.896 103.362 231.374 103.746 230.918C104.142 230.462 104.604 230.108 105.132 229.856C105.66 229.592 106.248 229.46 106.896 229.46C107.7 229.46 108.396 229.664 108.984 230.072C109.584 230.48 110.088 230.984 110.496 231.584V229.622H111.594V239.036C111.594 239.9 111.384 240.626 110.964 241.214C110.556 241.814 109.998 242.264 109.29 242.564C108.594 242.864 107.832 243.014 107.004 243.014C105.936 243.014 105.072 242.822 104.412 242.438C103.752 242.054 103.212 241.538 102.792 240.89L103.548 240.296C103.92 240.884 104.412 241.322 105.024 241.61C105.648 241.898 106.308 242.042 107.004 242.042C107.616 242.042 108.174 241.928 108.678 241.7C109.194 241.484 109.602 241.154 109.902 240.71C110.214 240.266 110.37 239.708 110.37 239.036V237.182C110.01 237.77 109.518 238.244 108.894 238.604C108.27 238.952 107.616 239.126 106.932 239.126ZM107.274 238.1C107.646 238.1 108 238.034 108.336 237.902C108.684 237.77 109.002 237.596 109.29 237.38C109.578 237.152 109.818 236.9 110.01 236.624C110.202 236.348 110.322 236.066 110.37 235.778V232.88C110.19 232.424 109.932 232.022 109.596 231.674C109.26 231.314 108.876 231.038 108.444 230.846C108.024 230.642 107.586 230.54 107.13 230.54C106.602 230.54 106.128 230.654 105.708 230.882C105.3 231.098 104.952 231.392 104.664 231.764C104.388 232.124 104.172 232.532 104.016 232.988C103.86 233.444 103.782 233.9 103.782 234.356C103.782 234.86 103.872 235.34 104.052 235.796C104.232 236.24 104.478 236.642 104.79 237.002C105.114 237.35 105.486 237.62 105.906 237.812C106.338 238.004 106.794 238.1 107.274 238.1ZM123.673 239.18C122.893 239.18 122.191 238.976 121.567 238.568C120.955 238.16 120.469 237.656 120.109 237.056V242.834H118.885V229.622H119.983V231.44C120.355 230.852 120.853 230.378 121.477 230.018C122.101 229.646 122.767 229.46 123.475 229.46C124.123 229.46 124.717 229.598 125.257 229.874C125.797 230.138 126.265 230.498 126.661 230.954C127.057 231.41 127.363 231.932 127.579 232.52C127.807 233.096 127.921 233.696 127.921 234.32C127.921 235.196 127.741 236.006 127.381 236.75C127.033 237.482 126.541 238.07 125.905 238.514C125.269 238.958 124.525 239.18 123.673 239.18ZM123.331 238.1C123.847 238.1 124.309 237.998 124.717 237.794C125.125 237.578 125.473 237.29 125.761 236.93C126.061 236.57 126.289 236.168 126.445 235.724C126.601 235.268 126.679 234.8 126.679 234.32C126.679 233.816 126.589 233.336 126.409 232.88C126.241 232.424 125.995 232.022 125.671 231.674C125.347 231.326 124.975 231.05 124.555 230.846C124.135 230.642 123.679 230.54 123.187 230.54C122.875 230.54 122.551 230.6 122.215 230.72C121.879 230.84 121.555 231.014 121.243 231.242C120.943 231.458 120.691 231.704 120.487 231.98C120.283 232.256 120.157 232.55 120.109 232.862V235.742C120.301 236.186 120.559 236.588 120.883 236.948C121.207 237.296 121.579 237.578 121.999 237.794C122.431 237.998 122.875 238.1 123.331 238.1ZM137.879 239H136.655V233.762C136.655 232.706 136.469 231.914 136.097 231.386C135.725 230.846 135.191 230.576 134.495 230.576C134.039 230.576 133.583 230.696 133.127 230.936C132.683 231.164 132.287 231.482 131.939 231.89C131.603 232.286 131.363 232.742 131.219 233.258V239H129.995V225.86H131.219V231.746C131.591 231.05 132.107 230.498 132.767 230.09C133.439 229.67 134.153 229.46 134.909 229.46C135.449 229.46 135.905 229.556 136.277 229.748C136.661 229.94 136.967 230.222 137.195 230.594C137.435 230.954 137.609 231.38 137.717 231.872C137.825 232.352 137.879 232.898 137.879 233.51V239ZM144.485 239.18C143.813 239.18 143.189 239.054 142.613 238.802C142.049 238.538 141.557 238.184 141.137 237.74C140.729 237.284 140.411 236.768 140.183 236.192C139.955 235.604 139.841 234.986 139.841 234.338C139.841 233.666 139.955 233.042 140.183 232.466C140.411 231.878 140.735 231.362 141.155 230.918C141.575 230.462 142.067 230.108 142.631 229.856C143.207 229.592 143.831 229.46 144.503 229.46C145.175 229.46 145.793 229.592 146.357 229.856C146.921 230.108 147.413 230.462 147.833 230.918C148.253 231.362 148.577 231.878 148.805 232.466C149.033 233.042 149.147 233.666 149.147 234.338C149.147 234.986 149.033 235.604 148.805 236.192C148.577 236.768 148.253 237.284 147.833 237.74C147.425 238.184 146.933 238.538 146.357 238.802C145.793 239.054 145.169 239.18 144.485 239.18ZM141.083 234.356C141.083 235.052 141.233 235.688 141.533 236.264C141.845 236.828 142.259 237.278 142.775 237.614C143.291 237.938 143.861 238.1 144.485 238.1C145.109 238.1 145.679 237.932 146.195 237.596C146.711 237.26 147.125 236.804 147.437 236.228C147.749 235.64 147.905 235.004 147.905 234.32C147.905 233.624 147.749 232.988 147.437 232.412C147.125 231.836 146.711 231.38 146.195 231.044C145.679 230.708 145.109 230.54 144.485 230.54C143.861 230.54 143.291 230.714 142.775 231.062C142.271 231.41 141.863 231.872 141.551 232.448C141.239 233.012 141.083 233.648 141.083 234.356ZM155.553 238.55C155.457 238.586 155.307 238.652 155.103 238.748C154.899 238.844 154.653 238.928 154.365 239C154.077 239.072 153.765 239.108 153.429 239.108C153.081 239.108 152.751 239.042 152.439 238.91C152.139 238.778 151.899 238.58 151.719 238.316C151.539 238.04 151.449 237.704 151.449 237.308V230.594H150.153V229.622H151.449V226.454H152.673V229.622H154.833V230.594H152.673V236.966C152.697 237.302 152.817 237.554 153.033 237.722C153.261 237.89 153.519 237.974 153.807 237.974C154.143 237.974 154.449 237.92 154.725 237.812C155.001 237.692 155.169 237.608 155.229 237.56L155.553 238.55ZM160.92 239.18C160.248 239.18 159.624 239.054 159.048 238.802C158.484 238.538 157.992 238.184 157.572 237.74C157.164 237.284 156.846 236.768 156.618 236.192C156.39 235.604 156.276 234.986 156.276 234.338C156.276 233.666 156.39 233.042 156.618 232.466C156.846 231.878 157.17 231.362 157.59 230.918C158.01 230.462 158.502 230.108 159.066 229.856C159.642 229.592 160.266 229.46 160.938 229.46C161.61 229.46 162.228 229.592 162.792 229.856C163.356 230.108 163.848 230.462 164.268 230.918C164.688 231.362 165.012 231.878 165.24 232.466C165.468 233.042 165.582 233.666 165.582 234.338C165.582 234.986 165.468 235.604 165.24 236.192C165.012 236.768 164.688 237.284 164.268 237.74C163.86 238.184 163.368 238.538 162.792 238.802C162.228 239.054 161.604 239.18 160.92 239.18ZM157.518 234.356C157.518 235.052 157.668 235.688 157.968 236.264C158.28 236.828 158.694 237.278 159.21 237.614C159.726 237.938 160.296 238.1 160.92 238.1C161.544 238.1 162.114 237.932 162.63 237.596C163.146 237.26 163.56 236.804 163.872 236.228C164.184 235.64 164.34 235.004 164.34 234.32C164.34 233.624 164.184 232.988 163.872 232.412C163.56 231.836 163.146 231.38 162.63 231.044C162.114 230.708 161.544 230.54 160.92 230.54C160.296 230.54 159.726 230.714 159.21 231.062C158.706 231.41 158.298 231.872 157.986 232.448C157.674 233.012 157.518 233.648 157.518 234.356ZM171.391 239.126C170.755 239.126 170.167 238.994 169.627 238.73C169.087 238.466 168.619 238.112 168.223 237.668C167.839 237.212 167.539 236.696 167.323 236.12C167.107 235.544 166.999 234.95 166.999 234.338C166.999 233.678 167.101 233.06 167.305 232.484C167.521 231.896 167.821 231.374 168.205 230.918C168.601 230.462 169.063 230.108 169.591 229.856C170.119 229.592 170.707 229.46 171.355 229.46C172.159 229.46 172.855 229.664 173.443 230.072C174.043 230.48 174.547 230.984 174.955 231.584V229.622H176.053V239.036C176.053 239.9 175.843 240.626 175.423 241.214C175.015 241.814 174.457 242.264 173.749 242.564C173.053 242.864 172.291 243.014 171.463 243.014C170.395 243.014 169.531 242.822 168.871 242.438C168.211 242.054 167.671 241.538 167.251 240.89L168.007 240.296C168.379 240.884 168.871 241.322 169.483 241.61C170.107 241.898 170.767 242.042 171.463 242.042C172.075 242.042 172.633 241.928 173.137 241.7C173.653 241.484 174.061 241.154 174.361 240.71C174.673 240.266 174.829 239.708 174.829 239.036V237.182C174.469 237.77 173.977 238.244 173.353 238.604C172.729 238.952 172.075 239.126 171.391 239.126ZM171.733 238.1C172.105 238.1 172.459 238.034 172.795 237.902C173.143 237.77 173.461 237.596 173.749 237.38C174.037 237.152 174.277 236.9 174.469 236.624C174.661 236.348 174.781 236.066 174.829 235.778V232.88C174.649 232.424 174.391 232.022 174.055 231.674C173.719 231.314 173.335 231.038 172.903 230.846C172.483 230.642 172.045 230.54 171.589 230.54C171.061 230.54 170.587 230.654 170.167 230.882C169.759 231.098 169.411 231.392 169.123 231.764C168.847 232.124 168.631 232.532 168.475 232.988C168.319 233.444 168.241 233.9 168.241 234.356C168.241 234.86 168.331 235.34 168.511 235.796C168.691 236.24 168.937 236.642 169.249 237.002C169.573 237.35 169.945 237.62 170.365 237.812C170.797 238.004 171.253 238.1 171.733 238.1ZM183.436 230.702C182.62 230.726 181.9 230.954 181.276 231.386C180.664 231.818 180.232 232.412 179.98 233.168V239H178.756V229.622H179.908V231.872C180.232 231.212 180.658 230.678 181.186 230.27C181.726 229.862 182.296 229.634 182.896 229.586C183.016 229.574 183.118 229.568 183.202 229.568C183.298 229.568 183.376 229.574 183.436 229.586V230.702ZM184.276 236.3C184.276 235.712 184.444 235.208 184.78 234.788C185.116 234.356 185.578 234.026 186.166 233.798C186.766 233.558 187.456 233.438 188.236 233.438C188.692 233.438 189.166 233.474 189.658 233.546C190.15 233.618 190.588 233.726 190.972 233.87V233.078C190.972 232.286 190.738 231.656 190.27 231.188C189.802 230.72 189.154 230.486 188.326 230.486C187.822 230.486 187.324 230.582 186.832 230.774C186.352 230.954 185.848 231.224 185.32 231.584L184.852 230.72C185.464 230.3 186.064 229.988 186.652 229.784C187.24 229.568 187.84 229.46 188.452 229.46C189.604 229.46 190.516 229.79 191.188 230.45C191.86 231.11 192.196 232.022 192.196 233.186V237.524C192.196 237.692 192.232 237.818 192.304 237.902C192.376 237.974 192.49 238.016 192.646 238.028V239C192.514 239.012 192.4 239.024 192.304 239.036C192.208 239.048 192.136 239.048 192.088 239.036C191.788 239.024 191.56 238.928 191.404 238.748C191.248 238.568 191.164 238.376 191.152 238.172L191.134 237.488C190.714 238.028 190.168 238.448 189.496 238.748C188.824 239.036 188.14 239.18 187.444 239.18C186.844 239.18 186.298 239.054 185.806 238.802C185.326 238.538 184.948 238.19 184.672 237.758C184.408 237.314 184.276 236.828 184.276 236.3ZM190.558 237.02C190.69 236.852 190.792 236.69 190.864 236.534C190.936 236.378 190.972 236.24 190.972 236.12V234.752C190.564 234.596 190.138 234.476 189.694 234.392C189.262 234.308 188.824 234.266 188.38 234.266C187.504 234.266 186.796 234.44 186.256 234.788C185.716 235.136 185.446 235.61 185.446 236.21C185.446 236.558 185.536 236.888 185.716 237.2C185.896 237.5 186.16 237.752 186.508 237.956C186.856 238.148 187.264 238.244 187.732 238.244C188.32 238.244 188.866 238.13 189.37 237.902C189.886 237.674 190.282 237.38 190.558 237.02ZM199.628 239.18C198.848 239.18 198.146 238.976 197.522 238.568C196.91 238.16 196.424 237.656 196.064 237.056V242.834H194.84V229.622H195.938V231.44C196.31 230.852 196.808 230.378 197.432 230.018C198.056 229.646 198.722 229.46 199.43 229.46C200.078 229.46 200.672 229.598 201.212 229.874C201.752 230.138 202.22 230.498 202.616 230.954C203.012 231.41 203.318 231.932 203.534 232.52C203.762 233.096 203.876 233.696 203.876 234.32C203.876 235.196 203.696 236.006 203.336 236.75C202.988 237.482 202.496 238.07 201.86 238.514C201.224 238.958 200.48 239.18 199.628 239.18ZM199.286 238.1C199.802 238.1 200.264 237.998 200.672 237.794C201.08 237.578 201.428 237.29 201.716 236.93C202.016 236.57 202.244 236.168 202.4 235.724C202.556 235.268 202.634 234.8 202.634 234.32C202.634 233.816 202.544 233.336 202.364 232.88C202.196 232.424 201.95 232.022 201.626 231.674C201.302 231.326 200.93 231.05 200.51 230.846C200.09 230.642 199.634 230.54 199.142 230.54C198.83 230.54 198.506 230.6 198.17 230.72C197.834 230.84 197.51 231.014 197.198 231.242C196.898 231.458 196.646 231.704 196.442 231.98C196.238 232.256 196.112 232.55 196.064 232.862V235.742C196.256 236.186 196.514 236.588 196.838 236.948C197.162 237.296 197.534 237.578 197.954 237.794C198.386 237.998 198.83 238.1 199.286 238.1ZM213.834 239H212.61V233.762C212.61 232.706 212.424 231.914 212.052 231.386C211.68 230.846 211.146 230.576 210.45 230.576C209.994 230.576 209.538 230.696 209.082 230.936C208.638 231.164 208.242 231.482 207.894 231.89C207.558 232.286 207.318 232.742 207.174 233.258V239H205.95V225.86H207.174V231.746C207.546 231.05 208.062 230.498 208.722 230.09C209.394 229.67 210.108 229.46 210.864 229.46C211.404 229.46 211.86 229.556 212.232 229.748C212.616 229.94 212.922 230.222 213.15 230.594C213.39 230.954 213.564 231.38 213.672 231.872C213.78 232.352 213.834 232.898 213.834 233.51V239ZM216.755 241.88C216.923 241.892 217.085 241.898 217.241 241.898C217.397 241.91 217.511 241.904 217.583 241.88C217.727 241.856 217.865 241.772 217.997 241.628C218.129 241.484 218.285 241.208 218.465 240.8C218.645 240.392 218.897 239.792 219.221 239L215.135 229.622H216.431L219.869 237.74L223.037 229.622H224.261L219.401 241.718C219.317 241.946 219.191 242.156 219.023 242.348C218.855 242.552 218.645 242.708 218.393 242.816C218.153 242.936 217.853 243.002 217.493 243.014C217.385 243.026 217.271 243.026 217.151 243.014C217.043 243.014 216.911 243.002 216.755 242.978V241.88ZM224.42 239V237.236H225.482V239H224.42Z" fill="white"/>
<path d="M140 76.125C138.345 76.125 136.707 76.4499 135.178 77.0813C133.649 77.7126 132.26 78.6379 131.09 79.8045C129.92 80.971 128.992 82.3559 128.359 83.88C127.726 85.4042 127.4 87.0378 127.4 88.6875C127.4 90.3372 127.726 91.9708 128.359 93.495C128.992 95.0191 129.92 96.404 131.09 97.5705C132.26 98.7371 133.649 99.6624 135.178 100.294C136.707 100.925 138.345 101.25 140 101.25C143.342 101.25 146.547 99.9265 148.91 97.5705C151.273 95.2146 152.6 92.0193 152.6 88.6875C152.6 85.3557 151.273 82.1604 148.91 79.8045C146.547 77.4485 143.342 76.125 140 76.125ZM173.6 63.5625H163.52C162.795 63.5295 162.095 63.2861 161.506 62.8621C160.917 62.4381 160.466 61.8519 160.206 61.1756L157.598 53.3827C157.337 52.7071 156.884 52.122 156.295 51.6989C155.706 51.2758 155.005 51.0329 154.28 51H125.72C124.334 51 122.839 52.072 122.406 53.3785L119.794 61.1756C119.534 61.8516 119.082 62.4375 118.494 62.8614C117.905 63.2853 117.205 63.529 116.48 63.5625H106.4C101.78 63.5625 98 67.3312 98 71.9375V109.625C98 114.231 101.78 118 106.4 118H173.6C178.22 118 182 114.231 182 109.625V71.9375C182 67.3312 178.22 63.5625 173.6 63.5625ZM140 109.625C134.43 109.625 129.089 107.419 125.151 103.493C121.212 99.566 119 94.2405 119 88.6875C119 83.1345 121.212 77.809 125.151 73.8825C129.089 69.9559 134.43 67.75 140 67.75C145.57 67.75 150.911 69.9559 154.849 73.8825C158.788 77.809 161 83.1345 161 88.6875C161 94.2405 158.788 99.566 154.849 103.493C150.911 107.419 145.57 109.625 140 109.625ZM171.5 76.9625C170.72 76.9625 169.972 76.6537 169.421 76.104C168.87 75.5542 168.56 74.8087 168.56 74.0312C168.56 73.2538 168.87 72.5083 169.421 71.9585C169.972 71.4088 170.72 71.1 171.5 71.1C172.28 71.1 173.028 71.4088 173.579 71.9585C174.13 72.5083 174.44 73.2538 174.44 74.0312C174.44 74.8087 174.13 75.5542 173.579 76.104C173.028 76.6537 172.28 76.9625 171.5 76.9625Z" fill="white"/>
<defs>
<filter id="filter0_d_514_259" x="0" y="0" width="288" height="342" filterUnits="userSpaceOnUse" color-interpolation-filters="sRGB">
<feFlood flood-opacity="0" result="BackgroundImageFix"/>
<feColorMatrix in="SourceAlpha" type="matrix" values="0 0 0 0 0 0 0 0 0 0 0 0 0 0 0 0 0 0 127 0" result="hardAlpha"/>
<feOffset dx="4" dy="6"/>
<feGaussianBlur stdDeviation="7"/>
<feComposite in2="hardAlpha" operator="out"/>
<feColorMatrix type="matrix" values="0 0 0 0 0.694118 0 0 0 0 0.690196 0 0 0 0 0.690196 0 0 0 0.2 0"/>
<feBlend mode="normal" in2="BackgroundImageFix" result="effect1_dropShadow_514_259"/>
<feBlend mode="normal" in="SourceGraphic" in2="effect1_dropShadow_514_259" result="shape"/>
</filter>
</defs>
</svg>
