<svg width="288" height="342" viewBox="0 0 288 342" fill="none" xmlns="http://www.w3.org/2000/svg">
<g filter="url(#filter0_d_514_261)">
<rect x="10" y="8" width="260" height="314" fill="#2D478D"/>
</g>
<path d="M42.92 188V170.96H50.072C50.84 170.96 51.544 171.12 52.184 171.44C52.824 171.76 53.384 172.184 53.864 172.712C54.344 173.24 54.712 173.832 54.968 174.488C55.224 175.144 55.352 175.816 55.352 176.504C55.352 177.448 55.136 178.352 54.704 179.216C54.288 180.064 53.688 180.752 52.904 181.28C52.136 181.808 51.24 182.072 50.216 182.072H45.608V188H42.92ZM45.608 179.696H50.048C50.56 179.696 51.008 179.56 51.392 179.288C51.776 179 52.072 178.616 52.28 178.136C52.504 177.656 52.616 177.112 52.616 176.504C52.616 175.88 52.488 175.328 52.232 174.848C51.976 174.368 51.64 174 51.224 173.744C50.824 173.472 50.384 173.336 49.904 173.336H45.608V179.696ZM68.7931 188H66.1531V180.968C66.1531 179.832 65.9451 178.984 65.5291 178.424C65.1131 177.864 64.5291 177.584 63.7771 177.584C63.3131 177.584 62.8331 177.712 62.3371 177.968C61.8411 178.224 61.4011 178.576 61.0171 179.024C60.6331 179.456 60.3531 179.96 60.1771 180.536V188H57.5371V170.48H60.1771V177.968C60.6571 177.12 61.3131 176.456 62.1451 175.976C62.9771 175.48 63.8731 175.232 64.8331 175.232C65.6171 175.232 66.2651 175.368 66.7771 175.64C67.2891 175.912 67.6891 176.288 67.9771 176.768C68.2811 177.232 68.4891 177.776 68.6011 178.4C68.7291 179.008 68.7931 179.656 68.7931 180.344V188ZM77.4974 188.24C76.5054 188.24 75.6174 188.072 74.8334 187.736C74.0494 187.384 73.3694 186.904 72.7934 186.296C72.2334 185.688 71.8014 185 71.4974 184.232C71.1934 183.448 71.0414 182.616 71.0414 181.736C71.0414 180.856 71.1934 180.024 71.4974 179.24C71.8014 178.456 72.2334 177.768 72.7934 177.176C73.3694 176.568 74.0494 176.096 74.8334 175.76C75.6334 175.408 76.5214 175.232 77.4974 175.232C78.4734 175.232 79.3534 175.408 80.1374 175.76C80.9374 176.096 81.6174 176.568 82.1774 177.176C82.7534 177.768 83.1934 178.456 83.4974 179.24C83.8014 180.024 83.9534 180.856 83.9534 181.736C83.9534 182.616 83.8014 183.448 83.4974 184.232C83.1934 185 82.7534 185.688 82.1774 186.296C81.6174 186.904 80.9374 187.384 80.1374 187.736C79.3534 188.072 78.4734 188.24 77.4974 188.24ZM73.7534 181.76C73.7534 182.56 73.9214 183.28 74.2574 183.92C74.5934 184.56 75.0414 185.064 75.6014 185.432C76.1614 185.8 76.7934 185.984 77.4974 185.984C78.1854 185.984 78.8094 185.8 79.3694 185.432C79.9454 185.048 80.4014 184.536 80.7374 183.896C81.0734 183.24 81.2414 182.52 81.2414 181.736C81.2414 180.936 81.0734 180.216 80.7374 179.576C80.4014 178.936 79.9454 178.432 79.3694 178.064C78.8094 177.68 78.1854 177.488 77.4974 177.488C76.7934 177.488 76.1614 177.68 75.6014 178.064C75.0414 178.448 74.5934 178.96 74.2574 179.6C73.9214 180.224 73.7534 180.944 73.7534 181.76ZM93.0914 187.352C92.8674 187.464 92.5874 187.584 92.2514 187.712C91.9154 187.84 91.5314 187.952 91.0994 188.048C90.6834 188.144 90.2514 188.192 89.8034 188.192C89.2594 188.192 88.7554 188.096 88.2914 187.904C87.8274 187.712 87.4514 187.408 87.1634 186.992C86.8914 186.56 86.7554 186.008 86.7554 185.336V177.488H85.0994V175.448H86.7554V171.32H89.3954V175.448H92.1314V177.488H89.3954V184.496C89.4274 184.928 89.5634 185.248 89.8034 185.456C90.0594 185.664 90.3714 185.768 90.7394 185.768C91.1074 185.768 91.4594 185.704 91.7954 185.576C92.1314 185.448 92.3794 185.344 92.5394 185.264L93.0914 187.352ZM100.396 188.24C99.4039 188.24 98.5159 188.072 97.7319 187.736C96.9479 187.384 96.2679 186.904 95.6919 186.296C95.1319 185.688 94.6999 185 94.3959 184.232C94.0919 183.448 93.9399 182.616 93.9399 181.736C93.9399 180.856 94.0919 180.024 94.3959 179.24C94.6999 178.456 95.1319 177.768 95.6919 177.176C96.2679 176.568 96.9479 176.096 97.7319 175.76C98.5319 175.408 99.4199 175.232 100.396 175.232C101.372 175.232 102.252 175.408 103.036 175.76C103.836 176.096 104.516 176.568 105.076 177.176C105.652 177.768 106.092 178.456 106.396 179.24C106.7 180.024 106.852 180.856 106.852 181.736C106.852 182.616 106.7 183.448 106.396 184.232C106.092 185 105.652 185.688 105.076 186.296C104.516 186.904 103.836 187.384 103.036 187.736C102.252 188.072 101.372 188.24 100.396 188.24ZM96.6519 181.76C96.6519 182.56 96.8199 183.28 97.1559 183.92C97.4919 184.56 97.9399 185.064 98.4999 185.432C99.0599 185.8 99.6919 185.984 100.396 185.984C101.084 185.984 101.708 185.8 102.268 185.432C102.844 185.048 103.3 184.536 103.636 183.896C103.972 183.24 104.14 182.52 104.14 181.736C104.14 180.936 103.972 180.216 103.636 179.576C103.3 178.936 102.844 178.432 102.268 178.064C101.708 177.68 101.084 177.488 100.396 177.488C99.6919 177.488 99.0599 177.68 98.4999 178.064C97.9399 178.448 97.4919 178.96 97.1559 179.6C96.8199 180.224 96.6519 180.944 96.6519 181.76ZM127.147 185.624V188H115.459V170.96H126.931V173.336H118.147V178.184H125.755V180.416H118.147V185.624H127.147ZM128.534 181.736C128.534 180.536 128.774 179.448 129.254 178.472C129.75 177.48 130.422 176.696 131.27 176.12C132.118 175.528 133.094 175.232 134.198 175.232C135.158 175.232 136.022 175.48 136.79 175.976C137.574 176.472 138.182 177.088 138.614 177.824V170.48H141.254V185.024C141.254 185.328 141.31 185.544 141.422 185.672C141.534 185.8 141.718 185.872 141.974 185.888V188C141.478 188.08 141.094 188.12 140.822 188.12C140.326 188.12 139.902 187.976 139.55 187.688C139.214 187.4 139.038 187.056 139.022 186.656L138.998 185.72C138.518 186.52 137.87 187.144 137.054 187.592C136.238 188.024 135.39 188.24 134.51 188.24C133.646 188.24 132.846 188.072 132.11 187.736C131.39 187.4 130.758 186.928 130.214 186.32C129.686 185.712 129.27 185.016 128.966 184.232C128.678 183.448 128.534 182.616 128.534 181.736ZM138.614 183.488V180.2C138.438 179.688 138.15 179.232 137.75 178.832C137.366 178.416 136.926 178.088 136.43 177.848C135.95 177.608 135.47 177.488 134.99 177.488C134.43 177.488 133.918 177.608 133.454 177.848C133.006 178.088 132.614 178.408 132.278 178.808C131.958 179.208 131.71 179.664 131.534 180.176C131.358 180.688 131.27 181.224 131.27 181.784C131.27 182.36 131.366 182.904 131.558 183.416C131.75 183.912 132.022 184.36 132.374 184.76C132.742 185.144 133.158 185.448 133.622 185.672C134.102 185.88 134.622 185.984 135.182 185.984C135.534 185.984 135.886 185.92 136.238 185.792C136.606 185.664 136.95 185.488 137.27 185.264C137.606 185.04 137.886 184.776 138.11 184.472C138.35 184.168 138.518 183.84 138.614 183.488ZM144.607 188V175.448H147.247V188H144.607ZM144.607 173.384V170.48H147.247V173.384H144.607ZM157.404 187.352C157.18 187.464 156.9 187.584 156.564 187.712C156.228 187.84 155.844 187.952 155.412 188.048C154.996 188.144 154.564 188.192 154.116 188.192C153.572 188.192 153.068 188.096 152.604 187.904C152.14 187.712 151.764 187.408 151.476 186.992C151.204 186.56 151.068 186.008 151.068 185.336V177.488H149.412V175.448H151.068V171.32H153.708V175.448H156.444V177.488H153.708V184.496C153.74 184.928 153.876 185.248 154.116 185.456C154.372 185.664 154.684 185.768 155.052 185.768C155.42 185.768 155.772 185.704 156.108 185.576C156.444 185.448 156.692 185.344 156.852 185.264L157.404 187.352ZM159.232 188V175.448H161.872V188H159.232ZM159.232 173.384V170.48H161.872V173.384H159.232ZM176.301 188H173.661V180.968C173.661 179.8 173.469 178.944 173.085 178.4C172.717 177.856 172.165 177.584 171.429 177.584C170.917 177.584 170.405 177.712 169.893 177.968C169.397 178.224 168.949 178.576 168.549 179.024C168.149 179.456 167.861 179.96 167.685 180.536V188H165.045V175.448H167.445V177.968C167.765 177.408 168.181 176.928 168.693 176.528C169.221 176.112 169.813 175.792 170.469 175.568C171.125 175.344 171.821 175.232 172.557 175.232C173.309 175.232 173.925 175.368 174.405 175.64C174.901 175.912 175.285 176.288 175.557 176.768C175.845 177.232 176.037 177.776 176.133 178.4C176.245 179.008 176.301 179.656 176.301 180.344V188ZM184.333 188.12C183.485 188.12 182.709 187.952 182.005 187.616C181.301 187.264 180.693 186.792 180.181 186.2C179.685 185.608 179.293 184.928 179.005 184.16C178.733 183.392 178.597 182.584 178.597 181.736C178.597 180.84 178.741 180 179.029 179.216C179.317 178.432 179.717 177.744 180.229 177.152C180.757 176.544 181.373 176.072 182.077 175.736C182.781 175.4 183.565 175.232 184.429 175.232C185.437 175.232 186.317 175.472 187.069 175.952C187.837 176.432 188.469 177.056 188.965 177.824V175.448H191.293V187.64C191.293 188.856 190.997 189.888 190.405 190.736C189.829 191.584 189.037 192.232 188.029 192.68C187.021 193.128 185.885 193.352 184.621 193.352C183.229 193.352 182.077 193.112 181.165 192.632C180.253 192.152 179.477 191.496 178.837 190.664L180.325 189.272C180.805 189.944 181.421 190.456 182.173 190.808C182.941 191.16 183.757 191.336 184.621 191.336C185.341 191.336 186.005 191.2 186.613 190.928C187.237 190.672 187.733 190.264 188.101 189.704C188.469 189.16 188.653 188.472 188.653 187.64V185.72C188.205 186.472 187.589 187.064 186.805 187.496C186.021 187.912 185.197 188.12 184.333 188.12ZM185.197 185.984C185.597 185.984 185.981 185.92 186.349 185.792C186.717 185.648 187.053 185.464 187.357 185.24C187.677 185 187.949 184.736 188.173 184.448C188.397 184.144 188.557 183.824 188.653 183.488V180.2C188.445 179.656 188.149 179.184 187.765 178.784C187.381 178.368 186.949 178.048 186.469 177.824C185.989 177.6 185.501 177.488 185.005 177.488C184.429 177.488 183.909 177.616 183.445 177.872C182.997 178.112 182.613 178.44 182.293 178.856C181.973 179.256 181.725 179.712 181.549 180.224C181.373 180.736 181.285 181.264 181.285 181.808C181.285 182.384 181.381 182.92 181.573 183.416C181.781 183.912 182.061 184.36 182.413 184.76C182.765 185.144 183.181 185.448 183.661 185.672C184.141 185.88 184.653 185.984 185.197 185.984Z" fill="white"/>
<path d="M51.188 216.884V218H42.602V205.22H51.026V206.336H43.862V210.944H50.108V212.006H43.862V216.884H51.188ZM61.1149 218H59.8909V212.762C59.8909 211.658 59.7289 210.854 59.4049 210.35C59.0809 209.834 58.5709 209.576 57.8749 209.576C57.3949 209.576 56.9209 209.696 56.4529 209.936C55.9849 210.164 55.5709 210.482 55.2109 210.89C54.8629 211.286 54.6109 211.742 54.4549 212.258V218H53.2309V208.622H54.3469V210.746C54.5989 210.29 54.9289 209.894 55.3369 209.558C55.7449 209.21 56.2069 208.94 56.7229 208.748C57.2389 208.556 57.7729 208.46 58.3249 208.46C58.8409 208.46 59.2789 208.556 59.6389 208.748C59.9989 208.94 60.2869 209.216 60.5029 209.576C60.7189 209.924 60.8749 210.35 60.9709 210.854C61.0669 211.346 61.1149 211.898 61.1149 212.51V218ZM71.609 218H70.385V212.762C70.385 211.706 70.199 210.914 69.827 210.386C69.455 209.846 68.921 209.576 68.225 209.576C67.769 209.576 67.313 209.696 66.857 209.936C66.413 210.164 66.017 210.482 65.669 210.89C65.333 211.286 65.093 211.742 64.949 212.258V218H63.725V204.86H64.949V210.746C65.321 210.05 65.837 209.498 66.497 209.09C67.169 208.67 67.883 208.46 68.639 208.46C69.179 208.46 69.635 208.556 70.007 208.748C70.391 208.94 70.697 209.222 70.925 209.594C71.165 209.954 71.339 210.38 71.447 210.872C71.555 211.352 71.609 211.898 71.609 212.51V218ZM73.4631 215.3C73.4631 214.712 73.6311 214.208 73.9671 213.788C74.3031 213.356 74.7651 213.026 75.3531 212.798C75.9531 212.558 76.6431 212.438 77.4231 212.438C77.8791 212.438 78.3531 212.474 78.8451 212.546C79.3371 212.618 79.7751 212.726 80.1591 212.87V212.078C80.1591 211.286 79.9251 210.656 79.4571 210.188C78.9891 209.72 78.3411 209.486 77.5131 209.486C77.0091 209.486 76.5111 209.582 76.0191 209.774C75.5391 209.954 75.0351 210.224 74.5071 210.584L74.0391 209.72C74.6511 209.3 75.2511 208.988 75.8391 208.784C76.4271 208.568 77.0271 208.46 77.6391 208.46C78.7911 208.46 79.7031 208.79 80.3751 209.45C81.0471 210.11 81.3831 211.022 81.3831 212.186V216.524C81.3831 216.692 81.4191 216.818 81.4911 216.902C81.5631 216.974 81.6771 217.016 81.8331 217.028V218C81.7011 218.012 81.5871 218.024 81.4911 218.036C81.3951 218.048 81.3231 218.048 81.2751 218.036C80.9751 218.024 80.7471 217.928 80.5911 217.748C80.4351 217.568 80.3511 217.376 80.3391 217.172L80.3211 216.488C79.9011 217.028 79.3551 217.448 78.6831 217.748C78.0111 218.036 77.3271 218.18 76.6311 218.18C76.0311 218.18 75.4851 218.054 74.9931 217.802C74.5131 217.538 74.1351 217.19 73.8591 216.758C73.5951 216.314 73.4631 215.828 73.4631 215.3ZM79.7451 216.02C79.8771 215.852 79.9791 215.69 80.0511 215.534C80.1231 215.378 80.1591 215.24 80.1591 215.12V213.752C79.7511 213.596 79.3251 213.476 78.8811 213.392C78.4491 213.308 78.0111 213.266 77.5671 213.266C76.6911 213.266 75.9831 213.44 75.4431 213.788C74.9031 214.136 74.6331 214.61 74.6331 215.21C74.6331 215.558 74.7231 215.888 74.9031 216.2C75.0831 216.5 75.3471 216.752 75.6951 216.956C76.0431 217.148 76.4511 217.244 76.9191 217.244C77.5071 217.244 78.0531 217.13 78.5571 216.902C79.0731 216.674 79.4691 216.38 79.7451 216.02ZM91.9117 218H90.6877V212.762C90.6877 211.658 90.5257 210.854 90.2017 210.35C89.8777 209.834 89.3677 209.576 88.6717 209.576C88.1917 209.576 87.7177 209.696 87.2497 209.936C86.7817 210.164 86.3677 210.482 86.0077 210.89C85.6597 211.286 85.4077 211.742 85.2517 212.258V218H84.0277V208.622H85.1437V210.746C85.3957 210.29 85.7257 209.894 86.1337 209.558C86.5417 209.21 87.0037 208.94 87.5197 208.748C88.0357 208.556 88.5697 208.46 89.1217 208.46C89.6377 208.46 90.0757 208.556 90.4357 208.748C90.7957 208.94 91.0837 209.216 91.2997 209.576C91.5157 209.924 91.6717 210.35 91.7677 210.854C91.8637 211.346 91.9117 211.898 91.9117 212.51V218ZM98.5899 218.18C97.9059 218.18 97.2759 218.054 96.6999 217.802C96.1359 217.538 95.6379 217.178 95.2059 216.722C94.7859 216.266 94.4559 215.744 94.2159 215.156C93.9879 214.568 93.8739 213.944 93.8739 213.284C93.8739 212.396 94.0719 211.586 94.4679 210.854C94.8639 210.122 95.4159 209.54 96.1239 209.108C96.8319 208.676 97.6479 208.46 98.5719 208.46C99.4479 208.46 100.222 208.664 100.894 209.072C101.566 209.468 102.064 210.008 102.388 210.692L101.2 211.07C100.936 210.59 100.564 210.218 100.084 209.954C99.6159 209.678 99.0939 209.54 98.5179 209.54C97.8939 209.54 97.3239 209.702 96.8079 210.026C96.2919 210.35 95.8779 210.794 95.5659 211.358C95.2659 211.922 95.1159 212.564 95.1159 213.284C95.1159 213.992 95.2719 214.634 95.5839 215.21C95.8959 215.786 96.3099 216.248 96.8259 216.596C97.3419 216.932 97.9119 217.1 98.5359 217.1C98.9439 217.1 99.3339 217.028 99.7059 216.884C100.09 216.74 100.42 216.548 100.696 216.308C100.984 216.056 101.176 215.786 101.272 215.498L102.478 215.858C102.31 216.302 102.028 216.704 101.632 217.064C101.248 217.412 100.792 217.688 100.264 217.892C99.7479 218.084 99.1899 218.18 98.5899 218.18ZM108.363 218.18C107.691 218.18 107.067 218.054 106.491 217.802C105.915 217.538 105.417 217.184 104.997 216.74C104.577 216.284 104.247 215.762 104.007 215.174C103.779 214.586 103.665 213.956 103.665 213.284C103.665 212.408 103.863 211.604 104.259 210.872C104.667 210.14 105.225 209.558 105.933 209.126C106.641 208.682 107.445 208.46 108.345 208.46C109.269 208.46 110.073 208.682 110.757 209.126C111.453 209.57 111.999 210.158 112.395 210.89C112.791 211.61 112.989 212.402 112.989 213.266C112.989 213.362 112.989 213.458 112.989 213.554C112.989 213.638 112.983 213.704 112.971 213.752H104.943C105.003 214.424 105.189 215.024 105.501 215.552C105.825 216.068 106.239 216.482 106.743 216.794C107.259 217.094 107.817 217.244 108.417 217.244C109.029 217.244 109.605 217.088 110.145 216.776C110.697 216.464 111.081 216.056 111.297 215.552L112.359 215.84C112.167 216.284 111.873 216.686 111.477 217.046C111.081 217.406 110.613 217.688 110.073 217.892C109.545 218.084 108.975 218.18 108.363 218.18ZM104.907 212.87H111.837C111.789 212.186 111.603 211.586 111.279 211.07C110.967 210.554 110.553 210.152 110.037 209.864C109.533 209.564 108.975 209.414 108.363 209.414C107.751 209.414 107.193 209.564 106.689 209.864C106.185 210.152 105.771 210.56 105.447 211.088C105.135 211.604 104.955 212.198 104.907 212.87ZM123.515 218.18C122.843 218.18 122.219 218.054 121.643 217.802C121.067 217.538 120.569 217.184 120.149 216.74C119.729 216.284 119.399 215.762 119.159 215.174C118.931 214.586 118.817 213.956 118.817 213.284C118.817 212.408 119.015 211.604 119.411 210.872C119.819 210.14 120.377 209.558 121.085 209.126C121.793 208.682 122.597 208.46 123.497 208.46C124.421 208.46 125.225 208.682 125.909 209.126C126.605 209.57 127.151 210.158 127.547 210.89C127.943 211.61 128.141 212.402 128.141 213.266C128.141 213.362 128.141 213.458 128.141 213.554C128.141 213.638 128.135 213.704 128.123 213.752H120.095C120.155 214.424 120.341 215.024 120.653 215.552C120.977 216.068 121.391 216.482 121.895 216.794C122.411 217.094 122.969 217.244 123.569 217.244C124.181 217.244 124.757 217.088 125.297 216.776C125.849 216.464 126.233 216.056 126.449 215.552L127.511 215.84C127.319 216.284 127.025 216.686 126.629 217.046C126.233 217.406 125.765 217.688 125.225 217.892C124.697 218.084 124.127 218.18 123.515 218.18ZM120.059 212.87H126.989C126.941 212.186 126.755 211.586 126.431 211.07C126.119 210.554 125.705 210.152 125.189 209.864C124.685 209.564 124.127 209.414 123.515 209.414C122.903 209.414 122.345 209.564 121.841 209.864C121.337 210.152 120.923 210.56 120.599 211.088C120.287 211.604 120.107 212.198 120.059 212.87ZM132.574 218L128.776 208.622H130.054L133.258 216.776L136.48 208.622H137.686L133.888 218H132.574ZM143.115 218.18C142.443 218.18 141.819 218.054 141.243 217.802C140.667 217.538 140.169 217.184 139.749 216.74C139.329 216.284 138.999 215.762 138.759 215.174C138.531 214.586 138.417 213.956 138.417 213.284C138.417 212.408 138.615 211.604 139.011 210.872C139.419 210.14 139.977 209.558 140.685 209.126C141.393 208.682 142.197 208.46 143.097 208.46C144.021 208.46 144.825 208.682 145.509 209.126C146.205 209.57 146.751 210.158 147.147 210.89C147.543 211.61 147.741 212.402 147.741 213.266C147.741 213.362 147.741 213.458 147.741 213.554C147.741 213.638 147.735 213.704 147.723 213.752H139.695C139.755 214.424 139.941 215.024 140.253 215.552C140.577 216.068 140.991 216.482 141.495 216.794C142.011 217.094 142.569 217.244 143.169 217.244C143.781 217.244 144.357 217.088 144.897 216.776C145.449 216.464 145.833 216.056 146.049 215.552L147.111 215.84C146.919 216.284 146.625 216.686 146.229 217.046C145.833 217.406 145.365 217.688 144.825 217.892C144.297 218.084 143.727 218.18 143.115 218.18ZM139.659 212.87H146.589C146.541 212.186 146.355 211.586 146.031 211.07C145.719 210.554 145.305 210.152 144.789 209.864C144.285 209.564 143.727 209.414 143.115 209.414C142.503 209.414 141.945 209.564 141.441 209.864C140.937 210.152 140.523 210.56 140.199 211.088C139.887 211.604 139.707 212.198 139.659 212.87ZM154.309 209.702C153.493 209.726 152.773 209.954 152.149 210.386C151.537 210.818 151.105 211.412 150.853 212.168V218H149.629V208.622H150.781V210.872C151.105 210.212 151.531 209.678 152.059 209.27C152.599 208.862 153.169 208.634 153.769 208.586C153.889 208.574 153.991 208.568 154.075 208.568C154.171 208.568 154.249 208.574 154.309 208.586V209.702ZM156.48 220.88C156.648 220.892 156.81 220.898 156.966 220.898C157.122 220.91 157.236 220.904 157.308 220.88C157.452 220.856 157.59 220.772 157.722 220.628C157.854 220.484 158.01 220.208 158.19 219.8C158.37 219.392 158.622 218.792 158.946 218L154.86 208.622H156.156L159.594 216.74L162.762 208.622H163.986L159.126 220.718C159.042 220.946 158.916 221.156 158.748 221.348C158.58 221.552 158.37 221.708 158.118 221.816C157.878 221.936 157.578 222.002 157.218 222.014C157.11 222.026 156.996 222.026 156.876 222.014C156.768 222.014 156.636 222.002 156.48 221.978V220.88ZM174.579 218.18C173.799 218.18 173.097 217.976 172.473 217.568C171.861 217.16 171.375 216.656 171.015 216.056V221.834H169.791V208.622H170.889V210.44C171.261 209.852 171.759 209.378 172.383 209.018C173.007 208.646 173.673 208.46 174.381 208.46C175.029 208.46 175.623 208.598 176.163 208.874C176.703 209.138 177.171 209.498 177.567 209.954C177.963 210.41 178.269 210.932 178.485 211.52C178.713 212.096 178.827 212.696 178.827 213.32C178.827 214.196 178.647 215.006 178.287 215.75C177.939 216.482 177.447 217.07 176.811 217.514C176.175 217.958 175.431 218.18 174.579 218.18ZM174.237 217.1C174.753 217.1 175.215 216.998 175.623 216.794C176.031 216.578 176.379 216.29 176.667 215.93C176.967 215.57 177.195 215.168 177.351 214.724C177.507 214.268 177.585 213.8 177.585 213.32C177.585 212.816 177.495 212.336 177.315 211.88C177.147 211.424 176.901 211.022 176.577 210.674C176.253 210.326 175.881 210.05 175.461 209.846C175.041 209.642 174.585 209.54 174.093 209.54C173.781 209.54 173.457 209.6 173.121 209.72C172.785 209.84 172.461 210.014 172.149 210.242C171.849 210.458 171.597 210.704 171.393 210.98C171.189 211.256 171.063 211.55 171.015 211.862V214.742C171.207 215.186 171.465 215.588 171.789 215.948C172.113 216.296 172.485 216.578 172.905 216.794C173.337 216.998 173.781 217.1 174.237 217.1ZM188.785 218H187.561V212.762C187.561 211.706 187.375 210.914 187.003 210.386C186.631 209.846 186.097 209.576 185.401 209.576C184.945 209.576 184.489 209.696 184.033 209.936C183.589 210.164 183.193 210.482 182.845 210.89C182.509 211.286 182.269 211.742 182.125 212.258V218H180.901V204.86H182.125V210.746C182.497 210.05 183.013 209.498 183.673 209.09C184.345 208.67 185.059 208.46 185.815 208.46C186.355 208.46 186.811 208.556 187.183 208.748C187.567 208.94 187.873 209.222 188.101 209.594C188.341 209.954 188.515 210.38 188.623 210.872C188.731 211.352 188.785 211.898 188.785 212.51V218ZM195.391 218.18C194.719 218.18 194.095 218.054 193.519 217.802C192.955 217.538 192.463 217.184 192.043 216.74C191.635 216.284 191.317 215.768 191.089 215.192C190.861 214.604 190.747 213.986 190.747 213.338C190.747 212.666 190.861 212.042 191.089 211.466C191.317 210.878 191.641 210.362 192.061 209.918C192.481 209.462 192.973 209.108 193.537 208.856C194.113 208.592 194.737 208.46 195.409 208.46C196.081 208.46 196.699 208.592 197.263 208.856C197.827 209.108 198.319 209.462 198.739 209.918C199.159 210.362 199.483 210.878 199.711 211.466C199.939 212.042 200.053 212.666 200.053 213.338C200.053 213.986 199.939 214.604 199.711 215.192C199.483 215.768 199.159 216.284 198.739 216.74C198.331 217.184 197.839 217.538 197.263 217.802C196.699 218.054 196.075 218.18 195.391 218.18ZM191.989 213.356C191.989 214.052 192.139 214.688 192.439 215.264C192.751 215.828 193.165 216.278 193.681 216.614C194.197 216.938 194.767 217.1 195.391 217.1C196.015 217.1 196.585 216.932 197.101 216.596C197.617 216.26 198.031 215.804 198.343 215.228C198.655 214.64 198.811 214.004 198.811 213.32C198.811 212.624 198.655 211.988 198.343 211.412C198.031 210.836 197.617 210.38 197.101 210.044C196.585 209.708 196.015 209.54 195.391 209.54C194.767 209.54 194.197 209.714 193.681 210.062C193.177 210.41 192.769 210.872 192.457 211.448C192.145 212.012 191.989 212.648 191.989 213.356ZM206.459 217.55C206.363 217.586 206.213 217.652 206.009 217.748C205.805 217.844 205.559 217.928 205.271 218C204.983 218.072 204.671 218.108 204.335 218.108C203.987 218.108 203.657 218.042 203.345 217.91C203.045 217.778 202.805 217.58 202.625 217.316C202.445 217.04 202.355 216.704 202.355 216.308V209.594H201.059V208.622H202.355V205.454H203.579V208.622H205.739V209.594H203.579V215.966C203.603 216.302 203.723 216.554 203.939 216.722C204.167 216.89 204.425 216.974 204.713 216.974C205.049 216.974 205.355 216.92 205.631 216.812C205.907 216.692 206.075 216.608 206.135 216.56L206.459 217.55ZM211.826 218.18C211.154 218.18 210.53 218.054 209.954 217.802C209.39 217.538 208.898 217.184 208.478 216.74C208.07 216.284 207.752 215.768 207.524 215.192C207.296 214.604 207.182 213.986 207.182 213.338C207.182 212.666 207.296 212.042 207.524 211.466C207.752 210.878 208.076 210.362 208.496 209.918C208.916 209.462 209.408 209.108 209.972 208.856C210.548 208.592 211.172 208.46 211.844 208.46C212.516 208.46 213.134 208.592 213.698 208.856C214.262 209.108 214.754 209.462 215.174 209.918C215.594 210.362 215.918 210.878 216.146 211.466C216.374 212.042 216.488 212.666 216.488 213.338C216.488 213.986 216.374 214.604 216.146 215.192C215.918 215.768 215.594 216.284 215.174 216.74C214.766 217.184 214.274 217.538 213.698 217.802C213.134 218.054 212.51 218.18 211.826 218.18ZM208.424 213.356C208.424 214.052 208.574 214.688 208.874 215.264C209.186 215.828 209.6 216.278 210.116 216.614C210.632 216.938 211.202 217.1 211.826 217.1C212.45 217.1 213.02 216.932 213.536 216.596C214.052 216.26 214.466 215.804 214.778 215.228C215.09 214.64 215.246 214.004 215.246 213.32C215.246 212.624 215.09 211.988 214.778 211.412C214.466 210.836 214.052 210.38 213.536 210.044C213.02 209.708 212.45 209.54 211.826 209.54C211.202 209.54 210.632 209.714 210.116 210.062C209.612 210.41 209.204 210.872 208.892 211.448C208.58 212.012 208.424 212.648 208.424 213.356ZM227.623 217.55C227.527 217.586 227.377 217.652 227.173 217.748C226.969 217.844 226.723 217.928 226.435 218C226.147 218.072 225.835 218.108 225.499 218.108C225.151 218.108 224.821 218.042 224.509 217.91C224.209 217.778 223.969 217.58 223.789 217.316C223.609 217.04 223.519 216.704 223.519 216.308V209.594H222.223V208.622H223.519V205.454H224.743V208.622H226.903V209.594H224.743V215.966C224.767 216.302 224.887 216.554 225.103 216.722C225.331 216.89 225.589 216.974 225.877 216.974C226.213 216.974 226.519 216.92 226.795 216.812C227.071 216.692 227.239 216.608 227.299 216.56L227.623 217.55ZM232.991 218.18C232.319 218.18 231.695 218.054 231.119 217.802C230.555 217.538 230.063 217.184 229.643 216.74C229.235 216.284 228.917 215.768 228.689 215.192C228.461 214.604 228.347 213.986 228.347 213.338C228.347 212.666 228.461 212.042 228.689 211.466C228.917 210.878 229.241 210.362 229.661 209.918C230.081 209.462 230.573 209.108 231.137 208.856C231.713 208.592 232.337 208.46 233.009 208.46C233.681 208.46 234.299 208.592 234.863 208.856C235.427 209.108 235.919 209.462 236.339 209.918C236.759 210.362 237.083 210.878 237.311 211.466C237.539 212.042 237.653 212.666 237.653 213.338C237.653 213.986 237.539 214.604 237.311 215.192C237.083 215.768 236.759 216.284 236.339 216.74C235.931 217.184 235.439 217.538 234.863 217.802C234.299 218.054 233.675 218.18 232.991 218.18ZM229.589 213.356C229.589 214.052 229.739 214.688 230.039 215.264C230.351 215.828 230.765 216.278 231.281 216.614C231.797 216.938 232.367 217.1 232.991 217.1C233.615 217.1 234.185 216.932 234.701 216.596C235.217 216.26 235.631 215.804 235.943 215.228C236.255 214.64 236.411 214.004 236.411 213.32C236.411 212.624 236.255 211.988 235.943 211.412C235.631 210.836 235.217 210.38 234.701 210.044C234.185 209.708 233.615 209.54 232.991 209.54C232.367 209.54 231.797 209.714 231.281 210.062C230.777 210.41 230.369 210.872 230.057 211.448C229.745 212.012 229.589 212.648 229.589 213.356ZM56.3 239H55.076V233.762C55.076 232.67 54.902 231.866 54.554 231.35C54.206 230.834 53.69 230.576 53.006 230.576C52.298 230.576 51.662 230.828 51.098 231.332C50.546 231.836 50.156 232.484 49.928 233.276V239H48.704V233.762C48.704 232.658 48.536 231.854 48.2 231.35C47.864 230.834 47.348 230.576 46.652 230.576C45.956 230.576 45.326 230.822 44.762 231.314C44.198 231.806 43.802 232.454 43.574 233.258V239H42.35V229.622H43.466V231.746C43.862 231.014 44.366 230.45 44.978 230.054C45.602 229.658 46.292 229.46 47.048 229.46C47.828 229.46 48.458 229.682 48.938 230.126C49.418 230.57 49.712 231.152 49.82 231.872C50.252 231.08 50.768 230.48 51.368 230.072C51.98 229.664 52.67 229.46 53.438 229.46C53.966 229.46 54.41 229.556 54.77 229.748C55.142 229.94 55.436 230.216 55.652 230.576C55.88 230.924 56.042 231.35 56.138 231.854C56.246 232.346 56.3 232.898 56.3 233.51V239ZM58.135 236.3C58.135 235.712 58.303 235.208 58.639 234.788C58.975 234.356 59.437 234.026 60.025 233.798C60.625 233.558 61.315 233.438 62.095 233.438C62.551 233.438 63.025 233.474 63.517 233.546C64.009 233.618 64.447 233.726 64.831 233.87V233.078C64.831 232.286 64.597 231.656 64.129 231.188C63.661 230.72 63.013 230.486 62.185 230.486C61.681 230.486 61.183 230.582 60.691 230.774C60.211 230.954 59.707 231.224 59.179 231.584L58.711 230.72C59.323 230.3 59.923 229.988 60.511 229.784C61.099 229.568 61.699 229.46 62.311 229.46C63.463 229.46 64.375 229.79 65.047 230.45C65.719 231.11 66.055 232.022 66.055 233.186V237.524C66.055 237.692 66.091 237.818 66.163 237.902C66.235 237.974 66.349 238.016 66.505 238.028V239C66.373 239.012 66.259 239.024 66.163 239.036C66.067 239.048 65.995 239.048 65.947 239.036C65.647 239.024 65.419 238.928 65.263 238.748C65.107 238.568 65.023 238.376 65.011 238.172L64.993 237.488C64.573 238.028 64.027 238.448 63.355 238.748C62.683 239.036 61.999 239.18 61.303 239.18C60.703 239.18 60.157 239.054 59.665 238.802C59.185 238.538 58.807 238.19 58.531 237.758C58.267 237.314 58.135 236.828 58.135 236.3ZM64.417 237.02C64.549 236.852 64.651 236.69 64.723 236.534C64.795 236.378 64.831 236.24 64.831 236.12V234.752C64.423 234.596 63.997 234.476 63.553 234.392C63.121 234.308 62.683 234.266 62.239 234.266C61.363 234.266 60.655 234.44 60.115 234.788C59.575 235.136 59.305 235.61 59.305 236.21C59.305 236.558 59.395 236.888 59.575 237.2C59.755 237.5 60.019 237.752 60.367 237.956C60.715 238.148 61.123 238.244 61.591 238.244C62.179 238.244 62.725 238.13 63.229 237.902C63.745 237.674 64.141 237.38 64.417 237.02ZM75.3956 239L71.9216 234.194L69.9236 236.066V239H68.6996V225.86H69.9236V234.752L75.2336 229.64H76.5836L72.7496 233.474L76.7276 239H75.3956ZM81.8023 239.18C81.1303 239.18 80.5063 239.054 79.9303 238.802C79.3543 238.538 78.8563 238.184 78.4363 237.74C78.0163 237.284 77.6863 236.762 77.4463 236.174C77.2183 235.586 77.1043 234.956 77.1043 234.284C77.1043 233.408 77.3023 232.604 77.6983 231.872C78.1063 231.14 78.6643 230.558 79.3723 230.126C80.0803 229.682 80.8843 229.46 81.7843 229.46C82.7083 229.46 83.5123 229.682 84.1963 230.126C84.8923 230.57 85.4383 231.158 85.8343 231.89C86.2303 232.61 86.4283 233.402 86.4283 234.266C86.4283 234.362 86.4283 234.458 86.4283 234.554C86.4283 234.638 86.4223 234.704 86.4103 234.752H78.3823C78.4423 235.424 78.6283 236.024 78.9403 236.552C79.2643 237.068 79.6783 237.482 80.1823 237.794C80.6983 238.094 81.2563 238.244 81.8563 238.244C82.4683 238.244 83.0443 238.088 83.5843 237.776C84.1363 237.464 84.5203 237.056 84.7363 236.552L85.7983 236.84C85.6063 237.284 85.3123 237.686 84.9163 238.046C84.5203 238.406 84.0523 238.688 83.5123 238.892C82.9843 239.084 82.4143 239.18 81.8023 239.18ZM78.3463 233.87H85.2763C85.2283 233.186 85.0423 232.586 84.7183 232.07C84.4063 231.554 83.9923 231.152 83.4763 230.864C82.9723 230.564 82.4143 230.414 81.8023 230.414C81.1903 230.414 80.6323 230.564 80.1283 230.864C79.6243 231.152 79.2103 231.56 78.8863 232.088C78.5743 232.604 78.3943 233.198 78.3463 233.87ZM92.9047 239V229.622H94.1287V239H92.9047ZM92.9047 227.66V225.86H94.1287V227.66H92.9047ZM101.325 238.55C101.229 238.586 101.079 238.652 100.875 238.748C100.671 238.844 100.425 238.928 100.137 239C99.8486 239.072 99.5366 239.108 99.2006 239.108C98.8526 239.108 98.5226 239.042 98.2106 238.91C97.9106 238.778 97.6706 238.58 97.4906 238.316C97.3106 238.04 97.2206 237.704 97.2206 237.308V230.594H95.9246V229.622H97.2206V226.454H98.4446V229.622H100.605V230.594H98.4446V236.966C98.4686 237.302 98.5886 237.554 98.8046 237.722C99.0326 237.89 99.2906 237.974 99.5786 237.974C99.9146 237.974 100.221 237.92 100.497 237.812C100.773 237.692 100.941 237.608 101.001 237.56L101.325 238.55ZM110.52 239.18C109.752 239.18 109.038 239.054 108.378 238.802C107.718 238.55 107.148 238.166 106.668 237.65L107.172 236.786C107.7 237.278 108.228 237.638 108.756 237.866C109.296 238.082 109.866 238.19 110.466 238.19C111.198 238.19 111.792 238.046 112.248 237.758C112.704 237.458 112.932 237.032 112.932 236.48C112.932 236.108 112.818 235.826 112.59 235.634C112.374 235.43 112.056 235.268 111.636 235.148C111.228 235.016 110.736 234.878 110.16 234.734C109.512 234.554 108.966 234.368 108.522 234.176C108.09 233.972 107.76 233.72 107.532 233.42C107.316 233.108 107.208 232.706 107.208 232.214C107.208 231.602 107.358 231.098 107.658 230.702C107.97 230.294 108.39 229.988 108.918 229.784C109.458 229.568 110.058 229.46 110.718 229.46C111.438 229.46 112.074 229.574 112.626 229.802C113.178 230.03 113.628 230.348 113.976 230.756L113.382 231.584C113.046 231.2 112.644 230.918 112.176 230.738C111.72 230.546 111.21 230.45 110.646 230.45C110.262 230.45 109.896 230.504 109.548 230.612C109.2 230.708 108.912 230.876 108.684 231.116C108.468 231.344 108.36 231.662 108.36 232.07C108.36 232.406 108.444 232.67 108.612 232.862C108.78 233.042 109.032 233.198 109.368 233.33C109.704 233.45 110.118 233.582 110.61 233.726C111.318 233.918 111.936 234.116 112.464 234.32C112.992 234.512 113.4 234.764 113.688 235.076C113.976 235.388 114.12 235.826 114.12 236.39C114.12 237.266 113.79 237.95 113.13 238.442C112.47 238.934 111.6 239.18 110.52 239.18ZM124.027 239H122.803V233.762C122.803 232.706 122.617 231.914 122.245 231.386C121.873 230.846 121.339 230.576 120.643 230.576C120.187 230.576 119.731 230.696 119.275 230.936C118.831 231.164 118.435 231.482 118.087 231.89C117.751 232.286 117.511 232.742 117.367 233.258V239H116.143V225.86H117.367V231.746C117.739 231.05 118.255 230.498 118.915 230.09C119.587 229.67 120.301 229.46 121.057 229.46C121.597 229.46 122.053 229.556 122.425 229.748C122.809 229.94 123.115 230.222 123.343 230.594C123.583 230.954 123.757 231.38 123.865 231.872C123.973 232.352 124.027 232.898 124.027 233.51V239ZM126.637 239V229.622H127.861V239H126.637ZM126.637 227.66V225.86H127.861V227.66H126.637ZM138.441 239H137.217V233.762C137.217 232.658 137.055 231.854 136.731 231.35C136.407 230.834 135.897 230.576 135.201 230.576C134.721 230.576 134.247 230.696 133.779 230.936C133.311 231.164 132.897 231.482 132.537 231.89C132.189 232.286 131.937 232.742 131.781 233.258V239H130.557V229.622H131.673V231.746C131.925 231.29 132.255 230.894 132.663 230.558C133.071 230.21 133.533 229.94 134.049 229.748C134.565 229.556 135.099 229.46 135.651 229.46C136.167 229.46 136.605 229.556 136.965 229.748C137.325 229.94 137.613 230.216 137.829 230.576C138.045 230.924 138.201 231.35 138.297 231.854C138.393 232.346 138.441 232.898 138.441 233.51V239ZM145.101 239.18C144.429 239.18 143.805 239.054 143.229 238.802C142.653 238.538 142.155 238.184 141.735 237.74C141.315 237.284 140.985 236.762 140.745 236.174C140.517 235.586 140.403 234.956 140.403 234.284C140.403 233.408 140.601 232.604 140.997 231.872C141.405 231.14 141.963 230.558 142.671 230.126C143.379 229.682 144.183 229.46 145.083 229.46C146.007 229.46 146.811 229.682 147.495 230.126C148.191 230.57 148.737 231.158 149.133 231.89C149.529 232.61 149.727 233.402 149.727 234.266C149.727 234.362 149.727 234.458 149.727 234.554C149.727 234.638 149.721 234.704 149.709 234.752H141.681C141.741 235.424 141.927 236.024 142.239 236.552C142.563 237.068 142.977 237.482 143.481 237.794C143.997 238.094 144.555 238.244 145.155 238.244C145.767 238.244 146.343 238.088 146.883 237.776C147.435 237.464 147.819 237.056 148.035 236.552L149.097 236.84C148.905 237.284 148.611 237.686 148.215 238.046C147.819 238.406 147.351 238.688 146.811 238.892C146.283 239.084 145.713 239.18 145.101 239.18ZM141.645 233.87H148.575C148.527 233.186 148.341 232.586 148.017 232.07C147.705 231.554 147.291 231.152 146.775 230.864C146.271 230.564 145.713 230.414 145.101 230.414C144.489 230.414 143.931 230.564 143.427 230.864C142.923 231.152 142.509 231.56 142.185 232.088C141.873 232.604 141.693 233.198 141.645 233.87ZM164.088 239H162.864V233.762C162.864 232.658 162.702 231.854 162.378 231.35C162.054 230.834 161.544 230.576 160.848 230.576C160.368 230.576 159.894 230.696 159.426 230.936C158.958 231.164 158.544 231.482 158.184 231.89C157.836 232.286 157.584 232.742 157.428 233.258V239H156.204V229.622H157.32V231.746C157.572 231.29 157.902 230.894 158.31 230.558C158.718 230.21 159.18 229.94 159.696 229.748C160.212 229.556 160.746 229.46 161.298 229.46C161.814 229.46 162.252 229.556 162.612 229.748C162.972 229.94 163.26 230.216 163.476 230.576C163.692 230.924 163.848 231.35 163.944 231.854C164.04 232.346 164.088 232.898 164.088 233.51V239ZM165.942 236.3C165.942 235.712 166.11 235.208 166.446 234.788C166.782 234.356 167.244 234.026 167.832 233.798C168.432 233.558 169.122 233.438 169.902 233.438C170.358 233.438 170.832 233.474 171.324 233.546C171.816 233.618 172.254 233.726 172.638 233.87V233.078C172.638 232.286 172.404 231.656 171.936 231.188C171.468 230.72 170.82 230.486 169.992 230.486C169.488 230.486 168.99 230.582 168.498 230.774C168.018 230.954 167.514 231.224 166.986 231.584L166.518 230.72C167.13 230.3 167.73 229.988 168.318 229.784C168.906 229.568 169.506 229.46 170.118 229.46C171.27 229.46 172.182 229.79 172.854 230.45C173.526 231.11 173.862 232.022 173.862 233.186V237.524C173.862 237.692 173.898 237.818 173.97 237.902C174.042 237.974 174.156 238.016 174.312 238.028V239C174.18 239.012 174.066 239.024 173.97 239.036C173.874 239.048 173.802 239.048 173.754 239.036C173.454 239.024 173.226 238.928 173.07 238.748C172.914 238.568 172.83 238.376 172.818 238.172L172.8 237.488C172.38 238.028 171.834 238.448 171.162 238.748C170.49 239.036 169.806 239.18 169.11 239.18C168.51 239.18 167.964 239.054 167.472 238.802C166.992 238.538 166.614 238.19 166.338 237.758C166.074 237.314 165.942 236.828 165.942 236.3ZM172.224 237.02C172.356 236.852 172.458 236.69 172.53 236.534C172.602 236.378 172.638 236.24 172.638 236.12V234.752C172.23 234.596 171.804 234.476 171.36 234.392C170.928 234.308 170.49 234.266 170.046 234.266C169.17 234.266 168.462 234.44 167.922 234.788C167.382 235.136 167.112 235.61 167.112 236.21C167.112 236.558 167.202 236.888 167.382 237.2C167.562 237.5 167.826 237.752 168.174 237.956C168.522 238.148 168.93 238.244 169.398 238.244C169.986 238.244 170.532 238.13 171.036 237.902C171.552 237.674 171.948 237.38 172.224 237.02ZM180.936 238.55C180.84 238.586 180.69 238.652 180.486 238.748C180.282 238.844 180.036 238.928 179.748 239C179.46 239.072 179.148 239.108 178.812 239.108C178.464 239.108 178.134 239.042 177.822 238.91C177.522 238.778 177.282 238.58 177.102 238.316C176.922 238.04 176.832 237.704 176.832 237.308V230.594H175.536V229.622H176.832V226.454H178.056V229.622H180.216V230.594H178.056V236.966C178.08 237.302 178.2 237.554 178.416 237.722C178.644 237.89 178.902 237.974 179.19 237.974C179.526 237.974 179.832 237.92 180.108 237.812C180.384 237.692 180.552 237.608 180.612 237.56L180.936 238.55ZM182.375 235.13V229.622H183.599V234.914C183.599 235.982 183.779 236.78 184.139 237.308C184.511 237.836 185.057 238.1 185.777 238.1C186.257 238.1 186.719 237.998 187.163 237.794C187.619 237.578 188.021 237.278 188.369 236.894C188.717 236.498 188.981 236.042 189.161 235.526V229.622H190.385V237.524C190.385 237.692 190.421 237.818 190.493 237.902C190.565 237.974 190.673 238.016 190.817 238.028V239C190.673 239.012 190.559 239.018 190.475 239.018C190.391 239.03 190.313 239.036 190.241 239.036C190.001 239.012 189.791 238.916 189.611 238.748C189.443 238.58 189.353 238.376 189.341 238.136L189.305 236.876C188.897 237.596 188.339 238.16 187.631 238.568C186.935 238.976 186.179 239.18 185.363 239.18C184.379 239.18 183.635 238.838 183.131 238.154C182.627 237.47 182.375 236.462 182.375 235.13ZM197.833 230.702C197.017 230.726 196.297 230.954 195.673 231.386C195.061 231.818 194.629 232.412 194.377 233.168V239H193.153V229.622H194.305V231.872C194.629 231.212 195.055 230.678 195.583 230.27C196.123 229.862 196.693 229.634 197.293 229.586C197.413 229.574 197.515 229.568 197.599 229.568C197.695 229.568 197.773 229.574 197.833 229.586V230.702ZM198.672 236.3C198.672 235.712 198.84 235.208 199.176 234.788C199.512 234.356 199.974 234.026 200.562 233.798C201.162 233.558 201.852 233.438 202.632 233.438C203.088 233.438 203.562 233.474 204.054 233.546C204.546 233.618 204.984 233.726 205.368 233.87V233.078C205.368 232.286 205.134 231.656 204.666 231.188C204.198 230.72 203.55 230.486 202.722 230.486C202.218 230.486 201.72 230.582 201.228 230.774C200.748 230.954 200.244 231.224 199.716 231.584L199.248 230.72C199.86 230.3 200.46 229.988 201.048 229.784C201.636 229.568 202.236 229.46 202.848 229.46C204 229.46 204.912 229.79 205.584 230.45C206.256 231.11 206.592 232.022 206.592 233.186V237.524C206.592 237.692 206.628 237.818 206.7 237.902C206.772 237.974 206.886 238.016 207.042 238.028V239C206.91 239.012 206.796 239.024 206.7 239.036C206.604 239.048 206.532 239.048 206.484 239.036C206.184 239.024 205.956 238.928 205.8 238.748C205.644 238.568 205.56 238.376 205.548 238.172L205.53 237.488C205.11 238.028 204.564 238.448 203.892 238.748C203.22 239.036 202.536 239.18 201.84 239.18C201.24 239.18 200.694 239.054 200.202 238.802C199.722 238.538 199.344 238.19 199.068 237.758C198.804 237.314 198.672 236.828 198.672 236.3ZM204.954 237.02C205.086 236.852 205.188 236.69 205.26 236.534C205.332 236.378 205.368 236.24 205.368 236.12V234.752C204.96 234.596 204.534 234.476 204.09 234.392C203.658 234.308 203.22 234.266 202.776 234.266C201.9 234.266 201.192 234.44 200.652 234.788C200.112 235.136 199.842 235.61 199.842 236.21C199.842 236.558 199.932 236.888 200.112 237.2C200.292 237.5 200.556 237.752 200.904 237.956C201.252 238.148 201.66 238.244 202.128 238.244C202.716 238.244 203.262 238.13 203.766 237.902C204.282 237.674 204.678 237.38 204.954 237.02ZM209.291 225.86H210.515V236.876C210.515 237.344 210.599 237.65 210.767 237.794C210.935 237.938 211.139 238.01 211.379 238.01C211.595 238.01 211.811 237.986 212.027 237.938C212.243 237.89 212.429 237.842 212.585 237.794L212.801 238.784C212.573 238.88 212.291 238.958 211.955 239.018C211.631 239.078 211.349 239.108 211.109 239.108C210.557 239.108 210.113 238.946 209.777 238.622C209.453 238.298 209.291 237.854 209.291 237.29V225.86ZM214.195 225.86H215.419V236.876C215.419 237.344 215.503 237.65 215.671 237.794C215.839 237.938 216.043 238.01 216.283 238.01C216.499 238.01 216.715 237.986 216.931 237.938C217.147 237.89 217.333 237.842 217.489 237.794L217.705 238.784C217.477 238.88 217.195 238.958 216.859 239.018C216.535 239.078 216.253 239.108 216.013 239.108C215.461 239.108 215.017 238.946 214.681 238.622C214.357 238.298 214.195 237.854 214.195 237.29V225.86ZM219.286 241.88C219.454 241.892 219.616 241.898 219.772 241.898C219.928 241.91 220.042 241.904 220.114 241.88C220.258 241.856 220.396 241.772 220.528 241.628C220.66 241.484 220.816 241.208 220.996 240.8C221.176 240.392 221.428 239.792 221.752 239L217.666 229.622H218.962L222.4 237.74L225.568 229.622H226.792L221.932 241.718C221.848 241.946 221.722 242.156 221.554 242.348C221.386 242.552 221.176 242.708 220.924 242.816C220.684 242.936 220.384 243.002 220.024 243.014C219.916 243.026 219.802 243.026 219.682 243.014C219.574 243.014 219.442 243.002 219.286 242.978V241.88ZM226.951 239V237.236H228.013V239H226.951Z" fill="white"/>
<path d="M140 76.125C138.345 76.125 136.707 76.4499 135.178 77.0813C133.649 77.7126 132.26 78.6379 131.09 79.8045C129.92 80.971 128.992 82.3559 128.359 83.88C127.726 85.4042 127.4 87.0378 127.4 88.6875C127.4 90.3372 127.726 91.9708 128.359 93.495C128.992 95.0191 129.92 96.404 131.09 97.5705C132.26 98.7371 133.649 99.6624 135.178 100.294C136.707 100.925 138.345 101.25 140 101.25C143.342 101.25 146.547 99.9265 148.91 97.5705C151.273 95.2146 152.6 92.0193 152.6 88.6875C152.6 85.3557 151.273 82.1604 148.91 79.8045C146.547 77.4485 143.342 76.125 140 76.125ZM173.6 63.5625H163.52C162.795 63.5295 162.095 63.2861 161.506 62.8621C160.917 62.4381 160.466 61.8519 160.206 61.1756L157.598 53.3827C157.337 52.7071 156.884 52.122 156.295 51.6989C155.706 51.2758 155.005 51.0329 154.28 51H125.72C124.334 51 122.839 52.072 122.406 53.3785L119.794 61.1756C119.534 61.8516 119.082 62.4375 118.494 62.8614C117.905 63.2853 117.205 63.529 116.48 63.5625H106.4C101.78 63.5625 98 67.3312 98 71.9375V109.625C98 114.231 101.78 118 106.4 118H173.6C178.22 118 182 114.231 182 109.625V71.9375C182 67.3312 178.22 63.5625 173.6 63.5625ZM140 109.625C134.43 109.625 129.089 107.419 125.151 103.493C121.212 99.566 119 94.2405 119 88.6875C119 83.1345 121.212 77.809 125.151 73.8825C129.089 69.9559 134.43 67.75 140 67.75C145.57 67.75 150.911 69.9559 154.849 73.8825C158.788 77.809 161 83.1345 161 88.6875C161 94.2405 158.788 99.566 154.849 103.493C150.911 107.419 145.57 109.625 140 109.625ZM171.5 76.9625C170.72 76.9625 169.972 76.6537 169.421 76.104C168.87 75.5542 168.56 74.8087 168.56 74.0312C168.56 73.2538 168.87 72.5083 169.421 71.9585C169.972 71.4088 170.72 71.1 171.5 71.1C172.28 71.1 173.028 71.4088 173.579 71.9585C174.13 72.5083 174.44 73.2538 174.44 74.0312C174.44 74.8087 174.13 75.5542 173.579 76.104C173.028 76.6537 172.28 76.9625 171.5 76.9625Z" fill="white"/>
<defs>
<filter id="filter0_d_514_261" x="0" y="0" width="288" height="342" filterUnits="userSpaceOnUse" color-interpolation-filters="sRGB">
<feFlood flood-opacity="0" result="BackgroundImageFix"/>
<feColorMatrix in="SourceAlpha" type="matrix" values="0 0 0 0 0 0 0 0 0 0 0 0 0 0 0 0 0 0 127 0" result="hardAlpha"/>
<feOffset dx="4" dy="6"/>
<feGaussianBlur stdDeviation="7"/>
<feComposite in2="hardAlpha" operator="out"/>
<feColorMatrix type="matrix" values="0 0 0 0 0.694118 0 0 0 0 0.690196 0 0 0 0 0.690196 0 0 0 0.2 0"/>
<feBlend mode="normal" in2="BackgroundImageFix" result="effect1_dropShadow_514_261"/>
<feBlend mode="normal" in="SourceGraphic" in2="effect1_dropShadow_514_261" result="shape"/>
</filter>
</defs>
</svg>
