<svg width="288" height="342" viewBox="0 0 288 342" fill="none" xmlns="http://www.w3.org/2000/svg">
<g filter="url(#filter0_d_514_260)">
<rect x="10" y="8" width="260" height="314" fill="#1A2E62"/>
</g>
<path d="M44 170.96L49.136 184.712L54.248 170.96H57.104L50.408 188H47.864L41.144 170.96H44ZM58.8496 188V175.448H61.4896V188H58.8496ZM58.8496 173.384V170.48H61.4896V173.384H58.8496ZM63.8701 181.736C63.8701 180.536 64.1101 179.448 64.5901 178.472C65.0861 177.48 65.7581 176.696 66.6061 176.12C67.4541 175.528 68.4301 175.232 69.5341 175.232C70.4941 175.232 71.3581 175.48 72.1261 175.976C72.9101 176.472 73.5181 177.088 73.9501 177.824V170.48H76.5901V185.024C76.5901 185.328 76.6461 185.544 76.7581 185.672C76.8701 185.8 77.0541 185.872 77.3101 185.888V188C76.8141 188.08 76.4301 188.12 76.1581 188.12C75.6621 188.12 75.2381 187.976 74.8861 187.688C74.5501 187.4 74.3741 187.056 74.3581 186.656L74.3341 185.72C73.8541 186.52 73.2061 187.144 72.3901 187.592C71.5741 188.024 70.7261 188.24 69.8461 188.24C68.9821 188.24 68.1821 188.072 67.4461 187.736C66.7261 187.4 66.0941 186.928 65.5501 186.32C65.0221 185.712 64.6061 185.016 64.3021 184.232C64.0141 183.448 63.8701 182.616 63.8701 181.736ZM73.9501 183.488V180.2C73.7741 179.688 73.4861 179.232 73.0861 178.832C72.7021 178.416 72.2621 178.088 71.7661 177.848C71.2861 177.608 70.8061 177.488 70.3261 177.488C69.7661 177.488 69.2541 177.608 68.7901 177.848C68.3421 178.088 67.9501 178.408 67.6141 178.808C67.2941 179.208 67.0461 179.664 66.8701 180.176C66.6941 180.688 66.6061 181.224 66.6061 181.784C66.6061 182.36 66.7021 182.904 66.8941 183.416C67.0861 183.912 67.3581 184.36 67.7101 184.76C68.0781 185.144 68.4941 185.448 68.9581 185.672C69.4381 185.88 69.9581 185.984 70.5181 185.984C70.8701 185.984 71.2221 185.92 71.5741 185.792C71.9421 185.664 72.2861 185.488 72.6061 185.264C72.9421 185.04 73.2221 184.776 73.4461 184.472C73.6861 184.168 73.8541 183.84 73.9501 183.488ZM85.6314 188.24C84.6554 188.24 83.7674 188.072 82.9674 187.736C82.1834 187.384 81.5034 186.912 80.9274 186.32C80.3514 185.712 79.9034 185.024 79.5834 184.256C79.2794 183.472 79.1274 182.64 79.1274 181.76C79.1274 180.576 79.3994 179.496 79.9434 178.52C80.4874 177.528 81.2474 176.736 82.2234 176.144C83.1994 175.536 84.3434 175.232 85.6554 175.232C86.9674 175.232 88.0954 175.536 89.0394 176.144C89.9994 176.736 90.7434 177.52 91.2714 178.496C91.7994 179.472 92.0634 180.52 92.0634 181.64C92.0634 181.832 92.0554 182.016 92.0394 182.192C92.0234 182.352 92.0074 182.488 91.9914 182.6H81.9354C81.9834 183.336 82.1834 183.984 82.5354 184.544C82.9034 185.088 83.3674 185.52 83.9274 185.84C84.4874 186.144 85.0874 186.296 85.7274 186.296C86.4314 186.296 87.0954 186.12 87.7194 185.768C88.3594 185.416 88.7914 184.952 89.0154 184.376L91.2714 185.024C90.9994 185.632 90.5834 186.184 90.0234 186.68C89.4794 187.16 88.8314 187.544 88.0794 187.832C87.3274 188.104 86.5114 188.24 85.6314 188.24ZM81.8634 180.848H89.4474C89.3994 180.128 89.1914 179.496 88.8234 178.952C88.4714 178.392 88.0154 177.96 87.4554 177.656C86.9114 177.336 86.3034 177.176 85.6314 177.176C84.9754 177.176 84.3674 177.336 83.8074 177.656C83.2634 177.96 82.8154 178.392 82.4634 178.952C82.1114 179.496 81.9114 180.128 81.8634 180.848ZM99.8568 188.24C98.8648 188.24 97.9768 188.072 97.1928 187.736C96.4088 187.384 95.7288 186.904 95.1528 186.296C94.5928 185.688 94.1608 185 93.8568 184.232C93.5528 183.448 93.4008 182.616 93.4008 181.736C93.4008 180.856 93.5528 180.024 93.8568 179.24C94.1608 178.456 94.5928 177.768 95.1528 177.176C95.7288 176.568 96.4088 176.096 97.1928 175.76C97.9928 175.408 98.8808 175.232 99.8568 175.232C100.833 175.232 101.713 175.408 102.497 175.76C103.297 176.096 103.977 176.568 104.537 177.176C105.113 177.768 105.553 178.456 105.857 179.24C106.161 180.024 106.313 180.856 106.313 181.736C106.313 182.616 106.161 183.448 105.857 184.232C105.553 185 105.113 185.688 104.537 186.296C103.977 186.904 103.297 187.384 102.497 187.736C101.713 188.072 100.833 188.24 99.8568 188.24ZM96.1128 181.76C96.1128 182.56 96.2808 183.28 96.6168 183.92C96.9528 184.56 97.4008 185.064 97.9608 185.432C98.5208 185.8 99.1528 185.984 99.8568 185.984C100.545 185.984 101.169 185.8 101.729 185.432C102.305 185.048 102.761 184.536 103.097 183.896C103.433 183.24 103.601 182.52 103.601 181.736C103.601 180.936 103.433 180.216 103.097 179.576C102.761 178.936 102.305 178.432 101.729 178.064C101.169 177.68 100.545 177.488 99.8568 177.488C99.1528 177.488 98.5208 177.68 97.9608 178.064C97.4008 178.448 96.9528 178.96 96.6168 179.6C96.2808 180.224 96.1128 180.944 96.1128 181.76ZM126.608 185.624V188H114.92V170.96H126.392V173.336H117.608V178.184H125.216V180.416H117.608V185.624H126.608ZM127.995 181.736C127.995 180.536 128.235 179.448 128.715 178.472C129.211 177.48 129.883 176.696 130.731 176.12C131.579 175.528 132.555 175.232 133.659 175.232C134.619 175.232 135.483 175.48 136.251 175.976C137.035 176.472 137.643 177.088 138.075 177.824V170.48H140.715V185.024C140.715 185.328 140.771 185.544 140.883 185.672C140.995 185.8 141.179 185.872 141.435 185.888V188C140.939 188.08 140.555 188.12 140.283 188.12C139.787 188.12 139.363 187.976 139.011 187.688C138.675 187.4 138.499 187.056 138.483 186.656L138.459 185.72C137.979 186.52 137.331 187.144 136.515 187.592C135.699 188.024 134.851 188.24 133.971 188.24C133.107 188.24 132.307 188.072 131.571 187.736C130.851 187.4 130.219 186.928 129.675 186.32C129.147 185.712 128.731 185.016 128.427 184.232C128.139 183.448 127.995 182.616 127.995 181.736ZM138.075 183.488V180.2C137.899 179.688 137.611 179.232 137.211 178.832C136.827 178.416 136.387 178.088 135.891 177.848C135.411 177.608 134.931 177.488 134.451 177.488C133.891 177.488 133.379 177.608 132.915 177.848C132.467 178.088 132.075 178.408 131.739 178.808C131.419 179.208 131.171 179.664 130.995 180.176C130.819 180.688 130.731 181.224 130.731 181.784C130.731 182.36 130.827 182.904 131.019 183.416C131.211 183.912 131.483 184.36 131.835 184.76C132.203 185.144 132.619 185.448 133.083 185.672C133.563 185.88 134.083 185.984 134.643 185.984C134.995 185.984 135.347 185.92 135.699 185.792C136.067 185.664 136.411 185.488 136.731 185.264C137.067 185.04 137.347 184.776 137.571 184.472C137.811 184.168 137.979 183.84 138.075 183.488ZM144.068 188V175.448H146.708V188H144.068ZM144.068 173.384V170.48H146.708V173.384H144.068ZM156.865 187.352C156.641 187.464 156.361 187.584 156.025 187.712C155.689 187.84 155.305 187.952 154.873 188.048C154.457 188.144 154.025 188.192 153.577 188.192C153.033 188.192 152.529 188.096 152.065 187.904C151.601 187.712 151.225 187.408 150.937 186.992C150.665 186.56 150.529 186.008 150.529 185.336V177.488H148.873V175.448H150.529V171.32H153.169V175.448H155.905V177.488H153.169V184.496C153.201 184.928 153.337 185.248 153.577 185.456C153.833 185.664 154.145 185.768 154.513 185.768C154.881 185.768 155.233 185.704 155.569 185.576C155.905 185.448 156.153 185.344 156.313 185.264L156.865 187.352ZM158.693 188V175.448H161.333V188H158.693ZM158.693 173.384V170.48H161.333V173.384H158.693ZM175.762 188H173.122V180.968C173.122 179.8 172.93 178.944 172.546 178.4C172.178 177.856 171.626 177.584 170.89 177.584C170.378 177.584 169.866 177.712 169.354 177.968C168.858 178.224 168.41 178.576 168.01 179.024C167.61 179.456 167.322 179.96 167.146 180.536V188H164.506V175.448H166.906V177.968C167.226 177.408 167.642 176.928 168.154 176.528C168.682 176.112 169.274 175.792 169.93 175.568C170.586 175.344 171.282 175.232 172.018 175.232C172.77 175.232 173.386 175.368 173.866 175.64C174.362 175.912 174.746 176.288 175.018 176.768C175.306 177.232 175.498 177.776 175.594 178.4C175.706 179.008 175.762 179.656 175.762 180.344V188ZM183.794 188.12C182.946 188.12 182.17 187.952 181.466 187.616C180.762 187.264 180.154 186.792 179.642 186.2C179.146 185.608 178.754 184.928 178.466 184.16C178.194 183.392 178.058 182.584 178.058 181.736C178.058 180.84 178.202 180 178.49 179.216C178.778 178.432 179.178 177.744 179.69 177.152C180.218 176.544 180.834 176.072 181.538 175.736C182.242 175.4 183.026 175.232 183.89 175.232C184.898 175.232 185.778 175.472 186.53 175.952C187.298 176.432 187.93 177.056 188.426 177.824V175.448H190.754V187.64C190.754 188.856 190.458 189.888 189.866 190.736C189.29 191.584 188.498 192.232 187.49 192.68C186.482 193.128 185.346 193.352 184.082 193.352C182.69 193.352 181.538 193.112 180.626 192.632C179.714 192.152 178.938 191.496 178.298 190.664L179.786 189.272C180.266 189.944 180.882 190.456 181.634 190.808C182.402 191.16 183.218 191.336 184.082 191.336C184.802 191.336 185.466 191.2 186.074 190.928C186.698 190.672 187.194 190.264 187.562 189.704C187.93 189.16 188.114 188.472 188.114 187.64V185.72C187.666 186.472 187.05 187.064 186.266 187.496C185.482 187.912 184.658 188.12 183.794 188.12ZM184.658 185.984C185.058 185.984 185.442 185.92 185.81 185.792C186.178 185.648 186.514 185.464 186.818 185.24C187.138 185 187.41 184.736 187.634 184.448C187.858 184.144 188.018 183.824 188.114 183.488V180.2C187.906 179.656 187.61 179.184 187.226 178.784C186.842 178.368 186.41 178.048 185.93 177.824C185.45 177.6 184.962 177.488 184.466 177.488C183.89 177.488 183.37 177.616 182.906 177.872C182.458 178.112 182.074 178.44 181.754 178.856C181.434 179.256 181.186 179.712 181.01 180.224C180.834 180.736 180.746 181.264 180.746 181.808C180.746 182.384 180.842 182.92 181.034 183.416C181.242 183.912 181.522 184.36 181.874 184.76C182.226 185.144 182.642 185.448 183.122 185.672C183.602 185.88 184.114 185.984 184.658 185.984Z" fill="white"/>
<path d="M51.674 206.336H47.12V218H45.86V206.336H41.306V205.22H51.674V206.336ZM51.7346 214.13V208.622H52.9586V213.914C52.9586 214.982 53.1386 215.78 53.4986 216.308C53.8706 216.836 54.4166 217.1 55.1366 217.1C55.6166 217.1 56.0786 216.998 56.5226 216.794C56.9786 216.578 57.3806 216.278 57.7286 215.894C58.0766 215.498 58.3406 215.042 58.5206 214.526V208.622H59.7446V216.524C59.7446 216.692 59.7806 216.818 59.8526 216.902C59.9246 216.974 60.0326 217.016 60.1766 217.028V218C60.0326 218.012 59.9186 218.018 59.8346 218.018C59.7506 218.03 59.6726 218.036 59.6006 218.036C59.3606 218.012 59.1506 217.916 58.9706 217.748C58.8026 217.58 58.7126 217.376 58.7006 217.136L58.6646 215.876C58.2566 216.596 57.6986 217.16 56.9906 217.568C56.2946 217.976 55.5386 218.18 54.7226 218.18C53.7386 218.18 52.9946 217.838 52.4906 217.154C51.9866 216.47 51.7346 215.462 51.7346 214.13ZM67.1921 209.702C66.3761 209.726 65.6561 209.954 65.0321 210.386C64.4201 210.818 63.9881 211.412 63.7361 212.168V218H62.5121V208.622H63.6641V210.872C63.9881 210.212 64.4141 209.678 64.9421 209.27C65.4821 208.862 66.0521 208.634 66.6521 208.586C66.7721 208.574 66.8741 208.568 66.9581 208.568C67.0541 208.568 67.1321 208.574 67.1921 208.586V209.702ZM76.7067 218H75.4827V212.762C75.4827 211.658 75.3207 210.854 74.9967 210.35C74.6727 209.834 74.1627 209.576 73.4667 209.576C72.9867 209.576 72.5127 209.696 72.0447 209.936C71.5767 210.164 71.1627 210.482 70.8027 210.89C70.4547 211.286 70.2027 211.742 70.0467 212.258V218H68.8227V208.622H69.9387V210.746C70.1907 210.29 70.5207 209.894 70.9287 209.558C71.3367 209.21 71.7987 208.94 72.3147 208.748C72.8307 208.556 73.3647 208.46 73.9167 208.46C74.4327 208.46 74.8707 208.556 75.2307 208.748C75.5907 208.94 75.8787 209.216 76.0947 209.576C76.3107 209.924 76.4667 210.35 76.5627 210.854C76.6587 211.346 76.7067 211.898 76.7067 212.51V218ZM83.9525 220.88C84.1205 220.892 84.2825 220.898 84.4385 220.898C84.5945 220.91 84.7085 220.904 84.7805 220.88C84.9245 220.856 85.0625 220.772 85.1945 220.628C85.3265 220.484 85.4825 220.208 85.6625 219.8C85.8425 219.392 86.0945 218.792 86.4185 218L82.3325 208.622H83.6285L87.0665 216.74L90.2345 208.622H91.4585L86.5985 220.718C86.5145 220.946 86.3885 221.156 86.2205 221.348C86.0525 221.552 85.8425 221.708 85.5905 221.816C85.3505 221.936 85.0505 222.002 84.6905 222.014C84.5825 222.026 84.4685 222.026 84.3485 222.014C84.2405 222.014 84.1085 222.002 83.9525 221.978V220.88ZM96.8304 218.18C96.1584 218.18 95.5344 218.054 94.9584 217.802C94.3944 217.538 93.9024 217.184 93.4824 216.74C93.0744 216.284 92.7564 215.768 92.5284 215.192C92.3004 214.604 92.1864 213.986 92.1864 213.338C92.1864 212.666 92.3004 212.042 92.5284 211.466C92.7564 210.878 93.0804 210.362 93.5004 209.918C93.9204 209.462 94.4124 209.108 94.9764 208.856C95.5524 208.592 96.1764 208.46 96.8484 208.46C97.5204 208.46 98.1384 208.592 98.7024 208.856C99.2664 209.108 99.7584 209.462 100.178 209.918C100.598 210.362 100.922 210.878 101.15 211.466C101.378 212.042 101.492 212.666 101.492 213.338C101.492 213.986 101.378 214.604 101.15 215.192C100.922 215.768 100.598 216.284 100.178 216.74C99.7704 217.184 99.2784 217.538 98.7024 217.802C98.1384 218.054 97.5144 218.18 96.8304 218.18ZM93.4284 213.356C93.4284 214.052 93.5784 214.688 93.8784 215.264C94.1904 215.828 94.6044 216.278 95.1204 216.614C95.6364 216.938 96.2064 217.1 96.8304 217.1C97.4544 217.1 98.0244 216.932 98.5404 216.596C99.0564 216.26 99.4704 215.804 99.7824 215.228C100.094 214.64 100.25 214.004 100.25 213.32C100.25 212.624 100.094 211.988 99.7824 211.412C99.4704 210.836 99.0564 210.38 98.5404 210.044C98.0244 209.708 97.4544 209.54 96.8304 209.54C96.2064 209.54 95.6364 209.714 95.1204 210.062C94.6164 210.41 94.2084 210.872 93.8964 211.448C93.5844 212.012 93.4284 212.648 93.4284 213.356ZM103.449 214.13V208.622H104.673V213.914C104.673 214.982 104.853 215.78 105.213 216.308C105.585 216.836 106.131 217.1 106.851 217.1C107.331 217.1 107.793 216.998 108.237 216.794C108.693 216.578 109.095 216.278 109.443 215.894C109.791 215.498 110.055 215.042 110.235 214.526V208.622H111.459V216.524C111.459 216.692 111.495 216.818 111.567 216.902C111.639 216.974 111.747 217.016 111.891 217.028V218C111.747 218.012 111.633 218.018 111.549 218.018C111.465 218.03 111.387 218.036 111.315 218.036C111.075 218.012 110.865 217.916 110.685 217.748C110.517 217.58 110.427 217.376 110.415 217.136L110.379 215.876C109.971 216.596 109.413 217.16 108.705 217.568C108.009 217.976 107.253 218.18 106.437 218.18C105.453 218.18 104.709 217.838 104.205 217.154C103.701 216.47 103.449 215.462 103.449 214.13ZM118.907 209.702C118.091 209.726 117.371 209.954 116.747 210.386C116.135 210.818 115.703 211.412 115.451 212.168V218H114.227V208.622H115.379V210.872C115.703 210.212 116.129 209.678 116.657 209.27C117.197 208.862 117.767 208.634 118.367 208.586C118.487 208.574 118.589 208.568 118.673 208.568C118.769 208.568 118.847 208.574 118.907 208.586V209.702ZM125.154 218V209.594H123.858V208.622H125.154V208.37C125.154 207.602 125.262 206.942 125.478 206.39C125.706 205.838 126.024 205.418 126.432 205.13C126.852 204.83 127.344 204.68 127.908 204.68C128.28 204.68 128.64 204.734 128.988 204.842C129.336 204.95 129.636 205.094 129.888 205.274L129.51 206.156C129.354 206.024 129.15 205.922 128.898 205.85C128.646 205.778 128.394 205.742 128.142 205.742C127.578 205.742 127.14 205.964 126.828 206.408C126.528 206.852 126.378 207.494 126.378 208.334V208.622H128.97V209.594H126.378V218H125.154ZM134.342 218.18C133.67 218.18 133.046 218.054 132.47 217.802C131.906 217.538 131.414 217.184 130.994 216.74C130.586 216.284 130.268 215.768 130.04 215.192C129.812 214.604 129.698 213.986 129.698 213.338C129.698 212.666 129.812 212.042 130.04 211.466C130.268 210.878 130.592 210.362 131.012 209.918C131.432 209.462 131.924 209.108 132.488 208.856C133.064 208.592 133.688 208.46 134.36 208.46C135.032 208.46 135.65 208.592 136.214 208.856C136.778 209.108 137.27 209.462 137.69 209.918C138.11 210.362 138.434 210.878 138.662 211.466C138.89 212.042 139.004 212.666 139.004 213.338C139.004 213.986 138.89 214.604 138.662 215.192C138.434 215.768 138.11 216.284 137.69 216.74C137.282 217.184 136.79 217.538 136.214 217.802C135.65 218.054 135.026 218.18 134.342 218.18ZM130.94 213.356C130.94 214.052 131.09 214.688 131.39 215.264C131.702 215.828 132.116 216.278 132.632 216.614C133.148 216.938 133.718 217.1 134.342 217.1C134.966 217.1 135.536 216.932 136.052 216.596C136.568 216.26 136.982 215.804 137.294 215.228C137.606 214.64 137.762 214.004 137.762 213.32C137.762 212.624 137.606 211.988 137.294 211.412C136.982 210.836 136.568 210.38 136.052 210.044C135.536 209.708 134.966 209.54 134.342 209.54C133.718 209.54 133.148 209.714 132.632 210.062C132.128 210.41 131.72 210.872 131.408 211.448C131.096 212.012 130.94 212.648 130.94 213.356ZM145.047 218.18C144.375 218.18 143.751 218.054 143.175 217.802C142.611 217.538 142.119 217.184 141.699 216.74C141.291 216.284 140.973 215.768 140.745 215.192C140.517 214.604 140.403 213.986 140.403 213.338C140.403 212.666 140.517 212.042 140.745 211.466C140.973 210.878 141.297 210.362 141.717 209.918C142.137 209.462 142.629 209.108 143.193 208.856C143.769 208.592 144.393 208.46 145.065 208.46C145.737 208.46 146.355 208.592 146.919 208.856C147.483 209.108 147.975 209.462 148.395 209.918C148.815 210.362 149.139 210.878 149.367 211.466C149.595 212.042 149.709 212.666 149.709 213.338C149.709 213.986 149.595 214.604 149.367 215.192C149.139 215.768 148.815 216.284 148.395 216.74C147.987 217.184 147.495 217.538 146.919 217.802C146.355 218.054 145.731 218.18 145.047 218.18ZM141.645 213.356C141.645 214.052 141.795 214.688 142.095 215.264C142.407 215.828 142.821 216.278 143.337 216.614C143.853 216.938 144.423 217.1 145.047 217.1C145.671 217.1 146.241 216.932 146.757 216.596C147.273 216.26 147.687 215.804 147.999 215.228C148.311 214.64 148.467 214.004 148.467 213.32C148.467 212.624 148.311 211.988 147.999 211.412C147.687 210.836 147.273 210.38 146.757 210.044C146.241 209.708 145.671 209.54 145.047 209.54C144.423 209.54 143.853 209.714 143.337 210.062C142.833 210.41 142.425 210.872 142.113 211.448C141.801 212.012 141.645 212.648 141.645 213.356ZM156.116 217.55C156.02 217.586 155.87 217.652 155.666 217.748C155.462 217.844 155.216 217.928 154.928 218C154.64 218.072 154.328 218.108 153.992 218.108C153.644 218.108 153.314 218.042 153.002 217.91C152.702 217.778 152.462 217.58 152.282 217.316C152.102 217.04 152.012 216.704 152.012 216.308V209.594H150.716V208.622H152.012V205.454H153.236V208.622H155.396V209.594H153.236V215.966C153.26 216.302 153.38 216.554 153.596 216.722C153.824 216.89 154.082 216.974 154.37 216.974C154.706 216.974 155.012 216.92 155.288 216.812C155.564 216.692 155.732 216.608 155.792 216.56L156.116 217.55ZM156.889 215.3C156.889 214.712 157.057 214.208 157.393 213.788C157.729 213.356 158.191 213.026 158.779 212.798C159.379 212.558 160.069 212.438 160.849 212.438C161.305 212.438 161.779 212.474 162.271 212.546C162.763 212.618 163.201 212.726 163.585 212.87V212.078C163.585 211.286 163.351 210.656 162.883 210.188C162.415 209.72 161.767 209.486 160.939 209.486C160.435 209.486 159.937 209.582 159.445 209.774C158.965 209.954 158.461 210.224 157.933 210.584L157.465 209.72C158.077 209.3 158.677 208.988 159.265 208.784C159.853 208.568 160.453 208.46 161.065 208.46C162.217 208.46 163.129 208.79 163.801 209.45C164.473 210.11 164.809 211.022 164.809 212.186V216.524C164.809 216.692 164.845 216.818 164.917 216.902C164.989 216.974 165.103 217.016 165.259 217.028V218C165.127 218.012 165.013 218.024 164.917 218.036C164.821 218.048 164.749 218.048 164.701 218.036C164.401 218.024 164.173 217.928 164.017 217.748C163.861 217.568 163.777 217.376 163.765 217.172L163.747 216.488C163.327 217.028 162.781 217.448 162.109 217.748C161.437 218.036 160.753 218.18 160.057 218.18C159.457 218.18 158.911 218.054 158.419 217.802C157.939 217.538 157.561 217.19 157.285 216.758C157.021 216.314 156.889 215.828 156.889 215.3ZM163.171 216.02C163.303 215.852 163.405 215.69 163.477 215.534C163.549 215.378 163.585 215.24 163.585 215.12V213.752C163.177 213.596 162.751 213.476 162.307 213.392C161.875 213.308 161.437 213.266 160.993 213.266C160.117 213.266 159.409 213.44 158.869 213.788C158.329 214.136 158.059 214.61 158.059 215.21C158.059 215.558 158.149 215.888 158.329 216.2C158.509 216.5 158.773 216.752 159.121 216.956C159.469 217.148 159.877 217.244 160.345 217.244C160.933 217.244 161.479 217.13 161.983 216.902C162.499 216.674 162.895 216.38 163.171 216.02ZM171.216 218.126C170.58 218.126 169.992 217.994 169.452 217.73C168.912 217.466 168.444 217.112 168.048 216.668C167.664 216.212 167.364 215.696 167.148 215.12C166.932 214.544 166.824 213.95 166.824 213.338C166.824 212.678 166.926 212.06 167.13 211.484C167.346 210.896 167.646 210.374 168.03 209.918C168.426 209.462 168.888 209.108 169.416 208.856C169.944 208.592 170.532 208.46 171.18 208.46C171.984 208.46 172.68 208.664 173.268 209.072C173.868 209.48 174.372 209.984 174.78 210.584V208.622H175.878V218.036C175.878 218.9 175.668 219.626 175.248 220.214C174.84 220.814 174.282 221.264 173.574 221.564C172.878 221.864 172.116 222.014 171.288 222.014C170.22 222.014 169.356 221.822 168.696 221.438C168.036 221.054 167.496 220.538 167.076 219.89L167.832 219.296C168.204 219.884 168.696 220.322 169.308 220.61C169.932 220.898 170.592 221.042 171.288 221.042C171.9 221.042 172.458 220.928 172.962 220.7C173.478 220.484 173.886 220.154 174.186 219.71C174.498 219.266 174.654 218.708 174.654 218.036V216.182C174.294 216.77 173.802 217.244 173.178 217.604C172.554 217.952 171.9 218.126 171.216 218.126ZM171.558 217.1C171.93 217.1 172.284 217.034 172.62 216.902C172.968 216.77 173.286 216.596 173.574 216.38C173.862 216.152 174.102 215.9 174.294 215.624C174.486 215.348 174.606 215.066 174.654 214.778V211.88C174.474 211.424 174.216 211.022 173.88 210.674C173.544 210.314 173.16 210.038 172.728 209.846C172.308 209.642 171.87 209.54 171.414 209.54C170.886 209.54 170.412 209.654 169.992 209.882C169.584 210.098 169.236 210.392 168.948 210.764C168.672 211.124 168.456 211.532 168.3 211.988C168.144 212.444 168.066 212.9 168.066 213.356C168.066 213.86 168.156 214.34 168.336 214.796C168.516 215.24 168.762 215.642 169.074 216.002C169.398 216.35 169.77 216.62 170.19 216.812C170.622 217.004 171.078 217.1 171.558 217.1ZM182.63 218.18C181.958 218.18 181.334 218.054 180.758 217.802C180.182 217.538 179.684 217.184 179.264 216.74C178.844 216.284 178.514 215.762 178.274 215.174C178.046 214.586 177.932 213.956 177.932 213.284C177.932 212.408 178.13 211.604 178.526 210.872C178.934 210.14 179.492 209.558 180.2 209.126C180.908 208.682 181.712 208.46 182.612 208.46C183.536 208.46 184.34 208.682 185.024 209.126C185.72 209.57 186.266 210.158 186.662 210.89C187.058 211.61 187.256 212.402 187.256 213.266C187.256 213.362 187.256 213.458 187.256 213.554C187.256 213.638 187.25 213.704 187.238 213.752H179.21C179.27 214.424 179.456 215.024 179.768 215.552C180.092 216.068 180.506 216.482 181.01 216.794C181.526 217.094 182.084 217.244 182.684 217.244C183.296 217.244 183.872 217.088 184.412 216.776C184.964 216.464 185.348 216.056 185.564 215.552L186.626 215.84C186.434 216.284 186.14 216.686 185.744 217.046C185.348 217.406 184.88 217.688 184.34 217.892C183.812 218.084 183.242 218.18 182.63 218.18ZM179.174 212.87H186.104C186.056 212.186 185.87 211.586 185.546 211.07C185.234 210.554 184.82 210.152 184.304 209.864C183.8 209.564 183.242 209.414 182.63 209.414C182.018 209.414 181.46 209.564 180.956 209.864C180.452 210.152 180.038 210.56 179.714 211.088C179.402 211.604 179.222 212.198 179.174 212.87ZM193.733 218V208.622H194.957V218H193.733ZM193.733 206.66V204.86H194.957V206.66H193.733ZM205.537 218H204.313V212.762C204.313 211.658 204.151 210.854 203.827 210.35C203.503 209.834 202.993 209.576 202.297 209.576C201.817 209.576 201.343 209.696 200.875 209.936C200.407 210.164 199.993 210.482 199.633 210.89C199.285 211.286 199.033 211.742 198.877 212.258V218H197.653V208.622H198.769V210.746C199.021 210.29 199.351 209.894 199.759 209.558C200.167 209.21 200.629 208.94 201.145 208.748C201.661 208.556 202.195 208.46 202.747 208.46C203.263 208.46 203.701 208.556 204.061 208.748C204.421 208.94 204.709 209.216 204.925 209.576C205.141 209.924 205.297 210.35 205.393 210.854C205.489 211.346 205.537 211.898 205.537 212.51V218ZM212.559 217.55C212.463 217.586 212.313 217.652 212.109 217.748C211.905 217.844 211.659 217.928 211.371 218C211.083 218.072 210.771 218.108 210.435 218.108C210.087 218.108 209.757 218.042 209.445 217.91C209.145 217.778 208.905 217.58 208.725 217.316C208.545 217.04 208.455 216.704 208.455 216.308V209.594H207.159V208.622H208.455V205.454H209.679V208.622H211.839V209.594H209.679V215.966C209.703 216.302 209.823 216.554 210.039 216.722C210.267 216.89 210.525 216.974 210.813 216.974C211.149 216.974 211.455 216.92 211.731 216.812C212.007 216.692 212.175 216.608 212.235 216.56L212.559 217.55ZM217.926 218.18C217.254 218.18 216.63 218.054 216.054 217.802C215.49 217.538 214.998 217.184 214.578 216.74C214.17 216.284 213.852 215.768 213.624 215.192C213.396 214.604 213.282 213.986 213.282 213.338C213.282 212.666 213.396 212.042 213.624 211.466C213.852 210.878 214.176 210.362 214.596 209.918C215.016 209.462 215.508 209.108 216.072 208.856C216.648 208.592 217.272 208.46 217.944 208.46C218.616 208.46 219.234 208.592 219.798 208.856C220.362 209.108 220.854 209.462 221.274 209.918C221.694 210.362 222.018 210.878 222.246 211.466C222.474 212.042 222.588 212.666 222.588 213.338C222.588 213.986 222.474 214.604 222.246 215.192C222.018 215.768 221.694 216.284 221.274 216.74C220.866 217.184 220.374 217.538 219.798 217.802C219.234 218.054 218.61 218.18 217.926 218.18ZM214.524 213.356C214.524 214.052 214.674 214.688 214.974 215.264C215.286 215.828 215.7 216.278 216.216 216.614C216.732 216.938 217.302 217.1 217.926 217.1C218.55 217.1 219.12 216.932 219.636 216.596C220.152 216.26 220.566 215.804 220.878 215.228C221.19 214.64 221.346 214.004 221.346 213.32C221.346 212.624 221.19 211.988 220.878 211.412C220.566 210.836 220.152 210.38 219.636 210.044C219.12 209.708 218.55 209.54 217.926 209.54C217.302 209.54 216.732 209.714 216.216 210.062C215.712 210.41 215.304 210.872 214.992 211.448C214.68 212.012 214.524 212.648 214.524 213.356ZM47.138 239.18C46.358 239.18 45.656 238.976 45.032 238.568C44.42 238.16 43.934 237.656 43.574 237.056V242.834H42.35V229.622H43.448V231.44C43.82 230.852 44.318 230.378 44.942 230.018C45.566 229.646 46.232 229.46 46.94 229.46C47.588 229.46 48.182 229.598 48.722 229.874C49.262 230.138 49.73 230.498 50.126 230.954C50.522 231.41 50.828 231.932 51.044 232.52C51.272 233.096 51.386 233.696 51.386 234.32C51.386 235.196 51.206 236.006 50.846 236.75C50.498 237.482 50.006 238.07 49.37 238.514C48.734 238.958 47.99 239.18 47.138 239.18ZM46.796 238.1C47.312 238.1 47.774 237.998 48.182 237.794C48.59 237.578 48.938 237.29 49.226 236.93C49.526 236.57 49.754 236.168 49.91 235.724C50.066 235.268 50.144 234.8 50.144 234.32C50.144 233.816 50.054 233.336 49.874 232.88C49.706 232.424 49.46 232.022 49.136 231.674C48.812 231.326 48.44 231.05 48.02 230.846C47.6 230.642 47.144 230.54 46.652 230.54C46.34 230.54 46.016 230.6 45.68 230.72C45.344 230.84 45.02 231.014 44.708 231.242C44.408 231.458 44.156 231.704 43.952 231.98C43.748 232.256 43.622 232.55 43.574 232.862V235.742C43.766 236.186 44.024 236.588 44.348 236.948C44.672 237.296 45.044 237.578 45.464 237.794C45.896 237.998 46.34 238.1 46.796 238.1ZM57.4554 239.18C56.7834 239.18 56.1594 239.054 55.5834 238.802C55.0194 238.538 54.5274 238.184 54.1074 237.74C53.6994 237.284 53.3814 236.768 53.1534 236.192C52.9254 235.604 52.8114 234.986 52.8114 234.338C52.8114 233.666 52.9254 233.042 53.1534 232.466C53.3814 231.878 53.7054 231.362 54.1254 230.918C54.5454 230.462 55.0374 230.108 55.6014 229.856C56.1774 229.592 56.8014 229.46 57.4734 229.46C58.1454 229.46 58.7634 229.592 59.3274 229.856C59.8914 230.108 60.3834 230.462 60.8034 230.918C61.2234 231.362 61.5474 231.878 61.7754 232.466C62.0034 233.042 62.1174 233.666 62.1174 234.338C62.1174 234.986 62.0034 235.604 61.7754 236.192C61.5474 236.768 61.2234 237.284 60.8034 237.74C60.3954 238.184 59.9034 238.538 59.3274 238.802C58.7634 239.054 58.1394 239.18 57.4554 239.18ZM54.0534 234.356C54.0534 235.052 54.2034 235.688 54.5034 236.264C54.8154 236.828 55.2294 237.278 55.7454 237.614C56.2614 237.938 56.8314 238.1 57.4554 238.1C58.0794 238.1 58.6494 237.932 59.1654 237.596C59.6814 237.26 60.0954 236.804 60.4074 236.228C60.7194 235.64 60.8754 235.004 60.8754 234.32C60.8754 233.624 60.7194 232.988 60.4074 232.412C60.0954 231.836 59.6814 231.38 59.1654 231.044C58.6494 230.708 58.0794 230.54 57.4554 230.54C56.8314 230.54 56.2614 230.714 55.7454 231.062C55.2414 231.41 54.8334 231.872 54.5214 232.448C54.2094 233.012 54.0534 233.648 54.0534 234.356ZM64.2185 225.86H65.4425V236.876C65.4425 237.344 65.5265 237.65 65.6945 237.794C65.8625 237.938 66.0665 238.01 66.3065 238.01C66.5225 238.01 66.7385 237.986 66.9545 237.938C67.1705 237.89 67.3565 237.842 67.5125 237.794L67.7285 238.784C67.5005 238.88 67.2185 238.958 66.8825 239.018C66.5585 239.078 66.2765 239.108 66.0365 239.108C65.4845 239.108 65.0405 238.946 64.7045 238.622C64.3805 238.298 64.2185 237.854 64.2185 237.29V225.86ZM69.0688 239V229.622H70.2928V239H69.0688ZM69.0688 227.66V225.86H70.2928V227.66H69.0688ZM76.0667 239.18C75.2987 239.18 74.5847 239.054 73.9247 238.802C73.2647 238.55 72.6947 238.166 72.2147 237.65L72.7187 236.786C73.2467 237.278 73.7747 237.638 74.3027 237.866C74.8427 238.082 75.4127 238.19 76.0127 238.19C76.7447 238.19 77.3387 238.046 77.7947 237.758C78.2507 237.458 78.4787 237.032 78.4787 236.48C78.4787 236.108 78.3647 235.826 78.1367 235.634C77.9207 235.43 77.6027 235.268 77.1827 235.148C76.7747 235.016 76.2827 234.878 75.7067 234.734C75.0587 234.554 74.5127 234.368 74.0687 234.176C73.6367 233.972 73.3067 233.72 73.0787 233.42C72.8627 233.108 72.7547 232.706 72.7547 232.214C72.7547 231.602 72.9047 231.098 73.2047 230.702C73.5167 230.294 73.9367 229.988 74.4647 229.784C75.0047 229.568 75.6047 229.46 76.2647 229.46C76.9847 229.46 77.6207 229.574 78.1727 229.802C78.7247 230.03 79.1747 230.348 79.5227 230.756L78.9287 231.584C78.5927 231.2 78.1907 230.918 77.7227 230.738C77.2667 230.546 76.7567 230.45 76.1927 230.45C75.8087 230.45 75.4427 230.504 75.0947 230.612C74.7467 230.708 74.4587 230.876 74.2307 231.116C74.0147 231.344 73.9067 231.662 73.9067 232.07C73.9067 232.406 73.9907 232.67 74.1587 232.862C74.3267 233.042 74.5787 233.198 74.9147 233.33C75.2507 233.45 75.6647 233.582 76.1567 233.726C76.8647 233.918 77.4827 234.116 78.0107 234.32C78.5387 234.512 78.9467 234.764 79.2347 235.076C79.5227 235.388 79.6667 235.826 79.6667 236.39C79.6667 237.266 79.3367 237.95 78.6767 238.442C78.0167 238.934 77.1467 239.18 76.0667 239.18ZM89.5738 239H88.3498V233.762C88.3498 232.706 88.1638 231.914 87.7918 231.386C87.4198 230.846 86.8858 230.576 86.1898 230.576C85.7338 230.576 85.2778 230.696 84.8218 230.936C84.3778 231.164 83.9818 231.482 83.6338 231.89C83.2978 232.286 83.0578 232.742 82.9138 233.258V239H81.6898V225.86H82.9138V231.746C83.2858 231.05 83.8018 230.498 84.4618 230.09C85.1338 229.67 85.8478 229.46 86.6038 229.46C87.1438 229.46 87.5998 229.556 87.9718 229.748C88.3558 229.94 88.6618 230.222 88.8898 230.594C89.1298 230.954 89.3038 231.38 89.4118 231.872C89.5198 232.352 89.5738 232.898 89.5738 233.51V239ZM96.234 239.18C95.562 239.18 94.938 239.054 94.362 238.802C93.786 238.538 93.288 238.184 92.868 237.74C92.448 237.284 92.118 236.762 91.878 236.174C91.65 235.586 91.536 234.956 91.536 234.284C91.536 233.408 91.734 232.604 92.13 231.872C92.538 231.14 93.096 230.558 93.804 230.126C94.512 229.682 95.316 229.46 96.216 229.46C97.14 229.46 97.944 229.682 98.628 230.126C99.324 230.57 99.87 231.158 100.266 231.89C100.662 232.61 100.86 233.402 100.86 234.266C100.86 234.362 100.86 234.458 100.86 234.554C100.86 234.638 100.854 234.704 100.842 234.752H92.814C92.874 235.424 93.06 236.024 93.372 236.552C93.696 237.068 94.11 237.482 94.614 237.794C95.13 238.094 95.688 238.244 96.288 238.244C96.9 238.244 97.476 238.088 98.016 237.776C98.568 237.464 98.952 237.056 99.168 236.552L100.23 236.84C100.038 237.284 99.744 237.686 99.348 238.046C98.952 238.406 98.484 238.688 97.944 238.892C97.416 239.084 96.846 239.18 96.234 239.18ZM92.778 233.87H99.708C99.66 233.186 99.474 232.586 99.15 232.07C98.838 231.554 98.424 231.152 97.908 230.864C97.404 230.564 96.846 230.414 96.234 230.414C95.622 230.414 95.064 230.564 94.56 230.864C94.056 231.152 93.642 231.56 93.318 232.088C93.006 232.604 92.826 233.198 92.778 233.87ZM102.118 234.338C102.118 233.45 102.298 232.64 102.658 231.908C103.03 231.164 103.54 230.57 104.188 230.126C104.836 229.682 105.574 229.46 106.402 229.46C107.182 229.46 107.878 229.67 108.49 230.09C109.114 230.498 109.6 230.996 109.948 231.584V225.86H111.172V237.524C111.172 237.692 111.208 237.818 111.28 237.902C111.352 237.974 111.46 238.016 111.604 238.028V239C111.364 239.036 111.178 239.048 111.046 239.036C110.794 239.024 110.572 238.922 110.38 238.73C110.188 238.538 110.092 238.328 110.092 238.1V237.182C109.72 237.794 109.216 238.28 108.58 238.64C107.944 239 107.284 239.18 106.6 239.18C105.952 239.18 105.352 239.048 104.8 238.784C104.26 238.52 103.786 238.16 103.378 237.704C102.982 237.248 102.67 236.732 102.442 236.156C102.226 235.568 102.118 234.962 102.118 234.338ZM109.948 235.778V232.88C109.792 232.448 109.54 232.058 109.192 231.71C108.844 231.35 108.448 231.068 108.004 230.864C107.572 230.648 107.14 230.54 106.708 230.54C106.204 230.54 105.748 230.648 105.34 230.864C104.932 231.068 104.578 231.35 104.278 231.71C103.99 232.07 103.768 232.478 103.612 232.934C103.456 233.39 103.378 233.858 103.378 234.338C103.378 234.842 103.462 235.322 103.63 235.778C103.81 236.234 104.062 236.642 104.386 237.002C104.71 237.35 105.082 237.62 105.502 237.812C105.922 238.004 106.378 238.1 106.87 238.1C107.182 238.1 107.506 238.04 107.842 237.92C108.178 237.8 108.496 237.638 108.796 237.434C109.108 237.218 109.366 236.966 109.57 236.678C109.774 236.39 109.9 236.09 109.948 235.778ZM114.144 240.458L114.45 238.946H114.036V237.236H115.224V238.946L114.774 240.458H114.144ZM126.627 239.18C125.955 239.18 125.331 239.054 124.755 238.802C124.179 238.538 123.681 238.184 123.261 237.74C122.841 237.284 122.511 236.762 122.271 236.174C122.043 235.586 121.929 234.956 121.929 234.284C121.929 233.408 122.127 232.604 122.523 231.872C122.931 231.14 123.489 230.558 124.197 230.126C124.905 229.682 125.709 229.46 126.609 229.46C127.533 229.46 128.337 229.682 129.021 230.126C129.717 230.57 130.263 231.158 130.659 231.89C131.055 232.61 131.253 233.402 131.253 234.266C131.253 234.362 131.253 234.458 131.253 234.554C131.253 234.638 131.247 234.704 131.235 234.752H123.207C123.267 235.424 123.453 236.024 123.765 236.552C124.089 237.068 124.503 237.482 125.007 237.794C125.523 238.094 126.081 238.244 126.681 238.244C127.293 238.244 127.869 238.088 128.409 237.776C128.961 237.464 129.345 237.056 129.561 236.552L130.623 236.84C130.431 237.284 130.137 237.686 129.741 238.046C129.345 238.406 128.877 238.688 128.337 238.892C127.809 239.084 127.239 239.18 126.627 239.18ZM123.171 233.87H130.101C130.053 233.186 129.867 232.586 129.543 232.07C129.231 231.554 128.817 231.152 128.301 230.864C127.797 230.564 127.239 230.414 126.627 230.414C126.015 230.414 125.457 230.564 124.953 230.864C124.449 231.152 124.035 231.56 123.711 232.088C123.399 232.604 123.219 233.198 123.171 233.87ZM141.025 239H139.801V233.762C139.801 232.658 139.639 231.854 139.315 231.35C138.991 230.834 138.481 230.576 137.785 230.576C137.305 230.576 136.831 230.696 136.363 230.936C135.895 231.164 135.481 231.482 135.121 231.89C134.773 232.286 134.521 232.742 134.365 233.258V239H133.141V229.622H134.257V231.746C134.509 231.29 134.839 230.894 135.247 230.558C135.655 230.21 136.117 229.94 136.633 229.748C137.149 229.556 137.683 229.46 138.235 229.46C138.751 229.46 139.189 229.556 139.549 229.748C139.909 229.94 140.197 230.216 140.413 230.576C140.629 230.924 140.785 231.35 140.881 231.854C140.977 232.346 141.025 232.898 141.025 233.51V239ZM147.397 239.126C146.761 239.126 146.173 238.994 145.633 238.73C145.093 238.466 144.625 238.112 144.229 237.668C143.845 237.212 143.545 236.696 143.329 236.12C143.113 235.544 143.005 234.95 143.005 234.338C143.005 233.678 143.107 233.06 143.311 232.484C143.527 231.896 143.827 231.374 144.211 230.918C144.607 230.462 145.069 230.108 145.597 229.856C146.125 229.592 146.713 229.46 147.361 229.46C148.165 229.46 148.861 229.664 149.449 230.072C150.049 230.48 150.553 230.984 150.961 231.584V229.622H152.059V239.036C152.059 239.9 151.849 240.626 151.429 241.214C151.021 241.814 150.463 242.264 149.755 242.564C149.059 242.864 148.297 243.014 147.469 243.014C146.401 243.014 145.537 242.822 144.877 242.438C144.217 242.054 143.677 241.538 143.257 240.89L144.013 240.296C144.385 240.884 144.877 241.322 145.489 241.61C146.113 241.898 146.773 242.042 147.469 242.042C148.081 242.042 148.639 241.928 149.143 241.7C149.659 241.484 150.067 241.154 150.367 240.71C150.679 240.266 150.835 239.708 150.835 239.036V237.182C150.475 237.77 149.983 238.244 149.359 238.604C148.735 238.952 148.081 239.126 147.397 239.126ZM147.739 238.1C148.111 238.1 148.465 238.034 148.801 237.902C149.149 237.77 149.467 237.596 149.755 237.38C150.043 237.152 150.283 236.9 150.475 236.624C150.667 236.348 150.787 236.066 150.835 235.778V232.88C150.655 232.424 150.397 232.022 150.061 231.674C149.725 231.314 149.341 231.038 148.909 230.846C148.489 230.642 148.051 230.54 147.595 230.54C147.067 230.54 146.593 230.654 146.173 230.882C145.765 231.098 145.417 231.392 145.129 231.764C144.853 232.124 144.637 232.532 144.481 232.988C144.325 233.444 144.247 233.9 144.247 234.356C144.247 234.86 144.337 235.34 144.517 235.796C144.697 236.24 144.943 236.642 145.255 237.002C145.579 237.35 145.951 237.62 146.371 237.812C146.803 238.004 147.259 238.1 147.739 238.1ZM154.006 236.3C154.006 235.712 154.174 235.208 154.51 234.788C154.846 234.356 155.308 234.026 155.896 233.798C156.496 233.558 157.186 233.438 157.966 233.438C158.422 233.438 158.896 233.474 159.388 233.546C159.88 233.618 160.318 233.726 160.702 233.87V233.078C160.702 232.286 160.468 231.656 160 231.188C159.532 230.72 158.884 230.486 158.056 230.486C157.552 230.486 157.054 230.582 156.562 230.774C156.082 230.954 155.578 231.224 155.05 231.584L154.582 230.72C155.194 230.3 155.794 229.988 156.382 229.784C156.97 229.568 157.57 229.46 158.182 229.46C159.334 229.46 160.246 229.79 160.918 230.45C161.59 231.11 161.926 232.022 161.926 233.186V237.524C161.926 237.692 161.962 237.818 162.034 237.902C162.106 237.974 162.22 238.016 162.376 238.028V239C162.244 239.012 162.13 239.024 162.034 239.036C161.938 239.048 161.866 239.048 161.818 239.036C161.518 239.024 161.29 238.928 161.134 238.748C160.978 238.568 160.894 238.376 160.882 238.172L160.864 237.488C160.444 238.028 159.898 238.448 159.226 238.748C158.554 239.036 157.87 239.18 157.174 239.18C156.574 239.18 156.028 239.054 155.536 238.802C155.056 238.538 154.678 238.19 154.402 237.758C154.138 237.314 154.006 236.828 154.006 236.3ZM160.288 237.02C160.42 236.852 160.522 236.69 160.594 236.534C160.666 236.378 160.702 236.24 160.702 236.12V234.752C160.294 234.596 159.868 234.476 159.424 234.392C158.992 234.308 158.554 234.266 158.11 234.266C157.234 234.266 156.526 234.44 155.986 234.788C155.446 235.136 155.176 235.61 155.176 236.21C155.176 236.558 155.266 236.888 155.446 237.2C155.626 237.5 155.89 237.752 156.238 237.956C156.586 238.148 156.994 238.244 157.462 238.244C158.05 238.244 158.596 238.13 159.1 237.902C159.616 237.674 160.012 237.38 160.288 237.02ZM168.333 239.126C167.697 239.126 167.109 238.994 166.569 238.73C166.029 238.466 165.561 238.112 165.165 237.668C164.781 237.212 164.481 236.696 164.265 236.12C164.049 235.544 163.941 234.95 163.941 234.338C163.941 233.678 164.043 233.06 164.247 232.484C164.463 231.896 164.763 231.374 165.147 230.918C165.543 230.462 166.005 230.108 166.533 229.856C167.061 229.592 167.649 229.46 168.297 229.46C169.101 229.46 169.797 229.664 170.385 230.072C170.985 230.48 171.489 230.984 171.897 231.584V229.622H172.995V239.036C172.995 239.9 172.785 240.626 172.365 241.214C171.957 241.814 171.399 242.264 170.691 242.564C169.995 242.864 169.233 243.014 168.405 243.014C167.337 243.014 166.473 242.822 165.813 242.438C165.153 242.054 164.613 241.538 164.193 240.89L164.949 240.296C165.321 240.884 165.813 241.322 166.425 241.61C167.049 241.898 167.709 242.042 168.405 242.042C169.017 242.042 169.575 241.928 170.079 241.7C170.595 241.484 171.003 241.154 171.303 240.71C171.615 240.266 171.771 239.708 171.771 239.036V237.182C171.411 237.77 170.919 238.244 170.295 238.604C169.671 238.952 169.017 239.126 168.333 239.126ZM168.675 238.1C169.047 238.1 169.401 238.034 169.737 237.902C170.085 237.77 170.403 237.596 170.691 237.38C170.979 237.152 171.219 236.9 171.411 236.624C171.603 236.348 171.723 236.066 171.771 235.778V232.88C171.591 232.424 171.333 232.022 170.997 231.674C170.661 231.314 170.277 231.038 169.845 230.846C169.425 230.642 168.987 230.54 168.531 230.54C168.003 230.54 167.529 230.654 167.109 230.882C166.701 231.098 166.353 231.392 166.065 231.764C165.789 232.124 165.573 232.532 165.417 232.988C165.261 233.444 165.183 233.9 165.183 234.356C165.183 234.86 165.273 235.34 165.453 235.796C165.633 236.24 165.879 236.642 166.191 237.002C166.515 237.35 166.887 237.62 167.307 237.812C167.739 238.004 168.195 238.1 168.675 238.1ZM175.698 239V229.622H176.922V239H175.698ZM175.698 227.66V225.86H176.922V227.66H175.698ZM187.502 239H186.278V233.762C186.278 232.658 186.116 231.854 185.792 231.35C185.468 230.834 184.958 230.576 184.262 230.576C183.782 230.576 183.308 230.696 182.84 230.936C182.372 231.164 181.958 231.482 181.598 231.89C181.25 232.286 180.998 232.742 180.842 233.258V239H179.618V229.622H180.734V231.746C180.986 231.29 181.316 230.894 181.724 230.558C182.132 230.21 182.594 229.94 183.11 229.748C183.626 229.556 184.16 229.46 184.712 229.46C185.228 229.46 185.666 229.556 186.026 229.748C186.386 229.94 186.674 230.216 186.89 230.576C187.106 230.924 187.262 231.35 187.358 231.854C187.454 232.346 187.502 232.898 187.502 233.51V239ZM193.874 239.126C193.238 239.126 192.65 238.994 192.11 238.73C191.57 238.466 191.102 238.112 190.706 237.668C190.322 237.212 190.022 236.696 189.806 236.12C189.59 235.544 189.482 234.95 189.482 234.338C189.482 233.678 189.584 233.06 189.788 232.484C190.004 231.896 190.304 231.374 190.688 230.918C191.084 230.462 191.546 230.108 192.074 229.856C192.602 229.592 193.19 229.46 193.838 229.46C194.642 229.46 195.338 229.664 195.926 230.072C196.526 230.48 197.03 230.984 197.438 231.584V229.622H198.536V239.036C198.536 239.9 198.326 240.626 197.906 241.214C197.498 241.814 196.94 242.264 196.232 242.564C195.536 242.864 194.774 243.014 193.946 243.014C192.878 243.014 192.014 242.822 191.354 242.438C190.694 242.054 190.154 241.538 189.734 240.89L190.49 240.296C190.862 240.884 191.354 241.322 191.966 241.61C192.59 241.898 193.25 242.042 193.946 242.042C194.558 242.042 195.116 241.928 195.62 241.7C196.136 241.484 196.544 241.154 196.844 240.71C197.156 240.266 197.312 239.708 197.312 239.036V237.182C196.952 237.77 196.46 238.244 195.836 238.604C195.212 238.952 194.558 239.126 193.874 239.126ZM194.216 238.1C194.588 238.1 194.942 238.034 195.278 237.902C195.626 237.77 195.944 237.596 196.232 237.38C196.52 237.152 196.76 236.9 196.952 236.624C197.144 236.348 197.264 236.066 197.312 235.778V232.88C197.132 232.424 196.874 232.022 196.538 231.674C196.202 231.314 195.818 231.038 195.386 230.846C194.966 230.642 194.528 230.54 194.072 230.54C193.544 230.54 193.07 230.654 192.65 230.882C192.242 231.098 191.894 231.392 191.606 231.764C191.33 232.124 191.114 232.532 190.958 232.988C190.802 233.444 190.724 233.9 190.724 234.356C190.724 234.86 190.814 235.34 190.994 235.796C191.174 236.24 191.42 236.642 191.732 237.002C192.056 237.35 192.428 237.62 192.848 237.812C193.28 238.004 193.736 238.1 194.216 238.1ZM45.14 260L41.342 250.622H42.62L45.824 258.776L49.046 250.622H50.252L46.454 260H45.14ZM51.9477 260V250.622H53.1717V260H51.9477ZM51.9477 248.66V246.86H53.1717V248.66H51.9477ZM55.2376 255.338C55.2376 254.45 55.4176 253.64 55.7776 252.908C56.1496 252.164 56.6596 251.57 57.3076 251.126C57.9556 250.682 58.6936 250.46 59.5216 250.46C60.3016 250.46 60.9976 250.67 61.6096 251.09C62.2336 251.498 62.7196 251.996 63.0676 252.584V246.86H64.2916V258.524C64.2916 258.692 64.3276 258.818 64.3996 258.902C64.4716 258.974 64.5796 259.016 64.7236 259.028V260C64.4836 260.036 64.2976 260.048 64.1656 260.036C63.9136 260.024 63.6916 259.922 63.4996 259.73C63.3076 259.538 63.2116 259.328 63.2116 259.1V258.182C62.8396 258.794 62.3356 259.28 61.6996 259.64C61.0636 260 60.4036 260.18 59.7196 260.18C59.0716 260.18 58.4716 260.048 57.9196 259.784C57.3796 259.52 56.9056 259.16 56.4976 258.704C56.1016 258.248 55.7896 257.732 55.5616 257.156C55.3456 256.568 55.2376 255.962 55.2376 255.338ZM63.0676 256.778V253.88C62.9116 253.448 62.6596 253.058 62.3116 252.71C61.9636 252.35 61.5676 252.068 61.1236 251.864C60.6916 251.648 60.2596 251.54 59.8276 251.54C59.3236 251.54 58.8676 251.648 58.4596 251.864C58.0516 252.068 57.6976 252.35 57.3976 252.71C57.1096 253.07 56.8876 253.478 56.7316 253.934C56.5756 254.39 56.4976 254.858 56.4976 255.338C56.4976 255.842 56.5816 256.322 56.7496 256.778C56.9296 257.234 57.1816 257.642 57.5056 258.002C57.8296 258.35 58.2016 258.62 58.6216 258.812C59.0416 259.004 59.4976 259.1 59.9896 259.1C60.3016 259.1 60.6256 259.04 60.9616 258.92C61.2976 258.8 61.6156 258.638 61.9156 258.434C62.2276 258.218 62.4856 257.966 62.6896 257.678C62.8936 257.39 63.0196 257.09 63.0676 256.778ZM71.1148 260.18C70.4428 260.18 69.8188 260.054 69.2428 259.802C68.6668 259.538 68.1688 259.184 67.7488 258.74C67.3288 258.284 66.9988 257.762 66.7588 257.174C66.5308 256.586 66.4168 255.956 66.4168 255.284C66.4168 254.408 66.6148 253.604 67.0108 252.872C67.4188 252.14 67.9768 251.558 68.6848 251.126C69.3928 250.682 70.1968 250.46 71.0968 250.46C72.0208 250.46 72.8248 250.682 73.5088 251.126C74.2048 251.57 74.7508 252.158 75.1468 252.89C75.5428 253.61 75.7408 254.402 75.7408 255.266C75.7408 255.362 75.7408 255.458 75.7408 255.554C75.7408 255.638 75.7348 255.704 75.7228 255.752H67.6948C67.7548 256.424 67.9408 257.024 68.2528 257.552C68.5768 258.068 68.9908 258.482 69.4948 258.794C70.0108 259.094 70.5688 259.244 71.1688 259.244C71.7808 259.244 72.3568 259.088 72.8968 258.776C73.4488 258.464 73.8328 258.056 74.0488 257.552L75.1108 257.84C74.9188 258.284 74.6248 258.686 74.2288 259.046C73.8328 259.406 73.3648 259.688 72.8248 259.892C72.2968 260.084 71.7268 260.18 71.1148 260.18ZM67.6588 254.87H74.5888C74.5408 254.186 74.3548 253.586 74.0308 253.07C73.7188 252.554 73.3048 252.152 72.7888 251.864C72.2848 251.564 71.7268 251.414 71.1148 251.414C70.5028 251.414 69.9448 251.564 69.4408 251.864C68.9368 252.152 68.5228 252.56 68.1988 253.088C67.8868 253.604 67.7068 254.198 67.6588 254.87ZM81.6253 260.18C80.9533 260.18 80.3293 260.054 79.7533 259.802C79.1893 259.538 78.6973 259.184 78.2773 258.74C77.8693 258.284 77.5513 257.768 77.3233 257.192C77.0953 256.604 76.9813 255.986 76.9813 255.338C76.9813 254.666 77.0953 254.042 77.3233 253.466C77.5513 252.878 77.8753 252.362 78.2953 251.918C78.7153 251.462 79.2073 251.108 79.7713 250.856C80.3473 250.592 80.9713 250.46 81.6433 250.46C82.3153 250.46 82.9333 250.592 83.4973 250.856C84.0613 251.108 84.5533 251.462 84.9733 251.918C85.3933 252.362 85.7173 252.878 85.9453 253.466C86.1733 254.042 86.2873 254.666 86.2873 255.338C86.2873 255.986 86.1733 256.604 85.9453 257.192C85.7173 257.768 85.3933 258.284 84.9733 258.74C84.5653 259.184 84.0733 259.538 83.4973 259.802C82.9333 260.054 82.3093 260.18 81.6253 260.18ZM78.2233 255.356C78.2233 256.052 78.3733 256.688 78.6733 257.264C78.9853 257.828 79.3993 258.278 79.9153 258.614C80.4313 258.938 81.0013 259.1 81.6253 259.1C82.2493 259.1 82.8193 258.932 83.3353 258.596C83.8513 258.26 84.2653 257.804 84.5773 257.228C84.8893 256.64 85.0453 256.004 85.0453 255.32C85.0453 254.624 84.8893 253.988 84.5773 253.412C84.2653 252.836 83.8513 252.38 83.3353 252.044C82.8193 251.708 82.2493 251.54 81.6253 251.54C81.0013 251.54 80.4313 251.714 79.9153 252.062C79.4113 252.41 79.0033 252.872 78.6913 253.448C78.3793 254.012 78.2233 254.648 78.2233 255.356ZM91.4124 260.18C90.6444 260.18 89.9304 260.054 89.2704 259.802C88.6104 259.55 88.0404 259.166 87.5604 258.65L88.0644 257.786C88.5924 258.278 89.1204 258.638 89.6484 258.866C90.1884 259.082 90.7584 259.19 91.3584 259.19C92.0904 259.19 92.6844 259.046 93.1404 258.758C93.5964 258.458 93.8244 258.032 93.8244 257.48C93.8244 257.108 93.7104 256.826 93.4824 256.634C93.2664 256.43 92.9484 256.268 92.5284 256.148C92.1204 256.016 91.6284 255.878 91.0524 255.734C90.4044 255.554 89.8584 255.368 89.4144 255.176C88.9824 254.972 88.6524 254.72 88.4244 254.42C88.2084 254.108 88.1004 253.706 88.1004 253.214C88.1004 252.602 88.2504 252.098 88.5504 251.702C88.8624 251.294 89.2824 250.988 89.8104 250.784C90.3504 250.568 90.9504 250.46 91.6104 250.46C92.3304 250.46 92.9664 250.574 93.5184 250.802C94.0704 251.03 94.5204 251.348 94.8684 251.756L94.2744 252.584C93.9384 252.2 93.5364 251.918 93.0684 251.738C92.6124 251.546 92.1024 251.45 91.5384 251.45C91.1544 251.45 90.7884 251.504 90.4404 251.612C90.0924 251.708 89.8044 251.876 89.5764 252.116C89.3604 252.344 89.2524 252.662 89.2524 253.07C89.2524 253.406 89.3364 253.67 89.5044 253.862C89.6724 254.042 89.9244 254.198 90.2604 254.33C90.5964 254.45 91.0104 254.582 91.5024 254.726C92.2104 254.918 92.8284 255.116 93.3564 255.32C93.8844 255.512 94.2924 255.764 94.5804 256.076C94.8684 256.388 95.0124 256.826 95.0124 257.39C95.0124 258.266 94.6824 258.95 94.0224 259.442C93.3624 259.934 92.4924 260.18 91.4124 260.18ZM96.8555 260V258.236H97.9175V260H96.8555Z" fill="white"/>
<path d="M143.502 57C149.301 57 154.002 61.701 154.002 67.5V102.5C154.002 108.299 149.301 113 143.502 113H108.5C102.701 113 98 108.299 98 102.5V67.5C98 61.701 102.701 57 108.5 57H143.502ZM176.741 58.2445C178.895 57.0128 181.535 58.3525 181.929 60.6796L181.98 61.2811L182 108.716C182.001 111.197 179.527 112.824 177.31 112.011L176.763 111.756L161.004 102.751V67.2461L176.741 58.2445Z" fill="white"/>
<defs>
<filter id="filter0_d_514_260" x="0" y="0" width="288" height="342" filterUnits="userSpaceOnUse" color-interpolation-filters="sRGB">
<feFlood flood-opacity="0" result="BackgroundImageFix"/>
<feColorMatrix in="SourceAlpha" type="matrix" values="0 0 0 0 0 0 0 0 0 0 0 0 0 0 0 0 0 0 127 0" result="hardAlpha"/>
<feOffset dx="4" dy="6"/>
<feGaussianBlur stdDeviation="7"/>
<feComposite in2="hardAlpha" operator="out"/>
<feColorMatrix type="matrix" values="0 0 0 0 0.694118 0 0 0 0 0.690196 0 0 0 0 0.690196 0 0 0 0.2 0"/>
<feBlend mode="normal" in2="BackgroundImageFix" result="effect1_dropShadow_514_260"/>
<feBlend mode="normal" in="SourceGraphic" in2="effect1_dropShadow_514_260" result="shape"/>
</filter>
</defs>
</svg>
