<svg width="288" height="342" viewBox="0 0 288 342" fill="none" xmlns="http://www.w3.org/2000/svg">
<g filter="url(#filter0_d_514_230)">
<rect x="10" y="8" width="260" height="314" fill="#1A2E62"/>
</g>
<path d="M44 170.96L49.136 184.712L54.248 170.96H57.104L50.408 188H47.864L41.144 170.96H44ZM58.8496 188V175.448H61.4896V188H58.8496ZM58.8496 173.384V170.48H61.4896V173.384H58.8496ZM63.8701 181.736C63.8701 180.536 64.1101 179.448 64.5901 178.472C65.0861 177.48 65.7581 176.696 66.6061 176.12C67.4541 175.528 68.4301 175.232 69.5341 175.232C70.4941 175.232 71.3581 175.48 72.1261 175.976C72.9101 176.472 73.5181 177.088 73.9501 177.824V170.48H76.5901V185.024C76.5901 185.328 76.6461 185.544 76.7581 185.672C76.8701 185.8 77.0541 185.872 77.3101 185.888V188C76.8141 188.08 76.4301 188.12 76.1581 188.12C75.6621 188.12 75.2381 187.976 74.8861 187.688C74.5501 187.4 74.3741 187.056 74.3581 186.656L74.3341 185.72C73.8541 186.52 73.2061 187.144 72.3901 187.592C71.5741 188.024 70.7261 188.24 69.8461 188.24C68.9821 188.24 68.1821 188.072 67.4461 187.736C66.7261 187.4 66.0941 186.928 65.5501 186.32C65.0221 185.712 64.6061 185.016 64.3021 184.232C64.0141 183.448 63.8701 182.616 63.8701 181.736ZM73.9501 183.488V180.2C73.7741 179.688 73.4861 179.232 73.0861 178.832C72.7021 178.416 72.2621 178.088 71.7661 177.848C71.2861 177.608 70.8061 177.488 70.3261 177.488C69.7661 177.488 69.2541 177.608 68.7901 177.848C68.3421 178.088 67.9501 178.408 67.6141 178.808C67.2941 179.208 67.0461 179.664 66.8701 180.176C66.6941 180.688 66.6061 181.224 66.6061 181.784C66.6061 182.36 66.7021 182.904 66.8941 183.416C67.0861 183.912 67.3581 184.36 67.7101 184.76C68.0781 185.144 68.4941 185.448 68.9581 185.672C69.4381 185.88 69.9581 185.984 70.5181 185.984C70.8701 185.984 71.2221 185.92 71.5741 185.792C71.9421 185.664 72.2861 185.488 72.6061 185.264C72.9421 185.04 73.2221 184.776 73.4461 184.472C73.6861 184.168 73.8541 183.84 73.9501 183.488ZM85.6314 188.24C84.6554 188.24 83.7674 188.072 82.9674 187.736C82.1834 187.384 81.5034 186.912 80.9274 186.32C80.3514 185.712 79.9034 185.024 79.5834 184.256C79.2794 183.472 79.1274 182.64 79.1274 181.76C79.1274 180.576 79.3994 179.496 79.9434 178.52C80.4874 177.528 81.2474 176.736 82.2234 176.144C83.1994 175.536 84.3434 175.232 85.6554 175.232C86.9674 175.232 88.0954 175.536 89.0394 176.144C89.9994 176.736 90.7434 177.52 91.2714 178.496C91.7994 179.472 92.0634 180.52 92.0634 181.64C92.0634 181.832 92.0554 182.016 92.0394 182.192C92.0234 182.352 92.0074 182.488 91.9914 182.6H81.9354C81.9834 183.336 82.1834 183.984 82.5354 184.544C82.9034 185.088 83.3674 185.52 83.9274 185.84C84.4874 186.144 85.0874 186.296 85.7274 186.296C86.4314 186.296 87.0954 186.12 87.7194 185.768C88.3594 185.416 88.7914 184.952 89.0154 184.376L91.2714 185.024C90.9994 185.632 90.5834 186.184 90.0234 186.68C89.4794 187.16 88.8314 187.544 88.0794 187.832C87.3274 188.104 86.5114 188.24 85.6314 188.24ZM81.8634 180.848H89.4474C89.3994 180.128 89.1914 179.496 88.8234 178.952C88.4714 178.392 88.0154 177.96 87.4554 177.656C86.9114 177.336 86.3034 177.176 85.6314 177.176C84.9754 177.176 84.3674 177.336 83.8074 177.656C83.2634 177.96 82.8154 178.392 82.4634 178.952C82.1114 179.496 81.9114 180.128 81.8634 180.848ZM99.8568 188.24C98.8648 188.24 97.9768 188.072 97.1928 187.736C96.4088 187.384 95.7288 186.904 95.1528 186.296C94.5928 185.688 94.1608 185 93.8568 184.232C93.5528 183.448 93.4008 182.616 93.4008 181.736C93.4008 180.856 93.5528 180.024 93.8568 179.24C94.1608 178.456 94.5928 177.768 95.1528 177.176C95.7288 176.568 96.4088 176.096 97.1928 175.76C97.9928 175.408 98.8808 175.232 99.8568 175.232C100.833 175.232 101.713 175.408 102.497 175.76C103.297 176.096 103.977 176.568 104.537 177.176C105.113 177.768 105.553 178.456 105.857 179.24C106.161 180.024 106.313 180.856 106.313 181.736C106.313 182.616 106.161 183.448 105.857 184.232C105.553 185 105.113 185.688 104.537 186.296C103.977 186.904 103.297 187.384 102.497 187.736C101.713 188.072 100.833 188.24 99.8568 188.24ZM96.1128 181.76C96.1128 182.56 96.2808 183.28 96.6168 183.92C96.9528 184.56 97.4008 185.064 97.9608 185.432C98.5208 185.8 99.1528 185.984 99.8568 185.984C100.545 185.984 101.169 185.8 101.729 185.432C102.305 185.048 102.761 184.536 103.097 183.896C103.433 183.24 103.601 182.52 103.601 181.736C103.601 180.936 103.433 180.216 103.097 179.576C102.761 178.936 102.305 178.432 101.729 178.064C101.169 177.68 100.545 177.488 99.8568 177.488C99.1528 177.488 98.5208 177.68 97.9608 178.064C97.4008 178.448 96.9528 178.96 96.6168 179.6C96.2808 180.224 96.1128 180.944 96.1128 181.76ZM113.622 188.12C112.774 188.12 111.998 187.952 111.294 187.616C110.59 187.264 109.982 186.792 109.47 186.2C108.974 185.608 108.582 184.928 108.294 184.16C108.022 183.392 107.886 182.584 107.886 181.736C107.886 180.84 108.03 180 108.318 179.216C108.606 178.432 109.006 177.744 109.518 177.152C110.046 176.544 110.662 176.072 111.366 175.736C112.07 175.4 112.854 175.232 113.718 175.232C114.726 175.232 115.606 175.472 116.358 175.952C117.126 176.432 117.758 177.056 118.254 177.824V175.448H120.582V187.64C120.582 188.856 120.286 189.888 119.694 190.736C119.118 191.584 118.326 192.232 117.318 192.68C116.31 193.128 115.174 193.352 113.91 193.352C112.518 193.352 111.366 193.112 110.454 192.632C109.542 192.152 108.766 191.496 108.126 190.664L109.614 189.272C110.094 189.944 110.71 190.456 111.462 190.808C112.23 191.16 113.046 191.336 113.91 191.336C114.63 191.336 115.294 191.2 115.902 190.928C116.526 190.672 117.022 190.264 117.39 189.704C117.758 189.16 117.942 188.472 117.942 187.64V185.72C117.494 186.472 116.878 187.064 116.094 187.496C115.31 187.912 114.486 188.12 113.622 188.12ZM114.486 185.984C114.886 185.984 115.27 185.92 115.638 185.792C116.006 185.648 116.342 185.464 116.646 185.24C116.966 185 117.238 184.736 117.462 184.448C117.686 184.144 117.846 183.824 117.942 183.488V180.2C117.734 179.656 117.438 179.184 117.054 178.784C116.67 178.368 116.238 178.048 115.758 177.824C115.278 177.6 114.79 177.488 114.294 177.488C113.718 177.488 113.198 177.616 112.734 177.872C112.286 178.112 111.902 178.44 111.582 178.856C111.262 179.256 111.014 179.712 110.838 180.224C110.662 180.736 110.574 181.264 110.574 181.808C110.574 182.384 110.67 182.92 110.862 183.416C111.07 183.912 111.35 184.36 111.702 184.76C112.054 185.144 112.47 185.448 112.95 185.672C113.43 185.88 113.942 185.984 114.486 185.984ZM130.804 177.728C129.78 177.744 128.868 177.976 128.068 178.424C127.284 178.872 126.724 179.504 126.388 180.32V188H123.748V175.448H126.196V178.256C126.628 177.392 127.196 176.704 127.9 176.192C128.604 175.664 129.348 175.376 130.132 175.328C130.292 175.328 130.42 175.328 130.516 175.328C130.628 175.328 130.724 175.336 130.804 175.352V177.728ZM131.789 184.328C131.789 183.528 132.013 182.832 132.461 182.24C132.925 181.632 133.557 181.168 134.357 180.848C135.157 180.512 136.085 180.344 137.141 180.344C137.701 180.344 138.269 180.384 138.845 180.464C139.437 180.544 139.957 180.672 140.405 180.848V180.056C140.405 179.176 140.141 178.488 139.613 177.992C139.085 177.496 138.325 177.248 137.333 177.248C136.629 177.248 135.965 177.376 135.341 177.632C134.717 177.872 134.053 178.216 133.349 178.664L132.461 176.888C133.293 176.328 134.125 175.912 134.957 175.64C135.805 175.368 136.693 175.232 137.621 175.232C139.301 175.232 140.621 175.68 141.581 176.576C142.557 177.456 143.045 178.712 143.045 180.344V185.024C143.045 185.328 143.093 185.544 143.189 185.672C143.301 185.8 143.485 185.872 143.741 185.888V188C143.501 188.048 143.285 188.08 143.093 188.096C142.901 188.112 142.741 188.12 142.613 188.12C142.053 188.12 141.629 187.984 141.341 187.712C141.053 187.44 140.885 187.12 140.837 186.752L140.765 186.032C140.221 186.736 139.525 187.28 138.677 187.664C137.829 188.048 136.973 188.24 136.109 188.24C135.277 188.24 134.533 188.072 133.877 187.736C133.221 187.384 132.709 186.912 132.341 186.32C131.973 185.728 131.789 185.064 131.789 184.328ZM139.781 185.096C139.973 184.888 140.125 184.68 140.237 184.472C140.349 184.264 140.405 184.08 140.405 183.92V182.48C139.957 182.304 139.485 182.176 138.989 182.096C138.493 182 138.005 181.952 137.525 181.952C136.565 181.952 135.781 182.144 135.173 182.528C134.581 182.912 134.285 183.44 134.285 184.112C134.285 184.48 134.381 184.832 134.573 185.168C134.781 185.504 135.069 185.776 135.437 185.984C135.821 186.192 136.293 186.296 136.853 186.296C137.429 186.296 137.981 186.184 138.509 185.96C139.037 185.736 139.461 185.448 139.781 185.096ZM153.376 188.24C152.368 188.24 151.48 188 150.712 187.52C149.944 187.04 149.336 186.416 148.888 185.648V193.112H146.248V175.448H148.576V177.704C149.056 176.952 149.68 176.352 150.448 175.904C151.216 175.456 152.072 175.232 153.016 175.232C153.88 175.232 154.672 175.408 155.392 175.76C156.112 176.096 156.736 176.568 157.264 177.176C157.792 177.784 158.2 178.48 158.488 179.264C158.792 180.032 158.944 180.848 158.944 181.712C158.944 182.912 158.704 184.008 158.224 185C157.76 185.992 157.104 186.784 156.256 187.376C155.424 187.952 154.464 188.24 153.376 188.24ZM152.512 185.984C153.072 185.984 153.576 185.864 154.024 185.624C154.488 185.384 154.88 185.064 155.2 184.664C155.536 184.264 155.792 183.808 155.968 183.296C156.144 182.784 156.232 182.256 156.232 181.712C156.232 181.136 156.136 180.592 155.944 180.08C155.752 179.568 155.472 179.12 155.104 178.736C154.752 178.352 154.336 178.048 153.856 177.824C153.392 177.6 152.88 177.488 152.32 177.488C151.984 177.488 151.632 177.552 151.264 177.68C150.896 177.808 150.552 177.984 150.232 178.208C149.912 178.432 149.632 178.696 149.392 179C149.152 179.304 148.984 179.624 148.888 179.96V183.248C149.112 183.76 149.408 184.224 149.776 184.64C150.144 185.04 150.568 185.368 151.048 185.624C151.528 185.864 152.016 185.984 152.512 185.984ZM172.574 188H169.934V180.968C169.934 179.832 169.726 178.984 169.31 178.424C168.894 177.864 168.31 177.584 167.558 177.584C167.094 177.584 166.614 177.712 166.118 177.968C165.622 178.224 165.182 178.576 164.798 179.024C164.414 179.456 164.134 179.96 163.958 180.536V188H161.318V170.48H163.958V177.968C164.438 177.12 165.094 176.456 165.926 175.976C166.758 175.48 167.654 175.232 168.614 175.232C169.398 175.232 170.046 175.368 170.558 175.64C171.07 175.912 171.47 176.288 171.758 176.768C172.062 177.232 172.27 177.776 172.382 178.4C172.51 179.008 172.574 179.656 172.574 180.344V188ZM175.813 190.952C176.053 190.984 176.285 191.016 176.509 191.048C176.749 191.096 176.941 191.12 177.085 191.12C177.357 191.12 177.589 191.032 177.781 190.856C177.989 190.696 178.197 190.392 178.405 189.944C178.613 189.496 178.869 188.848 179.173 188L174.013 175.448H176.773L180.613 185.312L184.021 175.448H186.565L180.877 190.904C180.701 191.368 180.445 191.792 180.109 192.176C179.773 192.576 179.357 192.888 178.861 193.112C178.365 193.336 177.781 193.448 177.109 193.448C176.917 193.448 176.717 193.432 176.509 193.4C176.301 193.368 176.069 193.32 175.813 193.256V190.952Z" fill="white"/>
<path d="M41.756 211.52C41.756 210.74 41.888 209.978 42.152 209.234C42.428 208.478 42.824 207.794 43.34 207.182C43.856 206.558 44.492 206.066 45.248 205.706C46.004 205.334 46.862 205.148 47.822 205.148C48.962 205.148 49.934 205.412 50.738 205.94C51.554 206.456 52.154 207.122 52.538 207.938L51.548 208.55C51.272 207.986 50.924 207.542 50.504 207.218C50.084 206.882 49.634 206.642 49.154 206.498C48.686 206.354 48.218 206.282 47.75 206.282C46.982 206.282 46.304 206.438 45.716 206.75C45.128 207.05 44.63 207.458 44.222 207.974C43.826 208.478 43.526 209.048 43.322 209.684C43.118 210.308 43.016 210.944 43.016 211.592C43.016 212.3 43.136 212.978 43.376 213.626C43.616 214.274 43.952 214.85 44.384 215.354C44.816 215.846 45.32 216.242 45.896 216.542C46.484 216.83 47.12 216.974 47.804 216.974C48.284 216.974 48.776 216.89 49.28 216.722C49.784 216.554 50.252 216.296 50.684 215.948C51.128 215.6 51.482 215.15 51.746 214.598L52.79 215.138C52.526 215.774 52.118 216.314 51.566 216.758C51.014 217.202 50.396 217.538 49.712 217.766C49.04 217.994 48.38 218.108 47.732 218.108C46.856 218.108 46.052 217.922 45.32 217.55C44.588 217.166 43.952 216.662 43.412 216.038C42.884 215.402 42.476 214.694 42.188 213.914C41.9 213.122 41.756 212.324 41.756 211.52ZM53.9338 215.3C53.9338 214.712 54.1018 214.208 54.4378 213.788C54.7738 213.356 55.2358 213.026 55.8238 212.798C56.4238 212.558 57.1138 212.438 57.8938 212.438C58.3498 212.438 58.8238 212.474 59.3158 212.546C59.8078 212.618 60.2458 212.726 60.6298 212.87V212.078C60.6298 211.286 60.3958 210.656 59.9278 210.188C59.4598 209.72 58.8118 209.486 57.9838 209.486C57.4798 209.486 56.9818 209.582 56.4898 209.774C56.0098 209.954 55.5058 210.224 54.9778 210.584L54.5098 209.72C55.1218 209.3 55.7218 208.988 56.3098 208.784C56.8978 208.568 57.4978 208.46 58.1098 208.46C59.2618 208.46 60.1738 208.79 60.8458 209.45C61.5178 210.11 61.8538 211.022 61.8538 212.186V216.524C61.8538 216.692 61.8898 216.818 61.9618 216.902C62.0338 216.974 62.1478 217.016 62.3038 217.028V218C62.1718 218.012 62.0578 218.024 61.9618 218.036C61.8658 218.048 61.7938 218.048 61.7458 218.036C61.4458 218.024 61.2178 217.928 61.0618 217.748C60.9058 217.568 60.8218 217.376 60.8098 217.172L60.7918 216.488C60.3718 217.028 59.8258 217.448 59.1538 217.748C58.4818 218.036 57.7978 218.18 57.1018 218.18C56.5018 218.18 55.9558 218.054 55.4638 217.802C54.9838 217.538 54.6058 217.19 54.3298 216.758C54.0658 216.314 53.9338 215.828 53.9338 215.3ZM60.2158 216.02C60.3478 215.852 60.4498 215.69 60.5218 215.534C60.5938 215.378 60.6298 215.24 60.6298 215.12V213.752C60.2218 213.596 59.7958 213.476 59.3518 213.392C58.9198 213.308 58.4818 213.266 58.0378 213.266C57.1618 213.266 56.4538 213.44 55.9138 213.788C55.3738 214.136 55.1038 214.61 55.1038 215.21C55.1038 215.558 55.1938 215.888 55.3738 216.2C55.5538 216.5 55.8178 216.752 56.1658 216.956C56.5138 217.148 56.9218 217.244 57.3898 217.244C57.9778 217.244 58.5238 217.13 59.0278 216.902C59.5438 216.674 59.9398 216.38 60.2158 216.02ZM69.2864 218.18C68.5064 218.18 67.8044 217.976 67.1804 217.568C66.5684 217.16 66.0824 216.656 65.7224 216.056V221.834H64.4984V208.622H65.5964V210.44C65.9684 209.852 66.4664 209.378 67.0904 209.018C67.7144 208.646 68.3804 208.46 69.0884 208.46C69.7364 208.46 70.3304 208.598 70.8704 208.874C71.4104 209.138 71.8784 209.498 72.2744 209.954C72.6704 210.41 72.9764 210.932 73.1924 211.52C73.4204 212.096 73.5344 212.696 73.5344 213.32C73.5344 214.196 73.3544 215.006 72.9944 215.75C72.6464 216.482 72.1544 217.07 71.5184 217.514C70.8824 217.958 70.1384 218.18 69.2864 218.18ZM68.9444 217.1C69.4604 217.1 69.9224 216.998 70.3304 216.794C70.7384 216.578 71.0864 216.29 71.3744 215.93C71.6744 215.57 71.9024 215.168 72.0584 214.724C72.2144 214.268 72.2924 213.8 72.2924 213.32C72.2924 212.816 72.2024 212.336 72.0224 211.88C71.8544 211.424 71.6084 211.022 71.2844 210.674C70.9604 210.326 70.5884 210.05 70.1684 209.846C69.7484 209.642 69.2924 209.54 68.8004 209.54C68.4884 209.54 68.1644 209.6 67.8284 209.72C67.4924 209.84 67.1684 210.014 66.8564 210.242C66.5564 210.458 66.3044 210.704 66.1004 210.98C65.8964 211.256 65.7704 211.55 65.7224 211.862V214.742C65.9144 215.186 66.1724 215.588 66.4964 215.948C66.8204 216.296 67.1924 216.578 67.6124 216.794C68.0444 216.998 68.4884 217.1 68.9444 217.1ZM79.9672 217.55C79.8712 217.586 79.7212 217.652 79.5172 217.748C79.3132 217.844 79.0672 217.928 78.7792 218C78.4912 218.072 78.1792 218.108 77.8432 218.108C77.4952 218.108 77.1652 218.042 76.8532 217.91C76.5532 217.778 76.3132 217.58 76.1332 217.316C75.9532 217.04 75.8632 216.704 75.8632 216.308V209.594H74.5672V208.622H75.8632V205.454H77.0872V208.622H79.2472V209.594H77.0872V215.966C77.1112 216.302 77.2312 216.554 77.4472 216.722C77.6752 216.89 77.9332 216.974 78.2212 216.974C78.5572 216.974 78.8632 216.92 79.1392 216.812C79.4152 216.692 79.5832 216.608 79.6432 216.56L79.9672 217.55ZM81.4065 214.13V208.622H82.6305V213.914C82.6305 214.982 82.8105 215.78 83.1705 216.308C83.5425 216.836 84.0885 217.1 84.8085 217.1C85.2885 217.1 85.7505 216.998 86.1945 216.794C86.6505 216.578 87.0525 216.278 87.4005 215.894C87.7485 215.498 88.0125 215.042 88.1925 214.526V208.622H89.4165V216.524C89.4165 216.692 89.4525 216.818 89.5245 216.902C89.5965 216.974 89.7045 217.016 89.8485 217.028V218C89.7045 218.012 89.5905 218.018 89.5065 218.018C89.4225 218.03 89.3445 218.036 89.2725 218.036C89.0325 218.012 88.8225 217.916 88.6425 217.748C88.4745 217.58 88.3845 217.376 88.3725 217.136L88.3365 215.876C87.9285 216.596 87.3705 217.16 86.6625 217.568C85.9665 217.976 85.2105 218.18 84.3945 218.18C83.4105 218.18 82.6665 217.838 82.1625 217.154C81.6585 216.47 81.4065 215.462 81.4065 214.13ZM96.864 209.702C96.048 209.726 95.328 209.954 94.704 210.386C94.092 210.818 93.66 211.412 93.408 212.168V218H92.184V208.622H93.336V210.872C93.66 210.212 94.086 209.678 94.614 209.27C95.154 208.862 95.724 208.634 96.324 208.586C96.444 208.574 96.546 208.568 96.63 208.568C96.726 208.568 96.804 208.574 96.864 208.586V209.702ZM102.246 218.18C101.574 218.18 100.95 218.054 100.374 217.802C99.7977 217.538 99.2997 217.184 98.8797 216.74C98.4597 216.284 98.1297 215.762 97.8897 215.174C97.6617 214.586 97.5477 213.956 97.5477 213.284C97.5477 212.408 97.7457 211.604 98.1417 210.872C98.5497 210.14 99.1077 209.558 99.8157 209.126C100.524 208.682 101.328 208.46 102.228 208.46C103.152 208.46 103.956 208.682 104.64 209.126C105.336 209.57 105.882 210.158 106.278 210.89C106.674 211.61 106.872 212.402 106.872 213.266C106.872 213.362 106.872 213.458 106.872 213.554C106.872 213.638 106.866 213.704 106.854 213.752H98.8257C98.8857 214.424 99.0717 215.024 99.3837 215.552C99.7077 216.068 100.122 216.482 100.626 216.794C101.142 217.094 101.7 217.244 102.3 217.244C102.912 217.244 103.488 217.088 104.028 216.776C104.58 216.464 104.964 216.056 105.18 215.552L106.242 215.84C106.05 216.284 105.756 216.686 105.36 217.046C104.964 217.406 104.496 217.688 103.956 217.892C103.428 218.084 102.858 218.18 102.246 218.18ZM98.7897 212.87H105.72C105.672 212.186 105.486 211.586 105.162 211.07C104.85 210.554 104.436 210.152 103.92 209.864C103.416 209.564 102.858 209.414 102.246 209.414C101.634 209.414 101.076 209.564 100.572 209.864C100.068 210.152 99.6537 210.56 99.3297 211.088C99.0177 211.604 98.8377 212.198 98.7897 212.87ZM113.396 220.88C113.564 220.892 113.726 220.898 113.882 220.898C114.038 220.91 114.152 220.904 114.224 220.88C114.368 220.856 114.506 220.772 114.638 220.628C114.77 220.484 114.926 220.208 115.106 219.8C115.286 219.392 115.538 218.792 115.862 218L111.776 208.622H113.072L116.51 216.74L119.678 208.622H120.902L116.042 220.718C115.958 220.946 115.832 221.156 115.664 221.348C115.496 221.552 115.286 221.708 115.034 221.816C114.794 221.936 114.494 222.002 114.134 222.014C114.026 222.026 113.912 222.026 113.792 222.014C113.684 222.014 113.552 222.002 113.396 221.978V220.88ZM126.274 218.18C125.602 218.18 124.978 218.054 124.402 217.802C123.838 217.538 123.346 217.184 122.926 216.74C122.518 216.284 122.2 215.768 121.972 215.192C121.744 214.604 121.63 213.986 121.63 213.338C121.63 212.666 121.744 212.042 121.972 211.466C122.2 210.878 122.524 210.362 122.944 209.918C123.364 209.462 123.856 209.108 124.42 208.856C124.996 208.592 125.62 208.46 126.292 208.46C126.964 208.46 127.582 208.592 128.146 208.856C128.71 209.108 129.202 209.462 129.622 209.918C130.042 210.362 130.366 210.878 130.594 211.466C130.822 212.042 130.936 212.666 130.936 213.338C130.936 213.986 130.822 214.604 130.594 215.192C130.366 215.768 130.042 216.284 129.622 216.74C129.214 217.184 128.722 217.538 128.146 217.802C127.582 218.054 126.958 218.18 126.274 218.18ZM122.872 213.356C122.872 214.052 123.022 214.688 123.322 215.264C123.634 215.828 124.048 216.278 124.564 216.614C125.08 216.938 125.65 217.1 126.274 217.1C126.898 217.1 127.468 216.932 127.984 216.596C128.5 216.26 128.914 215.804 129.226 215.228C129.538 214.64 129.694 214.004 129.694 213.32C129.694 212.624 129.538 211.988 129.226 211.412C128.914 210.836 128.5 210.38 127.984 210.044C127.468 209.708 126.898 209.54 126.274 209.54C125.65 209.54 125.08 209.714 124.564 210.062C124.06 210.41 123.652 210.872 123.34 211.448C123.028 212.012 122.872 212.648 122.872 213.356ZM132.893 214.13V208.622H134.117V213.914C134.117 214.982 134.297 215.78 134.657 216.308C135.029 216.836 135.575 217.1 136.295 217.1C136.775 217.1 137.237 216.998 137.681 216.794C138.137 216.578 138.539 216.278 138.887 215.894C139.235 215.498 139.499 215.042 139.679 214.526V208.622H140.903V216.524C140.903 216.692 140.939 216.818 141.011 216.902C141.083 216.974 141.191 217.016 141.335 217.028V218C141.191 218.012 141.077 218.018 140.993 218.018C140.909 218.03 140.831 218.036 140.759 218.036C140.519 218.012 140.309 217.916 140.129 217.748C139.961 217.58 139.871 217.376 139.859 217.136L139.823 215.876C139.415 216.596 138.857 217.16 138.149 217.568C137.453 217.976 136.697 218.18 135.881 218.18C134.897 218.18 134.153 217.838 133.649 217.154C133.145 216.47 132.893 215.462 132.893 214.13ZM148.35 209.702C147.534 209.726 146.814 209.954 146.19 210.386C145.578 210.818 145.146 211.412 144.894 212.168V218H143.67V208.622H144.822V210.872C145.146 210.212 145.572 209.678 146.1 209.27C146.64 208.862 147.21 208.634 147.81 208.586C147.93 208.574 148.032 208.568 148.116 208.568C148.212 208.568 148.29 208.574 148.35 208.586V209.702ZM168.097 218H166.873V212.762C166.873 211.67 166.699 210.866 166.351 210.35C166.003 209.834 165.487 209.576 164.803 209.576C164.095 209.576 163.459 209.828 162.895 210.332C162.343 210.836 161.953 211.484 161.725 212.276V218H160.501V212.762C160.501 211.658 160.333 210.854 159.997 210.35C159.661 209.834 159.145 209.576 158.449 209.576C157.753 209.576 157.123 209.822 156.559 210.314C155.995 210.806 155.599 211.454 155.371 212.258V218H154.147V208.622H155.263V210.746C155.659 210.014 156.163 209.45 156.775 209.054C157.399 208.658 158.089 208.46 158.845 208.46C159.625 208.46 160.255 208.682 160.735 209.126C161.215 209.57 161.509 210.152 161.617 210.872C162.049 210.08 162.565 209.48 163.165 209.072C163.777 208.664 164.467 208.46 165.235 208.46C165.763 208.46 166.207 208.556 166.567 208.748C166.939 208.94 167.233 209.216 167.449 209.576C167.677 209.924 167.839 210.35 167.935 210.854C168.043 211.346 168.097 211.898 168.097 212.51V218ZM174.684 218.18C174.012 218.18 173.388 218.054 172.812 217.802C172.248 217.538 171.756 217.184 171.336 216.74C170.928 216.284 170.61 215.768 170.382 215.192C170.154 214.604 170.04 213.986 170.04 213.338C170.04 212.666 170.154 212.042 170.382 211.466C170.61 210.878 170.934 210.362 171.354 209.918C171.774 209.462 172.266 209.108 172.83 208.856C173.406 208.592 174.03 208.46 174.702 208.46C175.374 208.46 175.992 208.592 176.556 208.856C177.12 209.108 177.612 209.462 178.032 209.918C178.452 210.362 178.776 210.878 179.004 211.466C179.232 212.042 179.346 212.666 179.346 213.338C179.346 213.986 179.232 214.604 179.004 215.192C178.776 215.768 178.452 216.284 178.032 216.74C177.624 217.184 177.132 217.538 176.556 217.802C175.992 218.054 175.368 218.18 174.684 218.18ZM171.282 213.356C171.282 214.052 171.432 214.688 171.732 215.264C172.044 215.828 172.458 216.278 172.974 216.614C173.49 216.938 174.06 217.1 174.684 217.1C175.308 217.1 175.878 216.932 176.394 216.596C176.91 216.26 177.324 215.804 177.636 215.228C177.948 214.64 178.104 214.004 178.104 213.32C178.104 212.624 177.948 211.988 177.636 211.412C177.324 210.836 176.91 210.38 176.394 210.044C175.878 209.708 175.308 209.54 174.684 209.54C174.06 209.54 173.49 209.714 172.974 210.062C172.47 210.41 172.062 210.872 171.75 211.448C171.438 212.012 171.282 212.648 171.282 213.356ZM195.343 218H194.119V212.762C194.119 211.67 193.945 210.866 193.597 210.35C193.249 209.834 192.733 209.576 192.049 209.576C191.341 209.576 190.705 209.828 190.141 210.332C189.589 210.836 189.199 211.484 188.971 212.276V218H187.747V212.762C187.747 211.658 187.579 210.854 187.243 210.35C186.907 209.834 186.391 209.576 185.695 209.576C184.999 209.576 184.369 209.822 183.805 210.314C183.241 210.806 182.845 211.454 182.617 212.258V218H181.393V208.622H182.509V210.746C182.905 210.014 183.409 209.45 184.021 209.054C184.645 208.658 185.335 208.46 186.091 208.46C186.871 208.46 187.501 208.682 187.981 209.126C188.461 209.57 188.755 210.152 188.863 210.872C189.295 210.08 189.811 209.48 190.411 209.072C191.023 208.664 191.713 208.46 192.481 208.46C193.009 208.46 193.453 208.556 193.813 208.748C194.185 208.94 194.479 209.216 194.695 209.576C194.923 209.924 195.085 210.35 195.181 210.854C195.289 211.346 195.343 211.898 195.343 212.51V218ZM201.984 218.18C201.312 218.18 200.688 218.054 200.112 217.802C199.536 217.538 199.038 217.184 198.618 216.74C198.198 216.284 197.868 215.762 197.628 215.174C197.4 214.586 197.286 213.956 197.286 213.284C197.286 212.408 197.484 211.604 197.88 210.872C198.288 210.14 198.846 209.558 199.554 209.126C200.262 208.682 201.066 208.46 201.966 208.46C202.89 208.46 203.694 208.682 204.378 209.126C205.074 209.57 205.62 210.158 206.016 210.89C206.412 211.61 206.61 212.402 206.61 213.266C206.61 213.362 206.61 213.458 206.61 213.554C206.61 213.638 206.604 213.704 206.592 213.752H198.564C198.624 214.424 198.81 215.024 199.122 215.552C199.446 216.068 199.86 216.482 200.364 216.794C200.88 217.094 201.438 217.244 202.038 217.244C202.65 217.244 203.226 217.088 203.766 216.776C204.318 216.464 204.702 216.056 204.918 215.552L205.98 215.84C205.788 216.284 205.494 216.686 205.098 217.046C204.702 217.406 204.234 217.688 203.694 217.892C203.166 218.084 202.596 218.18 201.984 218.18ZM198.528 212.87H205.458C205.41 212.186 205.224 211.586 204.9 211.07C204.588 210.554 204.174 210.152 203.658 209.864C203.154 209.564 202.596 209.414 201.984 209.414C201.372 209.414 200.814 209.564 200.31 209.864C199.806 210.152 199.392 210.56 199.068 211.088C198.756 211.604 198.576 212.198 198.528 212.87ZM216.382 218H215.158V212.762C215.158 211.658 214.996 210.854 214.672 210.35C214.348 209.834 213.838 209.576 213.142 209.576C212.662 209.576 212.188 209.696 211.72 209.936C211.252 210.164 210.838 210.482 210.478 210.89C210.13 211.286 209.878 211.742 209.722 212.258V218H208.498V208.622H209.614V210.746C209.866 210.29 210.196 209.894 210.604 209.558C211.012 209.21 211.474 208.94 211.99 208.748C212.506 208.556 213.04 208.46 213.592 208.46C214.108 208.46 214.546 208.556 214.906 208.748C215.266 208.94 215.554 209.216 215.77 209.576C215.986 209.924 216.142 210.35 216.238 210.854C216.334 211.346 216.382 211.898 216.382 212.51V218ZM223.405 217.55C223.309 217.586 223.159 217.652 222.955 217.748C222.751 217.844 222.505 217.928 222.217 218C221.929 218.072 221.617 218.108 221.281 218.108C220.933 218.108 220.603 218.042 220.291 217.91C219.991 217.778 219.751 217.58 219.571 217.316C219.391 217.04 219.301 216.704 219.301 216.308V209.594H218.005V208.622H219.301V205.454H220.525V208.622H222.685V209.594H220.525V215.966C220.549 216.302 220.669 216.554 220.885 216.722C221.113 216.89 221.371 216.974 221.659 216.974C221.995 216.974 222.301 216.92 222.577 216.812C222.853 216.692 223.021 216.608 223.081 216.56L223.405 217.55ZM228.012 218.18C227.244 218.18 226.53 218.054 225.87 217.802C225.21 217.55 224.64 217.166 224.16 216.65L224.664 215.786C225.192 216.278 225.72 216.638 226.248 216.866C226.788 217.082 227.358 217.19 227.958 217.19C228.69 217.19 229.284 217.046 229.74 216.758C230.196 216.458 230.424 216.032 230.424 215.48C230.424 215.108 230.31 214.826 230.082 214.634C229.866 214.43 229.548 214.268 229.128 214.148C228.72 214.016 228.228 213.878 227.652 213.734C227.004 213.554 226.458 213.368 226.014 213.176C225.582 212.972 225.252 212.72 225.024 212.42C224.808 212.108 224.7 211.706 224.7 211.214C224.7 210.602 224.85 210.098 225.15 209.702C225.462 209.294 225.882 208.988 226.41 208.784C226.95 208.568 227.55 208.46 228.21 208.46C228.93 208.46 229.566 208.574 230.118 208.802C230.67 209.03 231.12 209.348 231.468 209.756L230.874 210.584C230.538 210.2 230.136 209.918 229.668 209.738C229.212 209.546 228.702 209.45 228.138 209.45C227.754 209.45 227.388 209.504 227.04 209.612C226.692 209.708 226.404 209.876 226.176 210.116C225.96 210.344 225.852 210.662 225.852 211.07C225.852 211.406 225.936 211.67 226.104 211.862C226.272 212.042 226.524 212.198 226.86 212.33C227.196 212.45 227.61 212.582 228.102 212.726C228.81 212.918 229.428 213.116 229.956 213.32C230.484 213.512 230.892 213.764 231.18 214.076C231.468 214.388 231.612 214.826 231.612 215.39C231.612 216.266 231.282 216.95 230.622 217.442C229.962 217.934 229.092 218.18 228.012 218.18ZM46.94 239.18C46.208 239.18 45.53 238.994 44.906 238.622C44.282 238.238 43.796 237.758 43.448 237.182V239H42.35V225.86H43.574V231.584C43.994 230.948 44.498 230.438 45.086 230.054C45.674 229.658 46.358 229.46 47.138 229.46C47.798 229.46 48.386 229.598 48.902 229.874C49.43 230.15 49.88 230.522 50.252 230.99C50.624 231.446 50.906 231.968 51.098 232.556C51.29 233.132 51.386 233.726 51.386 234.338C51.386 234.998 51.272 235.616 51.044 236.192C50.828 236.768 50.516 237.284 50.108 237.74C49.7 238.184 49.226 238.538 48.686 238.802C48.158 239.054 47.576 239.18 46.94 239.18ZM46.652 238.1C47.156 238.1 47.624 237.998 48.056 237.794C48.488 237.59 48.86 237.308 49.172 236.948C49.484 236.588 49.724 236.186 49.892 235.742C50.06 235.286 50.144 234.818 50.144 234.338C50.144 233.678 50 233.06 49.712 232.484C49.436 231.896 49.046 231.428 48.542 231.08C48.05 230.72 47.468 230.54 46.796 230.54C46.316 230.54 45.866 230.648 45.446 230.864C45.038 231.08 44.672 231.368 44.348 231.728C44.036 232.076 43.778 232.46 43.574 232.88V235.796C43.622 236.12 43.748 236.426 43.952 236.714C44.156 236.99 44.408 237.23 44.708 237.434C45.02 237.638 45.344 237.8 45.68 237.92C46.016 238.04 46.34 238.1 46.652 238.1ZM57.5094 239.18C56.8374 239.18 56.2134 239.054 55.6374 238.802C55.0614 238.538 54.5634 238.184 54.1434 237.74C53.7234 237.284 53.3934 236.762 53.1534 236.174C52.9254 235.586 52.8114 234.956 52.8114 234.284C52.8114 233.408 53.0094 232.604 53.4054 231.872C53.8134 231.14 54.3714 230.558 55.0794 230.126C55.7874 229.682 56.5914 229.46 57.4914 229.46C58.4154 229.46 59.2194 229.682 59.9034 230.126C60.5994 230.57 61.1454 231.158 61.5414 231.89C61.9374 232.61 62.1354 233.402 62.1354 234.266C62.1354 234.362 62.1354 234.458 62.1354 234.554C62.1354 234.638 62.1294 234.704 62.1174 234.752H54.0894C54.1494 235.424 54.3354 236.024 54.6474 236.552C54.9714 237.068 55.3854 237.482 55.8894 237.794C56.4054 238.094 56.9634 238.244 57.5634 238.244C58.1754 238.244 58.7514 238.088 59.2914 237.776C59.8434 237.464 60.2274 237.056 60.4434 236.552L61.5054 236.84C61.3134 237.284 61.0194 237.686 60.6234 238.046C60.2274 238.406 59.7594 238.688 59.2194 238.892C58.6914 239.084 58.1214 239.18 57.5094 239.18ZM54.0534 233.87H60.9834C60.9354 233.186 60.7494 232.586 60.4254 232.07C60.1134 231.554 59.6994 231.152 59.1834 230.864C58.6794 230.564 58.1214 230.414 57.5094 230.414C56.8974 230.414 56.3394 230.564 55.8354 230.864C55.3314 231.152 54.9174 231.56 54.5934 232.088C54.2814 232.604 54.1014 233.198 54.0534 233.87ZM63.2678 236.3C63.2678 235.712 63.4358 235.208 63.7718 234.788C64.1078 234.356 64.5698 234.026 65.1578 233.798C65.7578 233.558 66.4478 233.438 67.2278 233.438C67.6838 233.438 68.1578 233.474 68.6498 233.546C69.1418 233.618 69.5798 233.726 69.9638 233.87V233.078C69.9638 232.286 69.7298 231.656 69.2618 231.188C68.7938 230.72 68.1458 230.486 67.3178 230.486C66.8138 230.486 66.3158 230.582 65.8238 230.774C65.3438 230.954 64.8398 231.224 64.3118 231.584L63.8438 230.72C64.4558 230.3 65.0558 229.988 65.6438 229.784C66.2318 229.568 66.8318 229.46 67.4438 229.46C68.5958 229.46 69.5078 229.79 70.1798 230.45C70.8518 231.11 71.1878 232.022 71.1878 233.186V237.524C71.1878 237.692 71.2238 237.818 71.2958 237.902C71.3678 237.974 71.4818 238.016 71.6378 238.028V239C71.5058 239.012 71.3918 239.024 71.2958 239.036C71.1998 239.048 71.1278 239.048 71.0798 239.036C70.7798 239.024 70.5518 238.928 70.3958 238.748C70.2398 238.568 70.1558 238.376 70.1438 238.172L70.1258 237.488C69.7058 238.028 69.1598 238.448 68.4878 238.748C67.8158 239.036 67.1318 239.18 66.4358 239.18C65.8358 239.18 65.2898 239.054 64.7978 238.802C64.3178 238.538 63.9398 238.19 63.6638 237.758C63.3998 237.314 63.2678 236.828 63.2678 236.3ZM69.5498 237.02C69.6818 236.852 69.7838 236.69 69.8558 236.534C69.9278 236.378 69.9638 236.24 69.9638 236.12V234.752C69.5558 234.596 69.1298 234.476 68.6858 234.392C68.2538 234.308 67.8158 234.266 67.3718 234.266C66.4958 234.266 65.7878 234.44 65.2478 234.788C64.7078 235.136 64.4378 235.61 64.4378 236.21C64.4378 236.558 64.5278 236.888 64.7078 237.2C64.8878 237.5 65.1518 237.752 65.4998 237.956C65.8478 238.148 66.2558 238.244 66.7238 238.244C67.3118 238.244 67.8578 238.13 68.3618 237.902C68.8778 237.674 69.2738 237.38 69.5498 237.02ZM73.7424 235.13V229.622H74.9664V234.914C74.9664 235.982 75.1464 236.78 75.5064 237.308C75.8784 237.836 76.4244 238.1 77.1444 238.1C77.6244 238.1 78.0864 237.998 78.5304 237.794C78.9864 237.578 79.3884 237.278 79.7364 236.894C80.0844 236.498 80.3484 236.042 80.5284 235.526V229.622H81.7524V237.524C81.7524 237.692 81.7884 237.818 81.8604 237.902C81.9324 237.974 82.0404 238.016 82.1844 238.028V239C82.0404 239.012 81.9264 239.018 81.8424 239.018C81.7584 239.03 81.6804 239.036 81.6084 239.036C81.3684 239.012 81.1584 238.916 80.9784 238.748C80.8104 238.58 80.7204 238.376 80.7084 238.136L80.6724 236.876C80.2644 237.596 79.7064 238.16 78.9984 238.568C78.3024 238.976 77.5464 239.18 76.7304 239.18C75.7464 239.18 75.0024 238.838 74.4984 238.154C73.9944 237.47 73.7424 236.462 73.7424 235.13ZM89.0199 238.55C88.9239 238.586 88.7739 238.652 88.5699 238.748C88.3659 238.844 88.1199 238.928 87.8319 239C87.5439 239.072 87.2319 239.108 86.8959 239.108C86.5479 239.108 86.2179 239.042 85.9059 238.91C85.6059 238.778 85.3659 238.58 85.1859 238.316C85.0059 238.04 84.9159 237.704 84.9159 237.308V230.594H83.6199V229.622H84.9159V226.454H86.1399V229.622H88.2999V230.594H86.1399V236.966C86.1639 237.302 86.2839 237.554 86.4999 237.722C86.7279 237.89 86.9859 237.974 87.2739 237.974C87.6099 237.974 87.9159 237.92 88.1919 237.812C88.4679 237.692 88.6359 237.608 88.6959 237.56L89.0199 238.55ZM90.5492 239V229.622H91.7732V239H90.5492ZM90.5492 227.66V225.86H91.7732V227.66H90.5492ZM94.9191 239V230.594H93.6231V229.622H94.9191V229.37C94.9191 228.602 95.0271 227.942 95.2431 227.39C95.4711 226.838 95.7891 226.418 96.1971 226.13C96.6171 225.83 97.1091 225.68 97.6731 225.68C98.0451 225.68 98.4051 225.734 98.7531 225.842C99.1011 225.95 99.4011 226.094 99.6531 226.274L99.2751 227.156C99.1191 227.024 98.9151 226.922 98.6631 226.85C98.4111 226.778 98.1591 226.742 97.9071 226.742C97.3431 226.742 96.9051 226.964 96.5931 227.408C96.2931 227.852 96.1431 228.494 96.1431 229.334V229.622H98.7351V230.594H96.1431V239H94.9191ZM100.321 235.13V229.622H101.545V234.914C101.545 235.982 101.725 236.78 102.085 237.308C102.457 237.836 103.003 238.1 103.723 238.1C104.203 238.1 104.665 237.998 105.109 237.794C105.565 237.578 105.967 237.278 106.315 236.894C106.663 236.498 106.927 236.042 107.107 235.526V229.622H108.331V237.524C108.331 237.692 108.367 237.818 108.439 237.902C108.511 237.974 108.619 238.016 108.763 238.028V239C108.619 239.012 108.505 239.018 108.421 239.018C108.337 239.03 108.259 239.036 108.187 239.036C107.947 239.012 107.737 238.916 107.557 238.748C107.389 238.58 107.299 238.376 107.287 238.136L107.251 236.876C106.843 237.596 106.285 238.16 105.577 238.568C104.881 238.976 104.125 239.18 103.309 239.18C102.325 239.18 101.581 238.838 101.077 238.154C100.573 237.47 100.321 236.462 100.321 235.13ZM111.152 225.86H112.376V236.876C112.376 237.344 112.46 237.65 112.628 237.794C112.796 237.938 113 238.01 113.24 238.01C113.456 238.01 113.672 237.986 113.888 237.938C114.104 237.89 114.29 237.842 114.446 237.794L114.662 238.784C114.434 238.88 114.152 238.958 113.816 239.018C113.492 239.078 113.21 239.108 112.97 239.108C112.418 239.108 111.974 238.946 111.638 238.622C111.314 238.298 111.152 237.854 111.152 237.29V225.86ZM116.056 225.86H117.28V236.876C117.28 237.344 117.364 237.65 117.532 237.794C117.7 237.938 117.904 238.01 118.144 238.01C118.36 238.01 118.576 237.986 118.792 237.938C119.008 237.89 119.194 237.842 119.35 237.794L119.566 238.784C119.338 238.88 119.056 238.958 118.72 239.018C118.396 239.078 118.114 239.108 117.874 239.108C117.322 239.108 116.878 238.946 116.542 238.622C116.218 238.298 116.056 237.854 116.056 237.29V225.86ZM121.148 241.88C121.316 241.892 121.478 241.898 121.634 241.898C121.79 241.91 121.904 241.904 121.976 241.88C122.12 241.856 122.258 241.772 122.39 241.628C122.522 241.484 122.678 241.208 122.858 240.8C123.038 240.392 123.29 239.792 123.614 239L119.528 229.622H120.824L124.262 237.74L127.43 229.622H128.654L123.794 241.718C123.71 241.946 123.584 242.156 123.416 242.348C123.248 242.552 123.038 242.708 122.786 242.816C122.546 242.936 122.246 243.002 121.886 243.014C121.778 243.026 121.664 243.026 121.544 243.014C121.436 243.014 121.304 243.002 121.148 242.978V241.88ZM145.758 229.622H146.964L142.932 239H141.87L139.908 234.338L137.964 239H136.902L132.87 229.622H134.058L137.478 237.74L139.206 233.51L137.622 229.64H138.72L139.908 232.682L141.114 229.64H142.194L140.628 233.51L142.356 237.74L145.758 229.622ZM148.592 239V229.622H149.816V239H148.592ZM148.592 227.66V225.86H149.816V227.66H148.592ZM157.012 238.55C156.916 238.586 156.766 238.652 156.562 238.748C156.358 238.844 156.112 238.928 155.824 239C155.536 239.072 155.224 239.108 154.888 239.108C154.54 239.108 154.21 239.042 153.898 238.91C153.598 238.778 153.358 238.58 153.178 238.316C152.998 238.04 152.908 237.704 152.908 237.308V230.594H151.612V229.622H152.908V226.454H154.132V229.622H156.292V230.594H154.132V236.966C154.156 237.302 154.276 237.554 154.492 237.722C154.72 237.89 154.978 237.974 155.266 237.974C155.602 237.974 155.908 237.92 156.184 237.812C156.46 237.692 156.628 237.608 156.688 237.56L157.012 238.55ZM166.425 239H165.201V233.762C165.201 232.706 165.015 231.914 164.643 231.386C164.271 230.846 163.737 230.576 163.041 230.576C162.585 230.576 162.129 230.696 161.673 230.936C161.229 231.164 160.833 231.482 160.485 231.89C160.149 232.286 159.909 232.742 159.765 233.258V239H158.541V225.86H159.765V231.746C160.137 231.05 160.653 230.498 161.313 230.09C161.985 229.67 162.699 229.46 163.455 229.46C163.995 229.46 164.451 229.556 164.823 229.748C165.207 229.94 165.513 230.222 165.741 230.594C165.981 230.954 166.155 231.38 166.263 231.872C166.371 232.352 166.425 232.898 166.425 233.51V239ZM47.138 260.18C46.358 260.18 45.656 259.976 45.032 259.568C44.42 259.16 43.934 258.656 43.574 258.056V263.834H42.35V250.622H43.448V252.44C43.82 251.852 44.318 251.378 44.942 251.018C45.566 250.646 46.232 250.46 46.94 250.46C47.588 250.46 48.182 250.598 48.722 250.874C49.262 251.138 49.73 251.498 50.126 251.954C50.522 252.41 50.828 252.932 51.044 253.52C51.272 254.096 51.386 254.696 51.386 255.32C51.386 256.196 51.206 257.006 50.846 257.75C50.498 258.482 50.006 259.07 49.37 259.514C48.734 259.958 47.99 260.18 47.138 260.18ZM46.796 259.1C47.312 259.1 47.774 258.998 48.182 258.794C48.59 258.578 48.938 258.29 49.226 257.93C49.526 257.57 49.754 257.168 49.91 256.724C50.066 256.268 50.144 255.8 50.144 255.32C50.144 254.816 50.054 254.336 49.874 253.88C49.706 253.424 49.46 253.022 49.136 252.674C48.812 252.326 48.44 252.05 48.02 251.846C47.6 251.642 47.144 251.54 46.652 251.54C46.34 251.54 46.016 251.6 45.68 251.72C45.344 251.84 45.02 252.014 44.708 252.242C44.408 252.458 44.156 252.704 43.952 252.98C43.748 253.256 43.622 253.55 43.574 253.862V256.742C43.766 257.186 44.024 257.588 44.348 257.948C44.672 258.296 45.044 258.578 45.464 258.794C45.896 258.998 46.34 259.1 46.796 259.1ZM58.1394 251.702C57.3234 251.726 56.6034 251.954 55.9794 252.386C55.3674 252.818 54.9354 253.412 54.6834 254.168V260H53.4594V250.622H54.6114V252.872C54.9354 252.212 55.3614 251.678 55.8894 251.27C56.4294 250.862 56.9994 250.634 57.5994 250.586C57.7194 250.574 57.8214 250.568 57.9054 250.568C58.0014 250.568 58.0794 250.574 58.1394 250.586V251.702ZM63.4671 260.18C62.7951 260.18 62.1711 260.054 61.5951 259.802C61.0311 259.538 60.5391 259.184 60.1191 258.74C59.7111 258.284 59.3931 257.768 59.1651 257.192C58.9371 256.604 58.8231 255.986 58.8231 255.338C58.8231 254.666 58.9371 254.042 59.1651 253.466C59.3931 252.878 59.7171 252.362 60.1371 251.918C60.5571 251.462 61.0491 251.108 61.6131 250.856C62.1891 250.592 62.8131 250.46 63.4851 250.46C64.1571 250.46 64.7751 250.592 65.3391 250.856C65.9031 251.108 66.3951 251.462 66.8151 251.918C67.2351 252.362 67.5591 252.878 67.7871 253.466C68.0151 254.042 68.1291 254.666 68.1291 255.338C68.1291 255.986 68.0151 256.604 67.7871 257.192C67.5591 257.768 67.2351 258.284 66.8151 258.74C66.4071 259.184 65.9151 259.538 65.3391 259.802C64.7751 260.054 64.1511 260.18 63.4671 260.18ZM60.0651 255.356C60.0651 256.052 60.2151 256.688 60.5151 257.264C60.8271 257.828 61.2411 258.278 61.7571 258.614C62.2731 258.938 62.8431 259.1 63.4671 259.1C64.0911 259.1 64.6611 258.932 65.1771 258.596C65.6931 258.26 66.1071 257.804 66.4191 257.228C66.7311 256.64 66.8871 256.004 66.8871 255.32C66.8871 254.624 66.7311 253.988 66.4191 253.412C66.1071 252.836 65.6931 252.38 65.1771 252.044C64.6611 251.708 64.0911 251.54 63.4671 251.54C62.8431 251.54 62.2731 251.714 61.7571 252.062C61.2531 252.41 60.8451 252.872 60.5331 253.448C60.2211 254.012 60.0651 254.648 60.0651 255.356ZM70.468 260V251.594H69.172V250.622H70.468V250.37C70.468 249.602 70.576 248.942 70.792 248.39C71.02 247.838 71.338 247.418 71.746 247.13C72.166 246.83 72.658 246.68 73.222 246.68C73.594 246.68 73.954 246.734 74.302 246.842C74.65 246.95 74.95 247.094 75.202 247.274L74.824 248.156C74.668 248.024 74.464 247.922 74.212 247.85C73.96 247.778 73.708 247.742 73.456 247.742C72.892 247.742 72.454 247.964 72.142 248.408C71.842 248.852 71.692 249.494 71.692 250.334V250.622H74.284V251.594H71.692V260H70.468ZM79.7105 260.18C79.0385 260.18 78.4145 260.054 77.8385 259.802C77.2625 259.538 76.7645 259.184 76.3445 258.74C75.9245 258.284 75.5945 257.762 75.3545 257.174C75.1265 256.586 75.0125 255.956 75.0125 255.284C75.0125 254.408 75.2105 253.604 75.6065 252.872C76.0145 252.14 76.5725 251.558 77.2805 251.126C77.9885 250.682 78.7925 250.46 79.6925 250.46C80.6165 250.46 81.4205 250.682 82.1045 251.126C82.8005 251.57 83.3465 252.158 83.7425 252.89C84.1385 253.61 84.3365 254.402 84.3365 255.266C84.3365 255.362 84.3365 255.458 84.3365 255.554C84.3365 255.638 84.3305 255.704 84.3185 255.752H76.2905C76.3505 256.424 76.5365 257.024 76.8485 257.552C77.1725 258.068 77.5865 258.482 78.0905 258.794C78.6065 259.094 79.1645 259.244 79.7645 259.244C80.3765 259.244 80.9525 259.088 81.4925 258.776C82.0445 258.464 82.4285 258.056 82.6445 257.552L83.7065 257.84C83.5145 258.284 83.2205 258.686 82.8245 259.046C82.4285 259.406 81.9605 259.688 81.4205 259.892C80.8925 260.084 80.3225 260.18 79.7105 260.18ZM76.2545 254.87H83.1845C83.1365 254.186 82.9505 253.586 82.6265 253.07C82.3145 252.554 81.9005 252.152 81.3845 251.864C80.8805 251.564 80.3225 251.414 79.7105 251.414C79.0985 251.414 78.5405 251.564 78.0365 251.864C77.5325 252.152 77.1185 252.56 76.7945 253.088C76.4825 253.604 76.3025 254.198 76.2545 254.87ZM89.303 260.18C88.535 260.18 87.821 260.054 87.161 259.802C86.501 259.55 85.931 259.166 85.451 258.65L85.955 257.786C86.483 258.278 87.011 258.638 87.539 258.866C88.079 259.082 88.649 259.19 89.249 259.19C89.981 259.19 90.575 259.046 91.031 258.758C91.487 258.458 91.715 258.032 91.715 257.48C91.715 257.108 91.601 256.826 91.373 256.634C91.157 256.43 90.839 256.268 90.419 256.148C90.011 256.016 89.519 255.878 88.943 255.734C88.295 255.554 87.749 255.368 87.305 255.176C86.873 254.972 86.543 254.72 86.315 254.42C86.099 254.108 85.991 253.706 85.991 253.214C85.991 252.602 86.141 252.098 86.441 251.702C86.753 251.294 87.173 250.988 87.701 250.784C88.241 250.568 88.841 250.46 89.501 250.46C90.221 250.46 90.857 250.574 91.409 250.802C91.961 251.03 92.411 251.348 92.759 251.756L92.165 252.584C91.829 252.2 91.427 251.918 90.959 251.738C90.503 251.546 89.993 251.45 89.429 251.45C89.045 251.45 88.679 251.504 88.331 251.612C87.983 251.708 87.695 251.876 87.467 252.116C87.251 252.344 87.143 252.662 87.143 253.07C87.143 253.406 87.227 253.67 87.395 253.862C87.563 254.042 87.815 254.198 88.151 254.33C88.487 254.45 88.901 254.582 89.393 254.726C90.101 254.918 90.719 255.116 91.247 255.32C91.775 255.512 92.183 255.764 92.471 256.076C92.759 256.388 92.903 256.826 92.903 257.39C92.903 258.266 92.573 258.95 91.913 259.442C91.253 259.934 90.383 260.18 89.303 260.18ZM98.0042 260.18C97.2362 260.18 96.5222 260.054 95.8622 259.802C95.2022 259.55 94.6322 259.166 94.1522 258.65L94.6562 257.786C95.1842 258.278 95.7122 258.638 96.2402 258.866C96.7802 259.082 97.3502 259.19 97.9502 259.19C98.6822 259.19 99.2762 259.046 99.7322 258.758C100.188 258.458 100.416 258.032 100.416 257.48C100.416 257.108 100.302 256.826 100.074 256.634C99.8582 256.43 99.5402 256.268 99.1202 256.148C98.7122 256.016 98.2202 255.878 97.6442 255.734C96.9962 255.554 96.4502 255.368 96.0062 255.176C95.5742 254.972 95.2442 254.72 95.0162 254.42C94.8002 254.108 94.6922 253.706 94.6922 253.214C94.6922 252.602 94.8422 252.098 95.1422 251.702C95.4542 251.294 95.8742 250.988 96.4022 250.784C96.9422 250.568 97.5422 250.46 98.2022 250.46C98.9222 250.46 99.5582 250.574 100.11 250.802C100.662 251.03 101.112 251.348 101.46 251.756L100.866 252.584C100.53 252.2 100.128 251.918 99.6602 251.738C99.2042 251.546 98.6942 251.45 98.1302 251.45C97.7462 251.45 97.3802 251.504 97.0322 251.612C96.6842 251.708 96.3962 251.876 96.1682 252.116C95.9522 252.344 95.8442 252.662 95.8442 253.07C95.8442 253.406 95.9282 253.67 96.0962 253.862C96.2642 254.042 96.5162 254.198 96.8522 254.33C97.1882 254.45 97.6022 254.582 98.0942 254.726C98.8022 254.918 99.4202 255.116 99.9482 255.32C100.476 255.512 100.884 255.764 101.172 256.076C101.46 256.388 101.604 256.826 101.604 257.39C101.604 258.266 101.274 258.95 100.614 259.442C99.9542 259.934 99.0842 260.18 98.0042 260.18ZM103.627 260V250.622H104.851V260H103.627ZM103.627 248.66V246.86H104.851V248.66H103.627ZM111.543 260.18C110.871 260.18 110.247 260.054 109.671 259.802C109.107 259.538 108.615 259.184 108.195 258.74C107.787 258.284 107.469 257.768 107.241 257.192C107.013 256.604 106.899 255.986 106.899 255.338C106.899 254.666 107.013 254.042 107.241 253.466C107.469 252.878 107.793 252.362 108.213 251.918C108.633 251.462 109.125 251.108 109.689 250.856C110.265 250.592 110.889 250.46 111.561 250.46C112.233 250.46 112.851 250.592 113.415 250.856C113.979 251.108 114.471 251.462 114.891 251.918C115.311 252.362 115.635 252.878 115.863 253.466C116.091 254.042 116.205 254.666 116.205 255.338C116.205 255.986 116.091 256.604 115.863 257.192C115.635 257.768 115.311 258.284 114.891 258.74C114.483 259.184 113.991 259.538 113.415 259.802C112.851 260.054 112.227 260.18 111.543 260.18ZM108.141 255.356C108.141 256.052 108.291 256.688 108.591 257.264C108.903 257.828 109.317 258.278 109.833 258.614C110.349 258.938 110.919 259.1 111.543 259.1C112.167 259.1 112.737 258.932 113.253 258.596C113.769 258.26 114.183 257.804 114.495 257.228C114.807 256.64 114.963 256.004 114.963 255.32C114.963 254.624 114.807 253.988 114.495 253.412C114.183 252.836 113.769 252.38 113.253 252.044C112.737 251.708 112.167 251.54 111.543 251.54C110.919 251.54 110.349 251.714 109.833 252.062C109.329 252.41 108.921 252.872 108.609 253.448C108.297 254.012 108.141 254.648 108.141 255.356ZM126.136 260H124.912V254.762C124.912 253.658 124.75 252.854 124.426 252.35C124.102 251.834 123.592 251.576 122.896 251.576C122.416 251.576 121.942 251.696 121.474 251.936C121.006 252.164 120.592 252.482 120.232 252.89C119.884 253.286 119.632 253.742 119.476 254.258V260H118.252V250.622H119.368V252.746C119.62 252.29 119.95 251.894 120.358 251.558C120.766 251.21 121.228 250.94 121.744 250.748C122.26 250.556 122.794 250.46 123.346 250.46C123.862 250.46 124.3 250.556 124.66 250.748C125.02 250.94 125.308 251.216 125.524 251.576C125.74 251.924 125.896 252.35 125.992 252.854C126.088 253.346 126.136 253.898 126.136 254.51V260ZM127.99 257.3C127.99 256.712 128.158 256.208 128.494 255.788C128.83 255.356 129.292 255.026 129.88 254.798C130.48 254.558 131.17 254.438 131.95 254.438C132.406 254.438 132.88 254.474 133.372 254.546C133.864 254.618 134.302 254.726 134.686 254.87V254.078C134.686 253.286 134.452 252.656 133.984 252.188C133.516 251.72 132.868 251.486 132.04 251.486C131.536 251.486 131.038 251.582 130.546 251.774C130.066 251.954 129.562 252.224 129.034 252.584L128.566 251.72C129.178 251.3 129.778 250.988 130.366 250.784C130.954 250.568 131.554 250.46 132.166 250.46C133.318 250.46 134.23 250.79 134.902 251.45C135.574 252.11 135.91 253.022 135.91 254.186V258.524C135.91 258.692 135.946 258.818 136.018 258.902C136.09 258.974 136.204 259.016 136.36 259.028V260C136.228 260.012 136.114 260.024 136.018 260.036C135.922 260.048 135.85 260.048 135.802 260.036C135.502 260.024 135.274 259.928 135.118 259.748C134.962 259.568 134.878 259.376 134.866 259.172L134.848 258.488C134.428 259.028 133.882 259.448 133.21 259.748C132.538 260.036 131.854 260.18 131.158 260.18C130.558 260.18 130.012 260.054 129.52 259.802C129.04 259.538 128.662 259.19 128.386 258.758C128.122 258.314 127.99 257.828 127.99 257.3ZM134.272 258.02C134.404 257.852 134.506 257.69 134.578 257.534C134.65 257.378 134.686 257.24 134.686 257.12V255.752C134.278 255.596 133.852 255.476 133.408 255.392C132.976 255.308 132.538 255.266 132.094 255.266C131.218 255.266 130.51 255.44 129.97 255.788C129.43 256.136 129.16 256.61 129.16 257.21C129.16 257.558 129.25 257.888 129.43 258.2C129.61 258.5 129.874 258.752 130.222 258.956C130.57 259.148 130.978 259.244 131.446 259.244C132.034 259.244 132.58 259.13 133.084 258.902C133.6 258.674 133.996 258.38 134.272 258.02ZM138.609 246.86H139.833V257.876C139.833 258.344 139.917 258.65 140.085 258.794C140.253 258.938 140.457 259.01 140.697 259.01C140.913 259.01 141.129 258.986 141.345 258.938C141.561 258.89 141.747 258.842 141.903 258.794L142.119 259.784C141.891 259.88 141.609 259.958 141.273 260.018C140.949 260.078 140.667 260.108 140.427 260.108C139.875 260.108 139.431 259.946 139.095 259.622C138.771 259.298 138.609 258.854 138.609 258.29V246.86ZM45.14 281L41.342 271.622H42.62L45.824 279.776L49.046 271.622H50.252L46.454 281H45.14ZM51.9477 281V271.622H53.1717V281H51.9477ZM51.9477 269.66V267.86H53.1717V269.66H51.9477ZM55.2376 276.338C55.2376 275.45 55.4176 274.64 55.7776 273.908C56.1496 273.164 56.6596 272.57 57.3076 272.126C57.9556 271.682 58.6936 271.46 59.5216 271.46C60.3016 271.46 60.9976 271.67 61.6096 272.09C62.2336 272.498 62.7196 272.996 63.0676 273.584V267.86H64.2916V279.524C64.2916 279.692 64.3276 279.818 64.3996 279.902C64.4716 279.974 64.5796 280.016 64.7236 280.028V281C64.4836 281.036 64.2976 281.048 64.1656 281.036C63.9136 281.024 63.6916 280.922 63.4996 280.73C63.3076 280.538 63.2116 280.328 63.2116 280.1V279.182C62.8396 279.794 62.3356 280.28 61.6996 280.64C61.0636 281 60.4036 281.18 59.7196 281.18C59.0716 281.18 58.4716 281.048 57.9196 280.784C57.3796 280.52 56.9056 280.16 56.4976 279.704C56.1016 279.248 55.7896 278.732 55.5616 278.156C55.3456 277.568 55.2376 276.962 55.2376 276.338ZM63.0676 277.778V274.88C62.9116 274.448 62.6596 274.058 62.3116 273.71C61.9636 273.35 61.5676 273.068 61.1236 272.864C60.6916 272.648 60.2596 272.54 59.8276 272.54C59.3236 272.54 58.8676 272.648 58.4596 272.864C58.0516 273.068 57.6976 273.35 57.3976 273.71C57.1096 274.07 56.8876 274.478 56.7316 274.934C56.5756 275.39 56.4976 275.858 56.4976 276.338C56.4976 276.842 56.5816 277.322 56.7496 277.778C56.9296 278.234 57.1816 278.642 57.5056 279.002C57.8296 279.35 58.2016 279.62 58.6216 279.812C59.0416 280.004 59.4976 280.1 59.9896 280.1C60.3016 280.1 60.6256 280.04 60.9616 279.92C61.2976 279.8 61.6156 279.638 61.9156 279.434C62.2276 279.218 62.4856 278.966 62.6896 278.678C62.8936 278.39 63.0196 278.09 63.0676 277.778ZM71.1148 281.18C70.4428 281.18 69.8188 281.054 69.2428 280.802C68.6668 280.538 68.1688 280.184 67.7488 279.74C67.3288 279.284 66.9988 278.762 66.7588 278.174C66.5308 277.586 66.4168 276.956 66.4168 276.284C66.4168 275.408 66.6148 274.604 67.0108 273.872C67.4188 273.14 67.9768 272.558 68.6848 272.126C69.3928 271.682 70.1968 271.46 71.0968 271.46C72.0208 271.46 72.8248 271.682 73.5088 272.126C74.2048 272.57 74.7508 273.158 75.1468 273.89C75.5428 274.61 75.7408 275.402 75.7408 276.266C75.7408 276.362 75.7408 276.458 75.7408 276.554C75.7408 276.638 75.7348 276.704 75.7228 276.752H67.6948C67.7548 277.424 67.9408 278.024 68.2528 278.552C68.5768 279.068 68.9908 279.482 69.4948 279.794C70.0108 280.094 70.5688 280.244 71.1688 280.244C71.7808 280.244 72.3568 280.088 72.8968 279.776C73.4488 279.464 73.8328 279.056 74.0488 278.552L75.1108 278.84C74.9188 279.284 74.6248 279.686 74.2288 280.046C73.8328 280.406 73.3648 280.688 72.8248 280.892C72.2968 281.084 71.7268 281.18 71.1148 281.18ZM67.6588 275.87H74.5888C74.5408 275.186 74.3548 274.586 74.0308 274.07C73.7188 273.554 73.3048 273.152 72.7888 272.864C72.2848 272.564 71.7268 272.414 71.1148 272.414C70.5028 272.414 69.9448 272.564 69.4408 272.864C68.9368 273.152 68.5228 273.56 68.1988 274.088C67.8868 274.604 67.7068 275.198 67.6588 275.87ZM81.6253 281.18C80.9533 281.18 80.3293 281.054 79.7533 280.802C79.1893 280.538 78.6973 280.184 78.2773 279.74C77.8693 279.284 77.5513 278.768 77.3233 278.192C77.0953 277.604 76.9813 276.986 76.9813 276.338C76.9813 275.666 77.0953 275.042 77.3233 274.466C77.5513 273.878 77.8753 273.362 78.2953 272.918C78.7153 272.462 79.2073 272.108 79.7713 271.856C80.3473 271.592 80.9713 271.46 81.6433 271.46C82.3153 271.46 82.9333 271.592 83.4973 271.856C84.0613 272.108 84.5533 272.462 84.9733 272.918C85.3933 273.362 85.7173 273.878 85.9453 274.466C86.1733 275.042 86.2873 275.666 86.2873 276.338C86.2873 276.986 86.1733 277.604 85.9453 278.192C85.7173 278.768 85.3933 279.284 84.9733 279.74C84.5653 280.184 84.0733 280.538 83.4973 280.802C82.9333 281.054 82.3093 281.18 81.6253 281.18ZM78.2233 276.356C78.2233 277.052 78.3733 277.688 78.6733 278.264C78.9853 278.828 79.3993 279.278 79.9153 279.614C80.4313 279.938 81.0013 280.1 81.6253 280.1C82.2493 280.1 82.8193 279.932 83.3353 279.596C83.8513 279.26 84.2653 278.804 84.5773 278.228C84.8893 277.64 85.0453 277.004 85.0453 276.32C85.0453 275.624 84.8893 274.988 84.5773 274.412C84.2653 273.836 83.8513 273.38 83.3353 273.044C82.8193 272.708 82.2493 272.54 81.6253 272.54C81.0013 272.54 80.4313 272.714 79.9153 273.062C79.4113 273.41 79.0033 273.872 78.6913 274.448C78.3793 275.012 78.2233 275.648 78.2233 276.356ZM92.0964 281.126C91.4604 281.126 90.8724 280.994 90.3324 280.73C89.7924 280.466 89.3244 280.112 88.9284 279.668C88.5444 279.212 88.2444 278.696 88.0284 278.12C87.8124 277.544 87.7044 276.95 87.7044 276.338C87.7044 275.678 87.8064 275.06 88.0104 274.484C88.2264 273.896 88.5264 273.374 88.9104 272.918C89.3064 272.462 89.7684 272.108 90.2964 271.856C90.8244 271.592 91.4124 271.46 92.0604 271.46C92.8644 271.46 93.5604 271.664 94.1484 272.072C94.7484 272.48 95.2524 272.984 95.6604 273.584V271.622H96.7584V281.036C96.7584 281.9 96.5484 282.626 96.1284 283.214C95.7204 283.814 95.1624 284.264 94.4544 284.564C93.7584 284.864 92.9964 285.014 92.1684 285.014C91.1004 285.014 90.2364 284.822 89.5764 284.438C88.9164 284.054 88.3764 283.538 87.9564 282.89L88.7124 282.296C89.0844 282.884 89.5764 283.322 90.1884 283.61C90.8124 283.898 91.4724 284.042 92.1684 284.042C92.7804 284.042 93.3384 283.928 93.8424 283.7C94.3584 283.484 94.7664 283.154 95.0664 282.71C95.3784 282.266 95.5344 281.708 95.5344 281.036V279.182C95.1744 279.77 94.6824 280.244 94.0584 280.604C93.4344 280.952 92.7804 281.126 92.0964 281.126ZM92.4384 280.1C92.8104 280.1 93.1644 280.034 93.5004 279.902C93.8484 279.77 94.1664 279.596 94.4544 279.38C94.7424 279.152 94.9824 278.9 95.1744 278.624C95.3664 278.348 95.4864 278.066 95.5344 277.778V274.88C95.3544 274.424 95.0964 274.022 94.7604 273.674C94.4244 273.314 94.0404 273.038 93.6084 272.846C93.1884 272.642 92.7504 272.54 92.2944 272.54C91.7664 272.54 91.2924 272.654 90.8724 272.882C90.4644 273.098 90.1164 273.392 89.8284 273.764C89.5524 274.124 89.3364 274.532 89.1804 274.988C89.0244 275.444 88.9464 275.9 88.9464 276.356C88.9464 276.86 89.0364 277.34 89.2164 277.796C89.3964 278.24 89.6424 278.642 89.9544 279.002C90.2784 279.35 90.6504 279.62 91.0704 279.812C91.5024 280.004 91.9584 280.1 92.4384 280.1ZM104.141 272.702C103.325 272.726 102.605 272.954 101.981 273.386C101.369 273.818 100.937 274.412 100.685 275.168V281H99.4613V271.622H100.613V273.872C100.937 273.212 101.363 272.678 101.891 272.27C102.431 271.862 103.001 271.634 103.601 271.586C103.721 271.574 103.823 271.568 103.907 271.568C104.003 271.568 104.081 271.574 104.141 271.586V272.702ZM104.981 278.3C104.981 277.712 105.149 277.208 105.485 276.788C105.821 276.356 106.283 276.026 106.871 275.798C107.471 275.558 108.161 275.438 108.941 275.438C109.397 275.438 109.871 275.474 110.363 275.546C110.855 275.618 111.293 275.726 111.677 275.87V275.078C111.677 274.286 111.443 273.656 110.975 273.188C110.507 272.72 109.859 272.486 109.031 272.486C108.527 272.486 108.029 272.582 107.537 272.774C107.057 272.954 106.553 273.224 106.025 273.584L105.557 272.72C106.169 272.3 106.769 271.988 107.357 271.784C107.945 271.568 108.545 271.46 109.157 271.46C110.309 271.46 111.221 271.79 111.893 272.45C112.565 273.11 112.901 274.022 112.901 275.186V279.524C112.901 279.692 112.937 279.818 113.009 279.902C113.081 279.974 113.195 280.016 113.351 280.028V281C113.219 281.012 113.105 281.024 113.009 281.036C112.913 281.048 112.841 281.048 112.793 281.036C112.493 281.024 112.265 280.928 112.109 280.748C111.953 280.568 111.869 280.376 111.857 280.172L111.839 279.488C111.419 280.028 110.873 280.448 110.201 280.748C109.529 281.036 108.845 281.18 108.149 281.18C107.549 281.18 107.003 281.054 106.511 280.802C106.031 280.538 105.653 280.19 105.377 279.758C105.113 279.314 104.981 278.828 104.981 278.3ZM111.263 279.02C111.395 278.852 111.497 278.69 111.569 278.534C111.641 278.378 111.677 278.24 111.677 278.12V276.752C111.269 276.596 110.843 276.476 110.399 276.392C109.967 276.308 109.529 276.266 109.085 276.266C108.209 276.266 107.501 276.44 106.961 276.788C106.421 277.136 106.151 277.61 106.151 278.21C106.151 278.558 106.241 278.888 106.421 279.2C106.601 279.5 106.865 279.752 107.213 279.956C107.561 280.148 107.969 280.244 108.437 280.244C109.025 280.244 109.571 280.13 110.075 279.902C110.591 279.674 110.987 279.38 111.263 279.02ZM120.333 281.18C119.553 281.18 118.851 280.976 118.227 280.568C117.615 280.16 117.129 279.656 116.769 279.056V284.834H115.545V271.622H116.643V273.44C117.015 272.852 117.513 272.378 118.137 272.018C118.761 271.646 119.427 271.46 120.135 271.46C120.783 271.46 121.377 271.598 121.917 271.874C122.457 272.138 122.925 272.498 123.321 272.954C123.717 273.41 124.023 273.932 124.239 274.52C124.467 275.096 124.581 275.696 124.581 276.32C124.581 277.196 124.401 278.006 124.041 278.75C123.693 279.482 123.201 280.07 122.565 280.514C121.929 280.958 121.185 281.18 120.333 281.18ZM119.991 280.1C120.507 280.1 120.969 279.998 121.377 279.794C121.785 279.578 122.133 279.29 122.421 278.93C122.721 278.57 122.949 278.168 123.105 277.724C123.261 277.268 123.339 276.8 123.339 276.32C123.339 275.816 123.249 275.336 123.069 274.88C122.901 274.424 122.655 274.022 122.331 273.674C122.007 273.326 121.635 273.05 121.215 272.846C120.795 272.642 120.339 272.54 119.847 272.54C119.535 272.54 119.211 272.6 118.875 272.72C118.539 272.84 118.215 273.014 117.903 273.242C117.603 273.458 117.351 273.704 117.147 273.98C116.943 274.256 116.817 274.55 116.769 274.862V277.742C116.961 278.186 117.219 278.588 117.543 278.948C117.867 279.296 118.239 279.578 118.659 279.794C119.091 279.998 119.535 280.1 119.991 280.1ZM134.539 281H133.315V275.762C133.315 274.706 133.129 273.914 132.757 273.386C132.385 272.846 131.851 272.576 131.155 272.576C130.699 272.576 130.243 272.696 129.787 272.936C129.343 273.164 128.947 273.482 128.599 273.89C128.263 274.286 128.023 274.742 127.879 275.258V281H126.655V267.86H127.879V273.746C128.251 273.05 128.767 272.498 129.427 272.09C130.099 271.67 130.813 271.46 131.569 271.46C132.109 271.46 132.565 271.556 132.937 271.748C133.321 271.94 133.627 272.222 133.855 272.594C134.095 272.954 134.269 273.38 134.377 273.872C134.485 274.352 134.539 274.898 134.539 275.51V281ZM137.46 283.88C137.628 283.892 137.79 283.898 137.946 283.898C138.102 283.91 138.216 283.904 138.288 283.88C138.432 283.856 138.57 283.772 138.702 283.628C138.834 283.484 138.99 283.208 139.17 282.8C139.35 282.392 139.602 281.792 139.926 281L135.84 271.622H137.136L140.574 279.74L143.742 271.622H144.966L140.106 283.718C140.022 283.946 139.896 284.156 139.728 284.348C139.56 284.552 139.35 284.708 139.098 284.816C138.858 284.936 138.558 285.002 138.198 285.014C138.09 285.026 137.976 285.026 137.856 285.014C137.748 285.014 137.616 285.002 137.46 284.978V283.88ZM145.125 281V279.236H146.187V281H145.125Z" fill="white"/>
<path d="M143.502 57C149.301 57 154.002 61.701 154.002 67.5V102.5C154.002 108.299 149.301 113 143.502 113H108.5C102.701 113 98 108.299 98 102.5V67.5C98 61.701 102.701 57 108.5 57H143.502ZM176.741 58.2445C178.895 57.0128 181.535 58.3525 181.929 60.6796L181.98 61.2811L182 108.716C182.001 111.197 179.527 112.824 177.31 112.011L176.763 111.756L161.004 102.751V67.2461L176.741 58.2445Z" fill="white"/>
<defs>
<filter id="filter0_d_514_230" x="0" y="0" width="288" height="342" filterUnits="userSpaceOnUse" color-interpolation-filters="sRGB">
<feFlood flood-opacity="0" result="BackgroundImageFix"/>
<feColorMatrix in="SourceAlpha" type="matrix" values="0 0 0 0 0 0 0 0 0 0 0 0 0 0 0 0 0 0 127 0" result="hardAlpha"/>
<feOffset dx="4" dy="6"/>
<feGaussianBlur stdDeviation="7"/>
<feComposite in2="hardAlpha" operator="out"/>
<feColorMatrix type="matrix" values="0 0 0 0 0.694118 0 0 0 0 0.690196 0 0 0 0 0.690196 0 0 0 0.2 0"/>
<feBlend mode="normal" in2="BackgroundImageFix" result="effect1_dropShadow_514_230"/>
<feBlend mode="normal" in="SourceGraphic" in2="effect1_dropShadow_514_230" result="shape"/>
</filter>
</defs>
</svg>
